$MeshFormat
4.1 0 8
$EndMeshFormat
$PhysicalNames
3
1 1 "inner"
1 2 "outer"
2 3 "domain"
$EndPhysicalNames
$Entities
9 8 1 0
1 0 0 0 0 
2 1 0 0 0 
3 0 1 0 0 
4 -1 0 0 0 
5 0 -1 0 0 
6 2 0 0 0 
7 0 2 0 0 
8 -2 0 0 0 
9 0 -2 0 0 
1 5.551115123125783e-17 0 0 1 1 0 1 1 2 2 -3 
2 -1 5.551115123125783e-17 0 0 1 0 1 1 2 3 -4 
3 -1 -1 0 -5.551115123125783e-17 0 0 1 1 2 4 -5 
4 0 -1 0 1 -5.551115123125783e-17 0 1 1 2 5 -2 
5 1.110223024625157e-16 0 0 2 2 0 1 2 2 6 -7 
6 -2 1.110223024625157e-16 0 0 2 0 1 2 2 7 -8 
7 -2 -2 0 -1.110223024625157e-16 0 0 1 2 2 8 -9 
8 0 -2 0 2 -1.110223024625157e-16 0 1 2 2 9 -6 
1 -2 -2 0 2 2 0 1 3 8 5 6 7 8 -4 -3 -2 -1 
$EndEntities
$Nodes
17 356 1 356
0 2 0 1
1
1 0 0
0 3 0 1
2
0 1 0
0 4 0 1
3
-1 0 0
0 5 0 1
4
0 -1 0
0 6 0 1
5
2 0 0
0 7 0 1
6
0 2 0
0 8 0 1
7
-2 0 0
0 9 0 1
8
0 -2 0
1 1 0 7
9
10
11
12
13
14
15
0.9807852803040616 0.1950903225146834 0
0.9238795320827141 0.3826834333997557 0
0.8314696113699828 0.5555702344152805 0
0.7071067795767629 0.7071067827963321 0
0.5555702316295839 0.8314696132313258 0
0.3826834312295727 0.9238795329816333 0
0.1950903214133833 0.9807852805231239 0
1 2 0 7
16
17
18
19
20
21
22
-0.1950903225146834 0.9807852803040616 0
-0.3826834333997557 0.9238795320827141 0
-0.5555702344152805 0.8314696113699828 0
-0.7071067827963321 0.7071067795767629 0
-0.8314696132313258 0.5555702316295839 0
-0.9238795329816333 0.3826834312295727 0
-0.9807852805231239 0.1950903214133833 0
1 3 0 7
23
24
25
26
27
28
29
-0.9807852803040616 -0.1950903225146834 0
-0.9238795320827141 -0.3826834333997557 0
-0.8314696113699828 -0.5555702344152805 0
-0.7071067795767629 -0.7071067827963321 0
-0.5555702316295839 -0.8314696132313258 0
-0.3826834312295727 -0.9238795329816333 0
-0.1950903214133833 -0.9807852805231239 0
1 4 0 7
30
31
32
33
34
35
36
0.1950903225146834 -0.9807852803040616 0
0.3826834333997557 -0.9238795320827141 0
0.5555702344152805 -0.8314696113699828 0
0.7071067827963321 -0.7071067795767629 0
0.8314696132313258 -0.5555702316295839 0
0.9238795329816333 -0.3826834312295727 0
0.9807852805231239 -0.1950903214133833 0
1 5 0 15
37
38
39
40
41
42
43
44
45
46
47
48
49
50
51
1.990369453300517 0.1960342811046107 0
1.961570560607652 0.3901806450317374 0
1.913880671004866 0.5805693560238636 0
1.847759064163578 0.7653668668039773 0
1.763842527380806 0.9427934761138778 0
1.662939222735937 1.11114046883659 0
1.546020904168394 1.268786571443102 0
1.41421355914669 1.4142135655995 0
1.268786565293916 1.5460209092149 0
1.111140463249119 1.662939226469366 0
0.9427934710442101 1.7638425300906 0
0.7653668624636114 1.847759065961417 0
0.5805693527365837 1.913880672002052 0
0.3901806428291373 1.961570561045776 0
0.1960342800604678 1.990369453403356 0
1 6 0 15
52
53
54
55
56
57
58
59
60
61
62
63
64
65
66
-0.1960342811046107 1.990369453300517 0
-0.3901806450317374 1.961570560607652 0
-0.5805693560238636 1.913880671004866 0
-0.7653668668039773 1.847759064163578 0
-0.9427934761138778 1.763842527380806 0
-1.11114046883659 1.662939222735937 0
-1.268786571443102 1.546020904168394 0
-1.4142135655995 1.41421355914669 0
-1.5460209092149 1.268786565293916 0
-1.662939226469366 1.111140463249119 0
-1.7638425300906 0.9427934710442101 0
-1.847759065961417 0.7653668624636114 0
-1.913880672002052 0.5805693527365837 0
-1.961570561045776 0.3901806428291373 0
-1.990369453403356 0.1960342800604678 0
1 7 0 15
67
68
69
70
71
72
73
74
75
76
77
78
79
80
81
-1.990369453300517 -0.1960342811046107 0
-1.961570560607652 -0.3901806450317374 0
-1.913880671004866 -0.5805693560238636 0
-1.847759064163578 -0.7653668668039773 0
-1.763842527380806 -0.9427934761138778 0
-1.662939222735937 -1.11114046883659 0
-1.546020904168394 -1.268786571443102 0
-1.41421355914669 -1.4142135655995 0
-1.268786565293916 -1.5460209092149 0
-1.111140463249119 -1.662939226469366 0
-0.9427934710442101 -1.7638425300906 0
-0.7653668624636114 -1.847759065961417 0
-0.5805693527365837 -1.913880672002052 0
-0.3901806428291373 -1.961570561045776 0
-0.1960342800604678 -1.990369453403356 0
1 8 0 15
82
83
84
85
86
87
88
89
90
91
92
93
94
95
96
0.1960342811046107 -1.990369453300517 0
0.3901806450317374 -1.961570560607652 0
0.5805693560238636 -1.913880671004866 0
0.7653668668039773 -1.847759064163578 0
0.9427934761138778 -1.763842527380806 0
1.11114046883659 -1.662939222735937 0
1.268786571443102 -1.546020904168394 0
1.4142135655995 -1.41421355914669 0
1.5460209092149 -1.268786565293916 0
1.662939226469366 -1.111140463249119 0
1.7638425300906 -0.9427934710442101 0
1.847759065961417 -0.7653668624636114 0
1.913880672002052 -0.5805693527365837 0
1.961570561045776 -0.3901806428291373 0
1.990369453403356 -0.1960342800604678 0
2 1 0 260
97
98
99
100
101
102
103
104
105
106
107
108
109
110
111
112
113
114
115
116
117
118
119
120
121
122
123
124
125
126
127
128
129
130
131
132
133
134
135
136
137
138
139
140
141
142
143
144
145
146
147
148
149
150
151
152
153
154
155
156
157
158
159
160
161
162
163
164
165
166
167
168
169
170
171
172
173
174
175
176
177
178
179
180
181
182
183
184
185
186
187
188
189
190
191
192
193
194
195
196
197
198
199
200
201
202
203
204
205
206
207
208
209
210
211
212
213
214
215
216
217
218
219
220
221
222
223
224
225
226
227
228
229
230
231
232
233
234
235
236
237
238
239
240
241
242
243
244
245
246
247
248
249
250
251
252
253
254
255
256
257
258
259
260
261
262
263
264
265
266
267
268
269
270
271
272
273
274
275
276
277
278
279
280
281
282
283
284
285
286
287
288
289
290
291
292
293
294
295
296
297
298
299
300
301
302
303
304
305
306
307
308
309
310
311
312
313
314
315
316
317
318
319
320
321
322
323
324
325
326
327
328
329
330
331
332
333
334
335
336
337
338
339
340
341
342
343
344
345
346
347
348
349
350
351
352
353
354
355
356
1.32900542080749 -0.07887715482542797 0
-1.348842571174651 -0.0992052653908813 0
-0.4203487185565245 -1.269516915272201 0
1.146114912696567 -0.5303113906853939 0
0.3957101299990615 -1.306778631688954 0
-0.984918617895274 -0.8669647275966207 0
0.3394180051871008 1.252625810962018 0
-1.148899767506063 0.6152593969525496 0
1.127821612101759 0.6435786453921407 0
-0.6507773017512805 1.120300768105104 0
-1.59328208972023 0.3619325615519677 0
0.8028836207069988 1.464124494683062 0
1.608555298570264 0.4706942417515215 0
-0.4696091134179674 1.600831741892848 0
-1.157896081265822 1.123187415456777 0
-0.01520541414330874 1.613676985363274 0
1.131632705312195 1.151665464169779 0
0.8385071148405914 -1.360846031440282 0
0.008656368743798501 -1.633790659263706 0
1.181851363438406 -1.240382692063961 0
-1.55051421899341 -0.6143125382972611 0
0.8157419551628542 -0.985455932488481 0
0.6282615709373615 1.139329060220659 0
-0.3641683925512617 1.246905747600878 0
-0.9186001898209405 -1.342728019307241 0
1.500515280547988 -0.6118185544397231 0
1.621367316403847 -0.2874829993659471 0
-1.641410540963599 -0.2992664082465359 0
-1.27327469676227 0.3164667773349553 0
1.260219935663488 0.3491635805009502 0
0.3722540366792302 1.573914908173374 0
-1.471590450083294 0.7921784926120272 0
1.377972710709248 0.8491955168492843 0
-0.8541778174910758 1.371127085852373 0
-0.6319458407934567 -1.523733757562241 0
-1.409829091216646 -0.8754384419283421 0
0.6531626895538225 -1.622566838087795 0
-0.3431736038025911 -1.61366250998828 0
-0.7607421499161112 -1.063334064582559 0
-1.228872128475607 -0.5665045151723053 0
0.3743444266253329 -1.630474372013324 0
1.257656308273293 -0.921982307786818 0
-1.185658028386248 -1.119569760943534 0
0.003481582918571485 -1.294589296744325 0
-0.9170427411527053 0.8903725109306306 0
-0.00950664690473709 1.278417017991726 0
0.8986995674181227 0.910471978577562 0
1.651915205468901 0.03192687019616654 0
-1.660691193680454 0.005994990112535351 0
1.479336523856248 -0.2168626600749941 0
1.652374118493497 -0.1325970914340089 0
1.501576471951219 0.007948752094550796 0
1.540720786716741 -0.1131955244930283 0
0.9457377869923272 -0.6406448217135461 0
1.016621236057382 -0.4246131979068751 0
0.9295459766577336 -0.5400522837482269 0
0.6238126069445239 -0.9855129342224268 0
0.7855805479606459 -0.8448402965482036 0
0.6483114187256558 -0.8819652675043318 0
0.342254684311415 1.109854961172154 0
0.5343819257687555 1.032329902881127 0
0.489127836260408 1.212943096962564 0
0.4540043987403549 1.114007028044858 0
-0.5459334517927352 1.023414089516286 0
-0.3541114921769026 1.105694232265001 0
-0.5156920200112217 1.199349135077563 0
-0.4696792821869867 1.105538026063793 0
-1.039133885668472 0.5249478355645298 0
-1.226375955606419 0.4726323902920086 0
-1.122586492468095 0.3255870849524719 0
-1.124640443213567 0.440267674847203 0
1.028596567335485 0.540314029988038 0
1.1139059942918 0.342396664896365 0
1.208465984869092 0.5064504923277298 0
1.112787731086708 0.4612913641589356 0
-1.679791492501978 0.7590316927289508 0
-1.560163605564143 0.9707780923333957 0
-1.665003251700326 0.8905804175047846 0
-0.6368271915934093 1.721871803071068 0
-0.405334014785064 1.796997211111465 0
-0.5411897506575193 1.80813410641214 0
0.76922415244484 1.667923487110122 0
0.9852800001413181 1.557314501130451 0
0.8969256918157993 1.661257295235011 0
1.726548440972481 0.6485978440716096 0
1.780797996369063 0.4243991009149034 0
1.806648279185786 0.5476294266437673 0
-1.503429059537425 -0.2339634818545727 0
-1.515233904346254 -0.01870120007069149 0
-1.66587307403786 -0.148913597829211 0
-1.557538158207355 -0.1328881600885215 0
-0.8731161444092509 -0.7791382470494498 0
-0.8812759230403043 -0.9752556403135467 0
-0.7197361253357503 -0.9189414390148487 0
-0.8223015018037891 -0.8866244026514838 0
-0.553416244501686 -1.396125120963763 0
-0.4928571053320731 -1.583682806736961 0
-0.3531142707381192 -1.458696143888918 0
-0.4659256104836558 -1.475443039421296 0
-1.49215706315674 -0.7528232889974128 0
-1.31487074918344 -0.7521234181515444 0
-1.411183899803327 -0.5684116450873188 0
-1.402531813647059 -0.6889268632156904 0
1.343756120534789 -0.5555896029321988 0
1.17664967276478 -0.731246271132917 0
1.411765280557339 -0.7615360369259789 0
1.307910479655245 -0.6846783711775106 0
1.473231017779318 -1.018660354032164 0
1.209957871007021 -1.125649434522311 0
1.276381760912154 -1.310525814294141 0
1.37749694874032 -1.177836186689401 0
-0.3611223263630138 -1.77930209943357 0
0.005738777494382598 -1.811089719678239 0
-0.1741100303117777 -1.626909945845496 0
-0.1810711580185556 -1.802239837620817 0
0.3999584598937785 -1.133943585761332 0
0.001100371904296677 -1.136660465468635 0
0.1986482195490351 -1.300629282887735 0
0.1977239905314755 -1.135569583125405 0
-1.054909681627094 -0.4571753195073288 0
-1.09066783396996 -0.7344904369331536 0
-0.9622156088509568 -0.6309546486036562 0
0.5674975440507952 1.527670407618574 0
0.3547534663989533 1.404427976496744 0
0.7075542684463469 1.276556885320025 0
0.5325896789547011 1.35637690706491 0
-0.6822263506378111 1.477894596542808 0
-0.7474450185485346 1.238198610446483 0
-0.4050883103307946 1.400053329720925 0
-0.5863565879853807 1.33150317178822 0
1.782071590541528 -0.3391008963882174 0
1.817005453240923 0.02286265531687339 0
1.810065486728315 -0.161367274769018 0
-1.286595988099566 0.6946820569686676 0
-1.540059650761855 0.5557535478853532 0
-1.42767244229284 0.3365986672068789 0
-1.370950192058895 0.5175317608729759 0
1.485144682828232 0.6793162291853978 0
1.246316782974909 0.740733712463425 0
1.414561594664279 0.3956961038897204 0
1.340933647837807 0.5793344159034048 0
1.566603410724128 -0.4488992886445116 0
1.664614476800437 -0.6853296598029064 0
1.732536087491907 -0.5137255639011835 0
0.7190125559963443 -1.530160083022178 0
0.6997830603220618 -1.713088391689322 0
0.9874117811306561 -1.521491265960562 0
0.8391625431790702 -1.628933666248456 0
1.574679515495953 -0.852383840274375 0
-1.598528788430416 -0.4574324949440365 0
-1.79312728110847 -0.3451745295665065 0
-1.692456620932199 -0.6845304841311326 0
-1.750063983428174 -0.517181756347617 0
-1.056606335723129 -1.235978757355372 0
-1.294220805333187 -1.262221080848356 0
-1.011342443319335 -1.496001382290954 0
-1.157736651060965 -1.384902842862048 0
-0.6975316970012054 -1.675675747892844 0
-0.5329368390438602 -1.737728829724772 0
-0.774212025374956 -1.440036205619067 0
-0.8567857223764747 -1.593944276700099 0
-1.527470230541722 -0.9903665701324551 0
-1.618705915079652 -0.8423533757482571 0
1.056547431275241 -1.283859621108366 0
1.143539551385873 -1.416865223635791 0
-1.282690890419621 1.261391439132056 0
-1.010779249162046 1.253940640261668 0
-0.9761437983727617 1.511653114876012 0
-1.134561660476364 1.39323996315142 0
1.266254705462053 1.279254695213822 0
1.261079431557439 1.005268898255532 0
1.515422323306935 0.9738257833226638 0
1.397250114823358 1.131636917312668 0
-0.009776551837641336 1.799448779792219 0
0.1797416800558759 1.601906149224351 0
0.3822418573921528 1.759359735508556 0
0.1872032124487218 1.787741121204548 0
-0.2204670253116467 1.610822406017205 0
-0.2115994640890152 1.797474009196671 0
0.9851079454729628 1.294913390172617 0
1.122417238795525 1.420624216802461 0
-1.301409805637135 0.9752147595522872 0
-1.424013874493965 1.115960090492385 0
1.630916741273682 0.2238740511782203 0
1.805126556964141 0.2190561708621536 0
-1.633292556382349 0.1774099369517617 0
-1.3065811794324 0.1353602593564102 0
-1.470336150668017 0.1536050406926477 0
-1.035401074620181 1.000075335293731 0
-0.7838453758005044 1.013424334062346 0
-0.8948833940706475 1.126713430693966 0
-0.1923543976878804 1.269973177902664 0
-0.01477136844495237 1.43973730480027 0
-0.2099589744818641 1.432286708556283 0
0.7643895280509222 1.03400813212515 0
1.009235429938283 1.028273420765461 0
0.8668289368412289 1.161222425034462 0
-0.6138084438209436 -1.152690140084492 0
-0.8324663614414237 -1.200540169569497 0
-0.6896676457627403 -1.297972646945668 0
-0.3914031447236883 -1.071321828288118 0
-0.1941093816006714 -1.28327894617978 0
-0.1966310616478842 -1.119205696855455 0
-1.147163210693359 -0.05089367155257563 0
-1.283126813582884 -0.3292004617055637 0
-1.119443861495306 -0.2593691242415286 0
0.5970240453133679 -1.323305060369833 0
0.8245190485868722 -1.149903322925854 0
0.6108123841817069 -1.146656325761007 0
1.014809803721454 -0.9589958057603961 0
0.9815682043832052 -0.7912498174417459 0
1.134592694610126 -0.0393330805766605 0
1.244005230017678 -0.308477586737635 0
1.096085612580244 -0.2439834492399452 0
-0.8048460260531241 0.7909730800311814 0
-0.669898590385127 0.9134781241020825 0
-0.00468557726905349 1.128576396929146 0
-0.1871632374286999 1.11845695555186 0
0.7955837468633852 0.8011672735108359 0
0.660028342184507 0.9231950963193626 0
-1.041226787695382 0.7543321588379499 0
-0.9275571831975185 0.6541286079290964 0
1.020552629408269 0.7775255936792841 0
0.9176812795746107 0.6660804064908035 0
0.1702519880471793 1.271083897698264 0
0.1767577743120708 1.119768018555011 0
0.006805813108763084 -1.462087677941365 0
0.1936884280596936 -1.634411576332901 0
0.3828481333207194 -1.471412974447419 0
0.1958226647509327 -1.46685173711884 0
0.3768395709333782 -1.790830975084608 0
0.1933046024874114 -1.806723604765435 0
1.294030363829139 0.16251989484695 0
1.130023032421371 0.1641563183167433 0
-1.138368351929821 0.1506703849084001 0
-1.169035640021834 0.8561712722076521 0
0.1726405566472509 1.429913879892647 0
1.134752395874727 0.8883281894139682 0
-1.304402838441169 -0.9970853766330372 0
-1.418172987898263 -1.129919870056386 0
1.461165489784675 0.1956061754026961 0
-0.1816541071565269 -1.455844067627991 0
-1.770189347668429 0.3786074106652319 0
-1.723092408819368 0.5718465338649774 0
0.5778641174443044 1.715311938779165 0
1.623428255124853 0.8064754018120076 0
-0.8060570520997439 1.619572605526094 0
-1.821014602299992 0.006701809718002695 0
-1.804021773260226 0.1898172426353972 0
-1.817290441618591 -0.1709129426783544 0
-1.08406115225831 -0.9860228683474319 0
-1.200011675994665 -0.8634965434242049 0
1.405408099834431 -0.3805924264593105 0
-1.446520195286439 -0.3963373734300785 0
0.5381704785260071 -1.625285609592404 0
0.5478956415706181 -1.762487004746853 0
-0.5690997181578922 -0.9925656624213268 0
-0.9634104476078419 -1.098781270218591 0
0.5619708249381473 -1.484731139801051 0
1.025973957172482 -1.128865332305046 0
$EndNodes
$Elements
9 404 1 404
1 1 1 8
1 1 9 
2 9 10 
3 10 11 
4 11 12 
5 12 13 
6 13 14 
7 14 15 
8 15 2 
1 2 1 8
9 2 16 
10 16 17 
11 17 18 
12 18 19 
13 19 20 
14 20 21 
15 21 22 
16 22 3 
1 3 1 8
17 3 23 
18 23 24 
19 24 25 
20 25 26 
21 26 27 
22 27 28 
23 28 29 
24 29 4 
1 4 1 8
25 4 30 
26 30 31 
27 31 32 
28 32 33 
29 33 34 
30 34 35 
31 35 36 
32 36 1 
1 5 1 16
33 5 37 
34 37 38 
35 38 39 
36 39 40 
37 40 41 
38 41 42 
39 42 43 
40 43 44 
41 44 45 
42 45 46 
43 46 47 
44 47 48 
45 48 49 
46 49 50 
47 50 51 
48 51 6 
1 6 1 16
49 6 52 
50 52 53 
51 53 54 
52 54 55 
53 55 56 
54 56 57 
55 57 58 
56 58 59 
57 59 60 
58 60 61 
59 61 62 
60 62 63 
61 63 64 
62 64 65 
63 65 66 
64 66 7 
1 7 1 16
65 7 67 
66 67 68 
67 68 69 
68 69 70 
69 70 71 
70 71 72 
71 72 73 
72 73 74 
73 74 75 
74 75 76 
75 76 77 
76 77 78 
77 78 79 
78 79 80 
79 80 81 
80 81 8 
1 8 1 16
81 8 82 
82 82 83 
83 83 84 
84 84 85 
85 85 86 
86 86 87 
87 87 88 
88 88 89 
89 89 90 
90 90 91 
91 91 92 
92 92 93 
93 93 94 
94 94 95 
95 95 96 
96 96 5 
2 1 3 308
97 97 146 149 148 
98 123 147 149 146 
99 144 148 149 147 
100 35 34 152 151 
101 33 150 152 34 
102 100 151 152 150 
103 33 32 155 154 
104 31 153 155 32 
105 118 154 155 153 
106 103 156 159 158 
107 14 157 159 156 
108 119 158 159 157 
109 106 160 163 162 
110 17 161 163 160 
111 120 162 163 161 
112 21 164 167 166 
113 104 165 167 164 
114 125 166 167 165 
115 105 168 171 170 
116 10 169 171 168 
117 126 170 171 169 
118 61 62 174 173 
119 63 172 174 62 
120 128 173 174 172 
121 53 54 177 176 
122 55 175 177 54 
123 110 176 177 175 
124 46 47 180 179 
125 48 178 180 47 
126 108 179 180 178 
127 38 39 183 182 
128 40 181 183 39 
129 109 182 183 181 
130 124 184 187 186 
131 98 185 187 184 
132 145 186 187 185 
133 26 188 191 190 
134 102 189 191 188 
135 135 190 191 189 
136 99 192 195 194 
137 131 193 195 192 
138 134 194 195 193 
139 117 196 199 198 
140 132 197 199 196 
141 136 198 199 197 
142 122 200 203 202 
143 100 201 203 200 
144 138 202 203 201 
145 89 90 207 206 
146 91 204 207 90 
147 138 205 207 204 
148 116 206 207 205 
149 134 208 211 210 
150 80 81 211 208 
151 8 209 211 81 
152 115 210 211 209 
153 101 212 215 214 
154 31 30 215 212 
155 4 213 215 30 
156 140 214 215 213 
157 102 188 218 217 
158 26 25 218 188 
159 24 216 218 25 
160 136 217 218 216 
161 108 219 222 221 
162 127 220 222 219 
163 103 158 222 220 
164 119 221 222 158 
165 110 223 226 225 
166 130 224 226 223 
167 106 162 226 224 
168 120 225 226 162 
169 123 227 229 147 
170 95 96 229 227 
171 5 228 229 96 
172 144 147 229 228 
173 104 230 233 165 
174 128 231 233 230 
175 107 232 233 231 
176 125 165 233 232 
177 109 234 237 236 
178 129 235 237 234 
179 105 170 237 235 
180 126 236 237 170 
181 93 94 240 239 
182 95 227 240 94 
183 123 238 240 227 
184 122 239 240 238 
185 114 241 244 243 
186 133 242 244 241 
187 85 86 244 242 
188 87 243 244 86 
189 93 239 245 92 
190 122 202 245 239 
191 138 204 245 202 
192 91 92 245 204 
193 117 246 249 248 
194 124 247 249 246 
195 68 69 249 247 
196 70 248 249 69 
197 121 250 253 252 
198 139 251 253 250 
199 74 75 253 251 
200 76 252 253 75 
201 78 79 255 254 
202 80 208 255 79 
203 134 193 255 208 
204 131 254 255 193 
205 76 77 257 252 
206 78 254 257 77 
207 131 256 257 254 
208 121 252 257 256 
209 70 71 259 248 
210 72 258 259 71 
211 132 196 259 258 
212 117 248 259 196 
213 87 88 261 243 
214 89 206 261 88 
215 116 260 261 206 
216 114 243 261 260 
217 57 58 265 264 
218 59 262 265 58 
219 111 263 265 262 
220 130 264 265 263 
221 42 43 269 268 
222 44 266 269 43 
223 113 267 269 266 
224 129 268 269 267 
225 50 51 273 272 
226 6 270 273 51 
227 112 271 273 270 
228 127 272 273 271 
229 112 270 275 274 
230 6 52 275 270 
231 53 176 275 52 
232 110 274 275 176 
233 113 266 277 276 
234 44 45 277 266 
235 46 179 277 45 
236 108 276 277 179 
237 111 262 279 278 
238 59 60 279 262 
239 61 173 279 60 
240 128 278 279 173 
241 38 182 281 37 
242 109 280 281 182 
243 144 228 281 280 
244 5 37 281 228 
245 125 232 284 283 
246 107 282 284 232 
247 145 185 284 282 
248 98 283 284 185 
249 111 285 287 263 
250 141 286 287 285 
251 106 224 287 286 
252 130 263 287 224 
253 120 288 290 225 
254 142 289 290 288 
255 112 274 290 289 
256 110 225 290 274 
257 119 291 293 221 
258 143 292 293 291 
259 113 276 293 292 
260 108 221 293 276 
261 121 256 296 295 
262 131 192 296 256 
263 99 294 296 192 
264 135 295 296 294 
265 4 29 299 213 
266 28 297 299 29 
267 99 298 299 297 
268 140 213 299 298 
269 24 23 302 216 
270 3 300 302 23 
271 98 301 302 300 
272 136 216 302 301 
273 101 303 305 212 
274 114 304 305 303 
275 118 153 305 304 
276 31 212 305 153 
277 118 306 307 154 
278 138 201 307 306 
279 100 150 307 201 
280 33 154 307 150 
281 97 308 310 309 
282 1 36 310 308 
283 35 151 310 36 
284 100 309 310 151 
285 19 18 312 311 
286 17 160 312 18 
287 106 286 312 160 
288 141 311 312 286 
289 120 161 314 288 
290 17 16 314 161 
291 2 313 314 16 
292 142 288 314 313 
293 119 157 316 291 
294 14 13 316 157 
295 12 315 316 13 
296 143 291 316 315 
297 19 311 318 20 
298 141 317 318 311 
299 104 164 318 317 
300 21 20 318 164 
301 105 319 320 168 
302 143 315 320 319 
303 12 11 320 315 
304 10 168 320 11 
305 103 321 322 156 
306 142 313 322 321 
307 2 15 322 313 
308 14 156 322 15 
309 140 323 326 214 
310 115 324 326 323 
311 137 325 326 324 
312 101 214 326 325 
313 8 82 328 209 
314 83 327 328 82 
315 137 324 328 327 
316 115 209 328 324 
317 126 169 330 329 
318 10 9 330 169 
319 1 308 330 9 
320 97 329 330 308 
321 3 22 331 300 
322 21 166 331 22 
323 125 283 331 166 
324 98 300 331 283 
325 128 230 332 278 
326 104 317 332 230 
327 141 285 332 317 
328 111 278 332 285 
329 142 321 333 289 
330 103 220 333 321 
331 127 271 333 220 
332 112 289 333 271 
333 143 319 334 292 
334 105 235 334 319 
335 129 267 334 235 
336 113 292 334 267 
337 72 73 336 258 
338 74 251 336 73 
339 139 335 336 251 
340 132 258 336 335 
341 144 280 337 148 
342 109 236 337 280 
343 126 329 337 236 
344 97 148 337 329 
345 134 210 338 194 
346 115 323 338 210 
347 140 298 338 323 
348 99 194 338 298 
349 63 64 340 172 
350 65 339 340 64 
351 107 231 340 339 
352 128 172 340 231 
353 48 49 341 178 
354 50 272 341 49 
355 127 219 341 272 
356 108 178 341 219 
357 40 41 342 181 
358 42 268 342 41 
359 129 234 342 268 
360 109 181 342 234 
361 55 56 343 175 
362 57 264 343 56 
363 130 223 343 264 
364 110 175 343 223 
365 65 66 345 339 
366 7 344 345 66 
367 145 282 345 344 
368 107 339 345 282 
369 145 344 346 186 
370 7 67 346 344 
371 68 247 346 67 
372 124 186 346 247 
373 132 335 348 197 
374 139 347 348 335 
375 102 217 348 347 
376 136 197 348 217 
377 100 200 349 309 
378 122 238 349 200 
379 123 146 349 238 
380 97 309 349 146 
381 124 246 350 184 
382 117 198 350 246 
383 136 301 350 198 
384 98 184 350 301 
385 137 327 352 351 
386 83 84 352 327 
387 85 242 352 84 
388 133 351 352 242 
389 28 27 353 297 
390 26 190 353 27 
391 135 294 353 190 
392 99 297 353 294 
393 121 295 354 250 
394 135 189 354 295 
395 102 347 354 189 
396 139 250 354 347 
397 133 241 355 351 
398 114 303 355 241 
399 101 325 355 303 
400 137 351 355 325 
401 118 304 356 306 
402 114 260 356 304 
403 116 205 356 260 
404 138 306 356 205 
$EndElements
