$MeshFormat
4.1 0 8
$EndMeshFormat
$PhysicalNames
3
1 1 "inner"
1 2 "outer"
2 3 "domain"
$EndPhysicalNames
$Entities
9 8 1 0
1 0 0 0 0 
2 1 0 0 0 
3 0 1 0 0 
4 -1 0 0 0 
5 0 -1 0 0 
6 2 0 0 0 
7 0 2 0 0 
8 -2 0 0 0 
9 0 -2 0 0 
1 5.551115123125783e-17 0 0 1 1 0 1 1 2 2 -3 
2 -1 5.551115123125783e-17 0 0 1 0 1 1 2 3 -4 
3 -1 -1 0 -5.551115123125783e-17 0 0 1 1 2 4 -5 
4 0 -1 0 1 -5.551115123125783e-17 0 1 1 2 5 -2 
5 1.110223024625157e-16 0 0 2 2 0 1 2 2 6 -7 
6 -2 1.110223024625157e-16 0 0 2 0 1 2 2 7 -8 
7 -2 -2 0 -1.110223024625157e-16 0 0 1 2 2 8 -9 
8 0 -2 0 2 -1.110223024625157e-16 0 1 2 2 9 -6 
1 -2 -2 0 2 2 0 1 3 8 5 6 7 8 -4 -3 -2 -1 
$EndEntities
$Nodes
17 1312 1 1312
0 2 0 1
1
1 0 0
0 3 0 1
2
0 1 0
0 4 0 1
3
-1 0 0
0 5 0 1
4
0 -1 0
0 6 0 1
5
2 0 0
0 7 0 1
6
0 2 0
0 8 0 1
7
-2 0 0
0 9 0 1
8
0 -2 0
1 1 0 15
9
10
11
12
13
14
15
16
17
18
19
20
21
22
23
0.9807852803040616 0.1950903225146834 0
0.9238795320827141 0.3826834333997557 0
0.8314696113699828 0.5555702344152805 0
0.7071067795767629 0.7071067827963321 0
0.5555702316295839 0.8314696132313258 0
0.3826834312295727 0.9238795329816333 0
0.1950903214133833 0.9807852805231239 0
0.9951847266520299 0.09801714053431865 0
0.9569403355025747 0.2902846780114648 0
0.8819212636990394 0.4713967380407817 0
0.7730104521231007 0.6343932856741465 0
0.634393282686774 0.7730104545747741 0
0.4713967354832414 0.8819212650660732 0
0.2902846764422344 0.9569403359785955 0
0.09801714012755942 0.9951847266920922 0
1 2 0 15
24
25
26
27
28
29
30
31
32
33
34
35
36
37
38
-0.1950903225146834 0.9807852803040616 0
-0.3826834333997557 0.9238795320827141 0
-0.5555702344152805 0.8314696113699828 0
-0.7071067827963321 0.7071067795767629 0
-0.8314696132313258 0.5555702316295839 0
-0.9238795329816333 0.3826834312295727 0
-0.9807852805231239 0.1950903214133833 0
-0.09801714053431865 0.9951847266520299 0
-0.2902846780114648 0.9569403355025747 0
-0.4713967380407817 0.8819212636990394 0
-0.6343932856741465 0.7730104521231007 0
-0.7730104545747741 0.634393282686774 0
-0.8819212650660732 0.4713967354832414 0
-0.9569403359785955 0.2902846764422344 0
-0.9951847266920922 0.09801714012755942 0
1 3 0 15
39
40
41
42
43
44
45
46
47
48
49
50
51
52
53
-0.9807852803040616 -0.1950903225146834 0
-0.9238795320827141 -0.3826834333997557 0
-0.8314696113699828 -0.5555702344152805 0
-0.7071067795767629 -0.7071067827963321 0
-0.5555702316295839 -0.8314696132313258 0
-0.3826834312295727 -0.9238795329816333 0
-0.1950903214133833 -0.9807852805231239 0
-0.9951847266520299 -0.09801714053431865 0
-0.9569403355025747 -0.2902846780114648 0
-0.8819212636990394 -0.4713967380407817 0
-0.7730104521231007 -0.6343932856741465 0
-0.634393282686774 -0.7730104545747741 0
-0.4713967354832414 -0.8819212650660732 0
-0.2902846764422344 -0.9569403359785955 0
-0.09801714012755942 -0.9951847266920922 0
1 4 0 15
54
55
56
57
58
59
60
61
62
63
64
65
66
67
68
0.1950903225146834 -0.9807852803040616 0
0.3826834333997557 -0.9238795320827141 0
0.5555702344152805 -0.8314696113699828 0
0.7071067827963321 -0.7071067795767629 0
0.8314696132313258 -0.5555702316295839 0
0.9238795329816333 -0.3826834312295727 0
0.9807852805231239 -0.1950903214133833 0
0.09801714053431865 -0.9951847266520299 0
0.2902846780114648 -0.9569403355025747 0
0.4713967380407817 -0.8819212636990394 0
0.6343932856741465 -0.7730104521231007 0
0.7730104545747741 -0.634393282686774 0
0.8819212650660732 -0.4713967354832414 0
0.9569403359785955 -0.2902846764422344 0
0.9951847266920922 -0.09801714012755942 0
1 5 0 31
69
70
71
72
73
74
75
76
77
78
79
80
81
82
83
84
85
86
87
88
89
90
91
92
93
94
95
96
97
98
99
1.990369453300517 0.1960342811046107 0
1.961570560607652 0.3901806450317374 0
1.913880671004866 0.5805693560238636 0
1.847759064163578 0.7653668668039773 0
1.763842527380806 0.9427934761138778 0
1.662939222735937 1.11114046883659 0
1.546020904168394 1.268786571443102 0
1.41421355914669 1.4142135655995 0
1.268786565293916 1.5460209092149 0
1.111140463249119 1.662939226469366 0
0.9427934710442101 1.7638425300906 0
0.7653668624636114 1.847759065961417 0
0.5805693527365837 1.913880672002052 0
0.3901806428291373 1.961570561045776 0
0.1960342800604678 1.990369453403356 0
1.997590912398997 0.09813534888582694 0
1.978353019821299 0.2934609496405734 0
1.940062506073491 0.4859603610664635 0
1.883088129718856 0.673779708593202 0
1.807978585151948 0.8551101891756177 0
1.71545721840493 1.028205491048565 0
1.606415060793109 1.19139861190832 0
1.481902247815845 1.343117912887155 0
1.343117906481036 1.481902253622013 0
1.19139860603007 1.606415065152716 0
1.028205485726491 1.715457221594858 0
0.8551101844277551 1.80797858739752 0
0.6737797047526817 1.883088131093016 0
0.4859603582808149 1.940062506771259 0
0.29346094800071 1.97835302006455 0
0.09813534835812061 1.997590912424921 0
1 6 0 31
100
101
102
103
104
105
106
107
108
109
110
111
112
113
114
115
116
117
118
119
120
121
122
123
124
125
126
127
128
129
130
-0.1960342811046107 1.990369453300517 0
-0.3901806450317374 1.961570560607652 0
-0.5805693560238636 1.913880671004866 0
-0.7653668668039773 1.847759064163578 0
-0.9427934761138778 1.763842527380806 0
-1.11114046883659 1.662939222735937 0
-1.268786571443102 1.546020904168394 0
-1.4142135655995 1.41421355914669 0
-1.5460209092149 1.268786565293916 0
-1.662939226469366 1.111140463249119 0
-1.7638425300906 0.9427934710442101 0
-1.847759065961417 0.7653668624636114 0
-1.913880672002052 0.5805693527365837 0
-1.961570561045776 0.3901806428291373 0
-1.990369453403356 0.1960342800604678 0
-0.09813534888582694 1.997590912398997 0
-0.2934609496405734 1.978353019821299 0
-0.4859603610664635 1.940062506073491 0
-0.673779708593202 1.883088129718856 0
-0.8551101891756177 1.807978585151948 0
-1.028205491048565 1.71545721840493 0
-1.19139861190832 1.606415060793109 0
-1.343117912887155 1.481902247815845 0
-1.481902253622013 1.343117906481036 0
-1.606415065152716 1.19139860603007 0
-1.715457221594858 1.028205485726491 0
-1.80797858739752 0.8551101844277551 0
-1.883088131093016 0.6737797047526817 0
-1.940062506771259 0.4859603582808149 0
-1.97835302006455 0.29346094800071 0
-1.997590912424921 0.09813534835812061 0
1 7 0 31
131
132
133
134
135
136
137
138
139
140
141
142
143
144
145
146
147
148
149
150
151
152
153
154
155
156
157
158
159
160
161
-1.990369453300517 -0.1960342811046107 0
-1.961570560607652 -0.3901806450317374 0
-1.913880671004866 -0.5805693560238636 0
-1.847759064163578 -0.7653668668039773 0
-1.763842527380806 -0.9427934761138778 0
-1.662939222735937 -1.11114046883659 0
-1.546020904168394 -1.268786571443102 0
-1.41421355914669 -1.4142135655995 0
-1.268786565293916 -1.5460209092149 0
-1.111140463249119 -1.662939226469366 0
-0.9427934710442101 -1.7638425300906 0
-0.7653668624636114 -1.847759065961417 0
-0.5805693527365837 -1.913880672002052 0
-0.3901806428291373 -1.961570561045776 0
-0.1960342800604678 -1.990369453403356 0
-1.997590912398997 -0.09813534888582694 0
-1.978353019821299 -0.2934609496405734 0
-1.940062506073491 -0.4859603610664635 0
-1.883088129718856 -0.673779708593202 0
-1.807978585151948 -0.8551101891756177 0
-1.71545721840493 -1.028205491048565 0
-1.606415060793109 -1.19139861190832 0
-1.481902247815845 -1.343117912887155 0
-1.343117906481036 -1.481902253622013 0
-1.19139860603007 -1.606415065152716 0
-1.028205485726491 -1.715457221594858 0
-0.8551101844277551 -1.80797858739752 0
-0.6737797047526817 -1.883088131093016 0
-0.4859603582808149 -1.940062506771259 0
-0.29346094800071 -1.97835302006455 0
-0.09813534835812061 -1.997590912424921 0
1 8 0 31
162
163
164
165
166
167
168
169
170
171
172
173
174
175
176
177
178
179
180
181
182
183
184
185
186
187
188
189
190
191
192
0.1960342811046107 -1.990369453300517 0
0.3901806450317374 -1.961570560607652 0
0.5805693560238636 -1.913880671004866 0
0.7653668668039773 -1.847759064163578 0
0.9427934761138778 -1.763842527380806 0
1.11114046883659 -1.662939222735937 0
1.268786571443102 -1.546020904168394 0
1.4142135655995 -1.41421355914669 0
1.5460209092149 -1.268786565293916 0
1.662939226469366 -1.111140463249119 0
1.7638425300906 -0.9427934710442101 0
1.847759065961417 -0.7653668624636114 0
1.913880672002052 -0.5805693527365837 0
1.961570561045776 -0.3901806428291373 0
1.990369453403356 -0.1960342800604678 0
0.09813534888582694 -1.997590912398997 0
0.2934609496405734 -1.978353019821299 0
0.4859603610664635 -1.940062506073491 0
0.673779708593202 -1.883088129718856 0
0.8551101891756177 -1.807978585151948 0
1.028205491048565 -1.71545721840493 0
1.19139861190832 -1.606415060793109 0
1.343117912887155 -1.481902247815845 0
1.481902253622013 -1.343117906481036 0
1.606415065152716 -1.19139860603007 0
1.715457221594858 -1.028205485726491 0
1.80797858739752 -0.8551101844277551 0
1.883088131093016 -0.6737797047526817 0
1.940062506771259 -0.4859603582808149 0
1.97835302006455 -0.29346094800071 0
1.997590912424921 -0.09813534835812061 0
2 1 0 1120
193
194
195
196
197
198
199
200
201
202
203
204
205
206
207
208
209
210
211
212
213
214
215
216
217
218
219
220
221
222
223
224
225
226
227
228
229
230
231
232
233
234
235
236
237
238
239
240
241
242
243
244
245
246
247
248
249
250
251
252
253
254
255
256
257
258
259
260
261
262
263
264
265
266
267
268
269
270
271
272
273
274
275
276
277
278
279
280
281
282
283
284
285
286
287
288
289
290
291
292
293
294
295
296
297
298
299
300
301
302
303
304
305
306
307
308
309
310
311
312
313
314
315
316
317
318
319
320
321
322
323
324
325
326
327
328
329
330
331
332
333
334
335
336
337
338
339
340
341
342
343
344
345
346
347
348
349
350
351
352
353
354
355
356
357
358
359
360
361
362
363
364
365
366
367
368
369
370
371
372
373
374
375
376
377
378
379
380
381
382
383
384
385
386
387
388
389
390
391
392
393
394
395
396
397
398
399
400
401
402
403
404
405
406
407
408
409
410
411
412
413
414
415
416
417
418
419
420
421
422
423
424
425
426
427
428
429
430
431
432
433
434
435
436
437
438
439
440
441
442
443
444
445
446
447
448
449
450
451
452
453
454
455
456
457
458
459
460
461
462
463
464
465
466
467
468
469
470
471
472
473
474
475
476
477
478
479
480
481
482
483
484
485
486
487
488
489
490
491
492
493
494
495
496
497
498
499
500
501
502
503
504
505
506
507
508
509
510
511
512
513
514
515
516
517
518
519
520
521
522
523
524
525
526
527
528
529
530
531
532
533
534
535
536
537
538
539
540
541
542
543
544
545
546
547
548
549
550
551
552
553
554
555
556
557
558
559
560
561
562
563
564
565
566
567
568
569
570
571
572
573
574
575
576
577
578
579
580
581
582
583
584
585
586
587
588
589
590
591
592
593
594
595
596
597
598
599
600
601
602
603
604
605
606
607
608
609
610
611
612
613
614
615
616
617
618
619
620
621
622
623
624
625
626
627
628
629
630
631
632
633
634
635
636
637
638
639
640
641
642
643
644
645
646
647
648
649
650
651
652
653
654
655
656
657
658
659
660
661
662
663
664
665
666
667
668
669
670
671
672
673
674
675
676
677
678
679
680
681
682
683
684
685
686
687
688
689
690
691
692
693
694
695
696
697
698
699
700
701
702
703
704
705
706
707
708
709
710
711
712
713
714
715
716
717
718
719
720
721
722
723
724
725
726
727
728
729
730
731
732
733
734
735
736
737
738
739
740
741
742
743
744
745
746
747
748
749
750
751
752
753
754
755
756
757
758
759
760
761
762
763
764
765
766
767
768
769
770
771
772
773
774
775
776
777
778
779
780
781
782
783
784
785
786
787
788
789
790
791
792
793
794
795
796
797
798
799
800
801
802
803
804
805
806
807
808
809
810
811
812
813
814
815
816
817
818
819
820
821
822
823
824
825
826
827
828
829
830
831
832
833
834
835
836
837
838
839
840
841
842
843
844
845
846
847
848
849
850
851
852
853
854
855
856
857
858
859
860
861
862
863
864
865
866
867
868
869
870
871
872
873
874
875
876
877
878
879
880
881
882
883
884
885
886
887
888
889
890
891
892
893
894
895
896
897
898
899
900
901
902
903
904
905
906
907
908
909
910
911
912
913
914
915
916
917
918
919
920
921
922
923
924
925
926
927
928
929
930
931
932
933
934
935
936
937
938
939
940
941
942
943
944
945
946
947
948
949
950
951
952
953
954
955
956
957
958
959
960
961
962
963
964
965
966
967
968
969
970
971
972
973
974
975
976
977
978
979
980
981
982
983
984
985
986
987
988
989
990
991
992
993
994
995
996
997
998
999
1000
1001
1002
1003
1004
1005
1006
1007
1008
1009
1010
1011
1012
1013
1014
1015
1016
1017
1018
1019
1020
1021
1022
1023
1024
1025
1026
1027
1028
1029
1030
1031
1032
1033
1034
1035
1036
1037
1038
1039
1040
1041
1042
1043
1044
1045
1046
1047
1048
1049
1050
1051
1052
1053
1054
1055
1056
1057
1058
1059
1060
1061
1062
1063
1064
1065
1066
1067
1068
1069
1070
1071
1072
1073
1074
1075
1076
1077
1078
1079
1080
1081
1082
1083
1084
1085
1086
1087
1088
1089
1090
1091
1092
1093
1094
1095
1096
1097
1098
1099
1100
1101
1102
1103
1104
1105
1106
1107
1108
1109
1110
1111
1112
1113
1114
1115
1116
1117
1118
1119
1120
1121
1122
1123
1124
1125
1126
1127
1128
1129
1130
1131
1132
1133
1134
1135
1136
1137
1138
1139
1140
1141
1142
1143
1144
1145
1146
1147
1148
1149
1150
1151
1152
1153
1154
1155
1156
1157
1158
1159
1160
1161
1162
1163
1164
1165
1166
1167
1168
1169
1170
1171
1172
1173
1174
1175
1176
1177
1178
1179
1180
1181
1182
1183
1184
1185
1186
1187
1188
1189
1190
1191
1192
1193
1194
1195
1196
1197
1198
1199
1200
1201
1202
1203
1204
1205
1206
1207
1208
1209
1210
1211
1212
1213
1214
1215
1216
1217
1218
1219
1220
1221
1222
1223
1224
1225
1226
1227
1228
1229
1230
1231
1232
1233
1234
1235
1236
1237
1238
1239
1240
1241
1242
1243
1244
1245
1246
1247
1248
1249
1250
1251
1252
1253
1254
1255
1256
1257
1258
1259
1260
1261
1262
1263
1264
1265
1266
1267
1268
1269
1270
1271
1272
1273
1274
1275
1276
1277
1278
1279
1280
1281
1282
1283
1284
1285
1286
1287
1288
1289
1290
1291
1292
1293
1294
1295
1296
1297
1298
1299
1300
1301
1302
1303
1304
1305
1306
1307
1308
1309
1310
1311
1312
0.3278067316626684 1.094789678204034 0
-1.094789678204034 0.3278067316626684 0
-0.3278067316626684 -1.094789678204034 0
1.094789678204034 -0.3278067316626684 0
0.7326523009415598 0.9009565785242117 0
-0.9009565785242117 0.7326523009415598 0
-0.7326523009415598 -0.9009565785242117 0
0.9009565785242117 -0.7326523009415598 0
1.173401020297785 0.09621729731938884 0
-0.09621729731938884 1.173401020297785 0
-1.173401020297785 -0.09621729731938884 0
0.09621729731938884 -1.173401020297785 0
1.019840188799376 0.5530212786782257 0
-0.5530212786782257 1.019840188799376 0
-1.019840188799376 -0.5530212786782257 0
0.5530212786782257 -1.019840188799376 0
0.2681668890623011 1.807834325014661 0
-1.807834325014661 0.2681668890623011 0
-0.2681668890623011 -1.807834325014661 0
1.807834325014661 -0.2681668890623011 0
0.8018249138134391 1.663811840395921 0
-1.663811840395921 0.8018249138134391 0
-0.8018249138134391 -1.663811840395921 0
1.663811840395921 -0.8018249138134391 0
1.350356262536361 1.239850970874114 0
-1.239850970874114 1.350356262536361 0
-1.350356262536361 -1.239850970874114 0
1.239850970874114 -1.350356262536361 0
1.787194351827762 0.4560230695787502 0
-0.4560230695787502 1.787194351827762 0
-1.787194351827762 -0.4560230695787502 0
0.4560230695787502 -1.787194351827762 0
1.567598102719453 0.9395821473327689 0
-0.9395821473327689 1.567598102719453 0
-1.567598102719453 -0.9395821473327689 0
0.9395821473327689 -1.567598102719453 0
1.815956895456416 0.09583702304649544 0
-0.09583702304649544 1.815956895456416 0
-1.815956895456416 -0.09583702304649544 0
0.09583702304649544 -1.815956895456416 0
1.101802324822094 1.462371184067943 0
-1.462371184067943 1.101802324822094 0
-1.101802324822094 -1.462371184067943 0
1.462371184067943 -1.101802324822094 0
0.9168054613073244 0.7451676380385089 0
0.9258456315274081 0.9645213771006157 0
0.764051976705746 1.093648188282844 0
1.067261638747056 0.8694727514502616 0
0.9513101372056361 1.159065483283677 0
0.7973622965450021 1.28212380881981 0
0.6193095815661305 1.218396795469673 0
0.643809323885866 1.403106442018058 0
0.4674045520060974 1.350398012123744 0
0.4934782027664567 1.52683656102808 0
0.3130556865249169 1.469928571178677 0
-0.7451676380385089 0.9168054613073244 0
-0.9645213771006157 0.9258456315274081 0
-1.093648188282844 0.764051976705746 0
-0.8694727514502616 1.067261638747056 0
-1.159065483283677 0.9513101372056361 0
-1.28212380881981 0.7973622965450021 0
-1.218396795469673 0.6193095815661305 0
-1.403106442018058 0.643809323885866 0
-1.350398012123744 0.4674045520060974 0
-1.52683656102808 0.4934782027664567 0
-1.469928571178677 0.3130556865249169 0
-0.9168054613073244 -0.7451676380385089 0
-0.9258456315274081 -0.9645213771006157 0
-0.764051976705746 -1.093648188282844 0
-1.067261638747056 -0.8694727514502616 0
-0.9513101372056361 -1.159065483283677 0
-0.7973622965450021 -1.28212380881981 0
-0.6193095815661305 -1.218396795469673 0
-0.643809323885866 -1.403106442018058 0
-0.4674045520060974 -1.350398012123744 0
-0.4934782027664567 -1.52683656102808 0
-0.3130556865249169 -1.469928571178677 0
0.7451676380385089 -0.9168054613073244 0
0.9645213771006157 -0.9258456315274081 0
1.093648188282844 -0.764051976705746 0
0.8694727514502616 -1.067261638747056 0
1.159065483283677 -0.9513101372056361 0
1.28212380881981 -0.7973622965450021 0
1.218396795469673 -0.6193095815661305 0
1.403106442018058 -0.643809323885866 0
1.350398012123744 -0.4674045520060974 0
1.52683656102808 -0.4934782027664567 0
1.469928571178677 -0.3130556865249169 0
1.112945577325257 0.3833046670144594 0
1.22336593441103 0.5427622523207268 0
1.31496340815538 0.3798504924998092 0
1.419377990000217 0.5363674444101708 0
1.328643945006225 0.7059188984483515 0
1.50311353214973 0.3619523292093055 0
1.374606116035475 0.1869547128974046 0
-0.3833046670144594 1.112945577325257 0
-0.5427622523207268 1.22336593441103 0
-0.3798504924998092 1.31496340815538 0
-0.5363674444101708 1.419377990000217 0
-0.7059188984483515 1.328643945006225 0
-0.3619523292093055 1.50311353214973 0
-0.1869547128974046 1.374606116035475 0
-1.112945577325257 -0.3833046670144594 0
-1.22336593441103 -0.5427622523207268 0
-1.31496340815538 -0.3798504924998092 0
-1.419377990000217 -0.5363674444101708 0
-1.328643945006225 -0.7059188984483515 0
-1.50311353214973 -0.3619523292093055 0
-1.374606116035475 -0.1869547128974046 0
0.3833046670144594 -1.112945577325257 0
0.5427622523207268 -1.22336593441103 0
0.3798504924998092 -1.31496340815538 0
0.5363674444101708 -1.419377990000217 0
0.7059188984483515 -1.328643945006225 0
0.3619523292093055 -1.50311353214973 0
0.1869547128974046 -1.374606116035475 0
1.152736793063917 -0.1140320693477787 0
0.1140320693477787 1.152736793063917 0
-1.152736793063917 0.1140320693477787 0
-0.1140320693477787 -1.152736793063917 0
1.528478938030762 0.7065181990279579 0
-0.7065181990279579 1.528478938030762 0
-1.528478938030762 -0.7065181990279579 0
0.7065181990279579 -1.528478938030762 0
1.620658453057538 0.1875221752008961 0
1.496243352848415 0.01769092796767887 0
-0.1875221752008961 1.620658453057538 0
-0.01769092796767887 1.496243352848415 0
-1.620658453057538 -0.1875221752008961 0
-1.496243352848415 -0.01769092796767887 0
0.1875221752008961 -1.620658453057538 0
0.01769092796767887 -1.496243352848415 0
0.5502704238787985 1.03627739316914 0
-1.03627739316914 0.5502704238787985 0
-0.5502704238787985 -1.03627739316914 0
1.03627739316914 -0.5502704238787985 0
1.101473198186891 1.036976300154788 0
1.253741603746784 0.9078993586219685 0
1.140299299479639 1.238862806916005 0
-1.036976300154788 1.101473198186891 0
-0.9078993586219685 1.253741603746784 0
-1.238862806916005 1.140299299479639 0
-1.101473198186891 -1.036976300154788 0
-1.253741603746784 -0.9078993586219685 0
-1.140299299479639 -1.238862806916005 0
1.036976300154788 -1.101473198186891 0
0.9078993586219685 -1.253741603746784 0
1.238862806916005 -1.140299299479639 0
1.311760836120912 1.04418328414161e-10 0
-1.04418328414161e-10 1.311760836120912 0
-1.311760836120912 -1.04418328414161e-10 0
1.04418328414161e-10 -1.311760836120912 0
0.2600355174770802 1.284785282768538 0
-1.284785282768538 0.2600355174770802 0
-0.2600355174770802 -1.284785282768538 0
1.284785282768538 -0.2600355174770802 0
1.608788647551019 0.5034568650431156 0
-0.5034568650431156 1.608788647551019 0
-1.608788647551019 -0.5034568650431156 0
0.5034568650431156 -1.608788647551019 0
0.8031878364780773 1.474119422382054 0
-1.474119422382054 0.8031878364780773 0
-0.8031878364780773 -1.474119422382054 0
1.474119422382054 -0.8031878364780773 0
0.3589565507043097 1.651564142954018 0
0.1612713528383314 1.604189417588438 0
0.5285633890990709 1.72708418364044 0
0.0830255158498959 1.798108294850731 0
-1.651564142954018 0.3589565507043097 0
-1.604189417588438 0.1612713528383314 0
-1.72708418364044 0.5285633890990709 0
-1.798108294850731 0.0830255158498959 0
-0.3589565507043097 -1.651564142954018 0
-0.1612713528383314 -1.604189417588438 0
-0.5285633890990709 -1.72708418364044 0
-0.0830255158498959 -1.798108294850731 0
1.651564142954018 -0.3589565507043097 0
1.604189417588438 -0.1612713528383314 0
1.72708418364044 -0.5285633890990709 0
1.798108294850731 -0.0830255158498959 0
1.472480308309737 1.10271891431759 0
-1.10271891431759 1.472480308309737 0
-1.472480308309737 -1.10271891431759 0
1.10271891431759 -1.472480308309737 0
1.806632418062049 0.276521742221325 0
-0.276521742221325 1.806632418062049 0
-1.806632418062049 -0.276521742221325 0
0.276521742221325 -1.806632418062049 0
1.433381492100996 -0.1433343257536463 0
0.1433343257536463 1.433381492100996 0
-1.433381492100996 0.1433343257536463 0
-0.1433343257536463 -1.433381492100996 0
0.9643156021435884 1.353155625089638 0
-1.353155625089638 0.9643156021435884 0
-0.9643156021435884 -1.353155625089638 0
1.353155625089638 -0.9643156021435884 0
1.25509160225574 1.380263887334493 0
-1.380263887334493 1.25509160225574 0
-1.25509160225574 -1.380263887334493 0
1.380263887334493 -1.25509160225574 0
1.68667671890377 0.7949067455813676 0
-0.7949067455813676 1.68667671890377 0
-1.68667671890377 -0.7949067455813676 0
0.7949067455813676 -1.68667671890377 0
0.953979079664109 1.571206818694658 0
-1.571206818694658 0.953979079664109 0
-0.953979079664109 -1.571206818694658 0
1.571206818694658 -0.953979079664109 0
1.131219442283814 0.6940688300084121 0
1.412318665221227 0.8508573776225463 0
-0.6940688300084121 1.131219442283814 0
-0.8508573776225463 1.412318665221227 0
-1.131219442283814 -0.6940688300084121 0
-1.412318665221227 -0.8508573776225463 0
0.6940688300084121 -1.131219442283814 0
0.8508573776225463 -1.412318665221227 0
1.728796398580293 0.6344735170098386 0
-0.6344735170098386 1.728796398580293 0
-1.728796398580293 -0.6344735170098386 0
0.6344735170098386 -1.728796398580293 0
1.283580234810388 1.086779439261025 0
-1.086779439261025 1.283580234810388 0
-1.283580234810388 -1.086779439261025 0
1.086779439261025 -1.283580234810388 0
1.665240989674977 0.01947384435010014 0
-0.01947384435010014 1.665240989674977 0
-1.665240989674977 -0.01947384435010014 0
0.01947384435010014 -1.665240989674977 0
0.6568713442924823 1.589410511314873 0
-1.589410511314873 0.6568713442924823 0
-0.6568713442924823 -1.589410511314873 0
1.589410511314873 -0.6568713442924823 0
1.664925284413274 0.3503632428549021 0
-0.3503632428549021 1.664925284413274 0
-1.664925284413274 -0.3503632428549021 0
0.3503632428549021 -1.664925284413274 0
1.191340280423592 0.2482834984491491 0
-0.2482834984491491 1.191340280423592 0
-1.191340280423592 -0.2482834984491491 0
0.2482834984491491 -1.191340280423592 0
0.4520663190604902 1.195178556102235 0
-1.195178556102235 0.4520663190604902 0
-0.4520663190604902 -1.195178556102235 0
1.195178556102235 -0.4520663190604902 0
0.4138761369118272 1.817477860841057 0
-1.817477860841057 0.4138761369118272 0
-0.4138761369118272 -1.817477860841057 0
1.817477860841057 -0.4138761369118272 0
1.388529077112609 0.9882455305816467 0
-0.9882455305816467 1.388529077112609 0
-1.388529077112609 -0.9882455305816467 0
0.9882455305816467 -1.388529077112609 0
0.6666391724810374 1.748389254662941 0
-1.748389254662941 0.6666391724810374 0
-0.6666391724810374 -1.748389254662941 0
1.748389254662941 -0.6666391724810374 0
0.9683228250533504 0.6490944583583673 0
1.075529815541595 0.623545054343319 0
1.024012451795569 0.7196182340234605 0
-0.6490944583583673 0.9683228250533504 0
-0.623545054343319 1.075529815541595 0
-0.7196182340234605 1.024012451795569 0
-0.9683228250533504 -0.6490944583583673 0
-1.075529815541595 -0.623545054343319 0
-1.024012451795569 -0.7196182340234605 0
0.6490944583583673 -0.9683228250533504 0
0.623545054343319 -1.075529815541595 0
0.7196182340234605 -1.024012451795569 0
1.899054147425365 -0.04151275792494795 0
1.894238874127044 -0.1395298979551818 0
0.04151275792494795 1.899054147425365 0
0.1395298979551818 1.894238874127044 0
-1.899054147425365 0.04151275792494795 0
-1.894238874127044 0.1395298979551818 0
-0.04151275792494795 -1.899054147425365 0
-0.1395298979551818 -1.894238874127044 0
0.9256549000846797 0.5542957565467531 0
0.8741375363386537 0.6503689362268947 0
-0.5542957565467531 0.9256549000846797 0
-0.6503689362268947 0.8741375363386537 0
-0.9256549000846797 -0.5542957565467531 0
-0.8741375363386537 -0.6503689362268947 0
0.5542957565467531 -0.9256549000846797 0
0.6503689362268947 -0.8741375363386537 0
1.291192774376504 0.8069091285351599 0
1.192480523015299 0.8009840943151902 0
1.229931693645019 0.6999938642283818 0
-0.8069091285351599 1.291192774376504 0
-0.8009840943151902 1.192480523015299 0
-0.6999938642283818 1.229931693645019 0
-1.291192774376504 -0.8069091285351599 0
-1.192480523015299 -0.8009840943151902 0
-1.229931693645019 -0.6999938642283818 0
0.8069091285351599 -1.291192774376504 0
0.8009840943151902 -1.192480523015299 0
0.6999938642283818 -1.229931693645019 0
1.27400356816663 0.1415860051083967 0
1.242580928209349 0.04810864871190359 0
1.343183476078194 0.09347735650091145 0
-0.1415860051083967 1.27400356816663 0
-0.04810864871190359 1.242580928209349 0
-0.09347735650091145 1.343183476078194 0
-1.27400356816663 -0.1415860051083967 0
-1.242580928209349 -0.04810864871190359 0
-1.343183476078194 -0.09347735650091145 0
0.1415860051083967 -1.27400356816663 0
0.04810864871190359 -1.242580928209349 0
0.09347735650091145 -1.343183476078194 0
1.282973198229534 0.2176191056732768 0
1.182370650360689 0.172250397884269 0
-0.2176191056732768 1.282973198229534 0
-0.172250397884269 1.182370650360689 0
-1.282973198229534 -0.2176191056732768 0
-1.182370650360689 -0.172250397884269 0
0.2176191056732768 -1.282973198229534 0
0.172250397884269 -1.182370650360689 0
1.16050162124692 0.8886860550361151 0
1.099240540515435 0.7817707907293369 0
-0.8886860550361151 1.16050162124692 0
-0.7817707907293369 1.099240540515435 0
-1.16050162124692 -0.8886860550361151 0
-1.099240540515435 -0.7817707907293369 0
0.8886860550361151 -1.16050162124692 0
0.7817707907293369 -1.099240540515435 0
1.718307674256977 0.1416795991236958 0
1.811294656759233 0.1861793826339102 0
1.713645435559793 0.2320219587111106 0
-0.1416795991236958 1.718307674256977 0
-0.1861793826339102 1.811294656759233 0
-0.2320219587111106 1.713645435559793 0
-1.718307674256977 -0.1416795991236958 0
-1.811294656759233 -0.1861793826339102 0
-1.713645435559793 -0.2320219587111106 0
0.1416795991236958 -1.718307674256977 0
0.1861793826339102 -1.811294656759233 0
0.2320219587111106 -1.713645435559793 0
1.232248814592414 -0.05701603462168021 0
1.218761037916227 -0.1870337934124295 0
1.298273059444725 -0.1300177586863309 0
0.05701603462168021 1.232248814592414 0
0.1870337934124295 1.218761037916227 0
0.1300177586863309 1.298273059444725 0
-1.232248814592414 0.05701603462168021 0
-1.218761037916227 0.1870337934124295 0
-1.298273059444725 0.1300177586863309 0
-0.05701603462168021 -1.232248814592414 0
-0.1870337934124295 -1.218761037916227 0
-0.1300177586863309 -1.298273059444725 0
1.359083387434767 -0.2016849216153632 0
1.372571164110954 -0.07166716282461397 0
0.2016849216153632 1.359083387434767 0
0.07166716282461397 1.372571164110954 0
-1.359083387434767 0.2016849216153632 0
-1.372571164110954 0.07166716282461397 0
-0.2016849216153632 -1.359083387434767 0
-0.07166716282461397 -1.372571164110954 0
0.2321005845613844 1.899101889209009 0
0.1755962024560985 1.802971309932696 0
-1.899101889209009 0.2321005845613844 0
-1.802971309932696 0.1755962024560985 0
-0.2321005845613844 -1.899101889209009 0
-0.1755962024560985 -1.802971309932696 0
1.899101889209009 -0.2321005845613844 0
1.802971309932696 -0.1755962024560985 0
1.907978447728208 0.04791851152324772 0
1.807032595153574 0.006405753598299771 0
-0.04791851152324772 1.907978447728208 0
-0.006405753598299771 1.807032595153574 0
-1.907978447728208 -0.04791851152324772 0
-1.807032595153574 -0.006405753598299771 0
0.04791851152324772 -1.907978447728208 0
0.006405753598299771 -1.807032595153574 0
0.9920335500271901 0.8073201947443853 0
-0.8073201947443853 0.9920335500271901 0
-0.9920335500271901 -0.8073201947443853 0
0.8073201947443853 -0.9920335500271901 0
0.7483521388236529 0.9973023834035281 0
0.6571612002922722 1.064962790725992 0
0.6414613624101791 0.9686169858466759 0
-0.9973023834035281 0.7483521388236529 0
-1.064962790725992 0.6571612002922722 0
-0.9686169858466759 0.6414613624101791 0
-0.7483521388236529 -0.9973023834035281 0
-0.6571612002922722 -1.064962790725992 0
-0.6414613624101791 -0.9686169858466759 0
0.9973023834035281 -0.7483521388236529 0
1.064962790725992 -0.6571612002922722 0
0.9686169858466759 -0.6414613624101791 0
0.8837517193108329 1.413637523735846 0
0.9591473409038487 1.462181221892148 0
0.8785834580710932 1.522663120538356 0
-1.413637523735846 0.8837517193108329 0
-1.462181221892148 0.9591473409038487 0
-1.522663120538356 0.8785834580710932 0
-0.8837517193108329 -1.413637523735846 0
-0.9591473409038487 -1.462181221892148 0
-0.8785834580710932 -1.522663120538356 0
1.413637523735846 -0.8837517193108329 0
1.462181221892148 -0.9591473409038487 0
1.522663120538356 -0.8785834580710932 0
1.033058963482841 1.407763404578791 0
1.027890702243101 1.516789001381301 0
-1.407763404578791 1.033058963482841 0
-1.516789001381301 1.027890702243101 0
-1.033058963482841 -1.407763404578791 0
-1.027890702243101 -1.516789001381301 0
1.407763404578791 -1.033058963482841 0
1.516789001381301 -1.027890702243101 0
1.046865428814659 0.2891974947645715 0
1.086062780363827 0.2216869104819163 0
1.152142928874424 0.3157940827318043 0
-0.2891974947645715 1.046865428814659 0
-0.2216869104819163 1.086062780363827 0
-0.3157940827318043 1.152142928874424 0
-1.046865428814659 -0.2891974947645715 0
-1.086062780363827 -0.2216869104819163 0
-1.152142928874424 -0.3157940827318043 0
0.2891974947645715 -1.046865428814659 0
0.2216869104819163 -1.086062780363827 0
0.3157940827318043 -1.152142928874424 0
0.6916807791359383 1.156022491876259 0
0.5847900027224645 1.127337094319407 0
-1.156022491876259 0.6916807791359383 0
-1.127337094319407 0.5847900027224645 0
-0.6916807791359383 -1.156022491876259 0
-0.5847900027224645 -1.127337094319407 0
1.156022491876259 -0.6916807791359383 0
1.127337094319407 -0.5847900027224645 0
1.121050812150867 1.350616995491974 0
1.052307450811614 1.296009216002822 0
-1.350616995491974 1.121050812150867 0
-1.296009216002822 1.052307450811614 0
-1.121050812150867 -1.350616995491974 0
-1.052307450811614 -1.296009216002822 0
1.350616995491974 -1.121050812150867 0
1.296009216002822 -1.052307450811614 0
1.642949721366257 0.1034980097754981 0
1.740598942565697 0.05765543369829779 0
-0.1034980097754981 1.642949721366257 0
-0.05765543369829779 1.740598942565697 0
-1.642949721366257 -0.1034980097754981 0
-1.740598942565697 -0.05765543369829779 0
0.1034980097754981 -1.642949721366257 0
0.05765543369829779 -1.740598942565697 0
0.3135617198833054 1.72969923398434 0
0.2147191209503162 1.70601187130155 0
0.2601139517713205 1.627876780271228 0
-1.72969923398434 0.3135617198833054 0
-1.70601187130155 0.2147191209503162 0
-1.627876780271228 0.2601139517713205 0
-0.3135617198833054 -1.72969923398434 0
-0.2147191209503162 -1.70601187130155 0
-0.2601139517713205 -1.627876780271228 0
1.72969923398434 -0.3135617198833054 0
1.70601187130155 -0.2147191209503162 0
1.627876780271228 -0.2601139517713205 0
0.1221484343441136 1.701148856219585 0
-1.701148856219585 0.1221484343441136 0
-0.1221484343441136 -1.701148856219585 0
1.701148856219585 -0.1221484343441136 0
1.19769545086769 1.309563347125249 0
1.178446963538917 1.421317535701218 0
-1.309563347125249 1.19769545086769 0
-1.421317535701218 1.178446963538917 0
-1.19769545086769 -1.309563347125249 0
-1.178446963538917 -1.421317535701218 0
1.309563347125249 -1.19769545086769 0
1.421317535701218 -1.178446963538917 0
1.548038520375108 0.8230501731803634 0
1.607577828467266 0.7507124723046628 0
1.627137410811612 0.8672444464570683 0
-0.8230501731803634 1.548038520375108 0
-0.7507124723046628 1.607577828467266 0
-0.8672444464570683 1.627137410811612 0
-1.548038520375108 -0.8230501731803634 0
-1.607577828467266 -0.7507124723046628 0
-1.627137410811612 -0.8672444464570683 0
0.8230501731803634 -1.548038520375108 0
0.7507124723046628 -1.607577828467266 0
0.8672444464570683 -1.627137410811612 0
1.077093150300924 0.1456538099170361 0
-0.1456538099170361 1.077093150300924 0
-1.077093150300924 -0.1456538099170361 0
0.1456538099170361 -1.077093150300924 0
0.3637200347415888 1.317591647446141 0
0.3560509182687852 1.239981919435386 0
0.4597354355332938 1.272788284112989 0
-1.317591647446141 0.3637200347415888 0
-1.239981919435386 0.3560509182687852 0
-1.272788284112989 0.4597354355332938 0
-0.3637200347415888 -1.317591647446141 0
-0.3560509182687852 -1.239981919435386 0
-0.4597354355332938 -1.272788284112989 0
1.317591647446141 -0.3637200347415888 0
1.239981919435386 -0.3560509182687852 0
1.272788284112989 -0.4597354355332938 0
1.48995838397034 0.8952197624776577 0
1.470398801625995 0.7786877883252521 0
-0.8952197624776577 1.48995838397034 0
-0.7786877883252521 1.470398801625995 0
-1.48995838397034 -0.8952197624776577 0
-1.470398801625995 -0.7786877883252521 0
0.8952197624776577 -1.48995838397034 0
0.7786877883252521 -1.470398801625995 0
1.56863379279089 0.6049875320355367 0
1.668792523065656 0.568965191026477 0
1.628637668305527 0.6704958580188982 0
-0.6049875320355367 1.56863379279089 0
-0.568965191026477 1.668792523065656 0
-0.6704958580188982 1.628637668305527 0
-1.56863379279089 -0.6049875320355367 0
-1.668792523065656 -0.568965191026477 0
-1.628637668305527 -0.6704958580188982 0
0.6049875320355367 -1.56863379279089 0
0.568965191026477 -1.668792523065656 0
0.6704958580188982 -1.628637668305527 0
1.018412554703986 0.3829940502071076 0
-0.3829940502071076 1.018412554703986 0
-1.018412554703986 -0.3829940502071076 0
0.3829940502071076 -1.018412554703986 0
0.8119561204420437 0.7261372104174205 0
-0.7261372104174205 0.8119561204420437 0
-0.8119561204420437 -0.7261372104174205 0
0.7261372104174205 -0.8119561204420437 0
0.6441112662855718 0.8662130958777687 0
0.5529203277541912 0.933873503200233 0
-0.8662130958777687 0.6441112662855718 0
-0.933873503200233 0.5529203277541912 0
-0.6441112662855718 -0.8662130958777687 0
-0.5529203277541912 -0.933873503200233 0
0.8662130958777687 -0.6441112662855718 0
0.933873503200233 -0.5529203277541912 0
0.3552450814461205 1.009334605592834 0
0.4664769275541856 0.9800784630753867 0
0.4390385777707335 1.065533535686587 0
-1.009334605592834 0.3552450814461205 0
-0.9800784630753867 0.4664769275541856 0
-1.065533535686587 0.4390385777707335 0
-0.3552450814461205 -1.009334605592834 0
-0.4664769275541856 -0.9800784630753867 0
-0.4390385777707335 -1.065533535686587 0
1.009334605592834 -0.3552450814461205 0
0.9800784630753867 -0.4664769275541856 0
1.065533535686587 -0.4390385777707335 0
1.086700510148893 0.04810864865969442 0
1.076368396531958 -0.05701603467388937 0
1.163068906680851 -0.00890738601419494 0
-0.04810864865969442 1.086700510148893 0
0.05701603467388937 1.076368396531958 0
0.00890738601419494 1.163068906680851 0
-1.086700510148893 -0.04810864865969442 0
-1.076368396531958 0.05701603467388937 0
-1.163068906680851 0.00890738601419494 0
0.04810864865969442 -1.086700510148893 0
-0.05701603467388937 -1.076368396531958 0
-0.00890738601419494 -1.163068906680851 0
0.2614485265380259 1.037787479363579 0
0.2209194005052236 1.123763235633975 0
0.154561195380581 1.06676103679352 0
-1.037787479363579 0.2614485265380259 0
-1.123763235633975 0.2209194005052236 0
-1.06676103679352 0.154561195380581 0
-0.2614485265380259 -1.037787479363579 0
-0.2209194005052236 -1.123763235633975 0
-0.154561195380581 -1.06676103679352 0
1.037787479363579 -0.2614485265380259 0
1.123763235633975 -0.2209194005052236 0
1.06676103679352 -0.154561195380581 0
1.707736558742031 0.7146901312956031 0
-0.7146901312956031 1.707736558742031 0
-1.707736558742031 -0.7146901312956031 0
0.7146901312956031 -1.707736558742031 0
0.2939211245698743 1.189787480486286 0
-1.189787480486286 0.2939211245698743 0
-0.2939211245698743 -1.189787480486286 0
1.189787480486286 -0.2939211245698743 0
1.735778851237662 0.3134424925381135 0
1.642791868735406 0.2689427090278991 0
-0.3134424925381135 1.735778851237662 0
-0.2689427090278991 1.642791868735406 0
-1.735778851237662 -0.3134424925381135 0
-1.642791868735406 -0.2689427090278991 0
0.3134424925381135 -1.735778851237662 0
0.2689427090278991 -1.642791868735406 0
0.3899365253615793 1.144984117153135 0
-1.144984117153135 0.3899365253615793 0
-0.3899365253615793 -1.144984117153135 0
1.144984117153135 -0.3899365253615793 0
1.435424734441945 0.1023228204325417 0
1.404002094484663 0.008845464036048599 0
-0.1023228204325417 1.435424734441945 0
-0.008845464036048599 1.404002094484663 0
-1.435424734441945 -0.1023228204325417 0
-1.404002094484663 -0.008845464036048599 0
0.1023228204325417 -1.435424734441945 0
0.008845464036048599 -1.404002094484663 0
0.3902301192655072 1.410163291651211 0
0.2865456020009985 1.377356926973607 0
-1.410163291651211 0.3902301192655072 0
-1.377356926973607 0.2865456020009985 0
-0.3902301192655072 -1.410163291651211 0
-0.2865456020009985 -1.377356926973607 0
1.410163291651211 -0.3902301192655072 0
1.377356926973607 -0.2865456020009985 0
1.550216385218427 -0.07179021243532624 0
1.634715203631708 -0.07089875424411561 0
1.580742171261696 0.01858238615888951 0
0.07179021243532624 1.550216385218427 0
0.07089875424411561 1.634715203631708 0
-0.01858238615888951 1.580742171261696 0
-1.550216385218427 0.07179021243532624 0
-1.634715203631708 0.07089875424411561 0
-1.580742171261696 -0.01858238615888951 0
-0.07179021243532624 -1.550216385218427 0
-0.07089875424411561 -1.634715203631708 0
0.01858238615888951 -1.580742171261696 0
0.5011683714696444 1.115727974635687 0
-1.115727974635687 0.5011683714696444 0
-0.5011683714696444 -1.115727974635687 0
1.115727974635687 -0.5011683714696444 0
1.245327781008 1.239356888895059 0
1.211939767145013 1.162821123088515 0
1.316968248673374 1.163315205067569 0
-1.239356888895059 1.245327781008 0
-1.162821123088515 1.211939767145013 0
-1.163315205067569 1.316968248673374 0
-1.245327781008 -1.239356888895059 0
-1.211939767145013 -1.162821123088515 0
-1.316968248673374 -1.163315205067569 0
1.239356888895059 -1.245327781008 0
1.162821123088515 -1.211939767145013 0
1.163315205067569 -1.316968248673374 0
1.382284910841526 1.327032268236807 0
1.448188583352378 1.254318771158608 0
-1.327032268236807 1.382284910841526 0
-1.254318771158608 1.448188583352378 0
-1.382284910841526 -1.327032268236807 0
-1.448188583352378 -1.254318771158608 0
1.327032268236807 -1.382284910841526 0
1.254318771158608 -1.448188583352378 0
1.850537511416314 0.5182962128013069 0
1.874382456217707 0.4231018573052439 0
-0.5182962128013069 1.850537511416314 0
-0.4231018573052439 1.874382456217707 0
-1.850537511416314 -0.5182962128013069 0
-1.874382456217707 -0.4231018573052439 0
0.5182962128013069 -1.850537511416314 0
0.4231018573052439 -1.874382456217707 0
0.7835958881385252 1.755785453178669 0
0.8723091924288247 1.713827185243261 0
-1.755785453178669 0.7835958881385252 0
-1.713827185243261 0.8723091924288247 0
-0.7835958881385252 -1.755785453178669 0
-0.8723091924288247 -1.713827185243261 0
1.755785453178669 -0.7835958881385252 0
1.713827185243261 -0.8723091924288247 0
0.3291737659457192 1.884702443030219 0
-1.884702443030219 0.3291737659457192 0
-0.3291737659457192 -1.884702443030219 0
1.884702443030219 -0.3291737659457192 0
1.615268662727695 1.025361308084679 0
1.66572031505013 0.9411878117233233 0
-1.025361308084679 1.615268662727695 0
-0.9411878117233233 1.66572031505013 0
-1.615268662727695 -1.025361308084679 0
-1.66572031505013 -0.9411878117233233 0
1.025361308084679 -1.615268662727695 0
0.9411878117233233 -1.66572031505013 0
1.903163174378467 0.1459356520755531 0
-0.1459356520755531 1.903163174378467 0
-1.903163174378467 -0.1459356520755531 0
0.1459356520755531 -1.903163174378467 0
1.106471394035606 1.562655205268655 0
1.185294445058005 1.504196046641422 0
-1.562655205268655 1.106471394035606 0
-1.504196046641422 1.185294445058005 0
-1.106471394035606 -1.562655205268655 0
-1.185294445058005 -1.504196046641422 0
1.562655205268655 -1.106471394035606 0
1.504196046641422 -1.185294445058005 0
0.7807071366253741 1.187885998551327 0
0.7083359390555664 1.250260302144742 0
-1.187885998551327 0.7807071366253741 0
-1.250260302144742 0.7083359390555664 0
-0.7807071366253741 -1.187885998551327 0
-0.7083359390555664 -1.250260302144742 0
1.187885998551327 -0.7807071366253741 0
1.250260302144742 -0.7083359390555664 0
0.6315594527259982 1.310751618743866 0
0.5556069379459817 1.376752227070901 0
0.543357066786114 1.284397403796709 0
-1.310751618743866 0.6315594527259982 0
-1.376752227070901 0.5556069379459817 0
-1.284397403796709 0.543357066786114 0
-0.6315594527259982 -1.310751618743866 0
-0.5556069379459817 -1.376752227070901 0
-0.543357066786114 -1.284397403796709 0
1.310751618743866 -0.6315594527259982 0
1.376752227070901 -0.5556069379459817 0
1.284397403796709 -0.543357066786114 0
1.409038470152555 0.3709014108545574 0
1.344784762095428 0.2834026026986069 0
1.438859824092603 0.2744535210533551 0
-0.3709014108545574 1.409038470152555 0
-0.2834026026986069 1.344784762095428 0
-0.2744535210533551 1.438859824092603 0
-1.409038470152555 -0.3709014108545574 0
-1.344784762095428 -0.2834026026986069 0
-1.438859824092603 -0.2744535210533551 0
0.3709014108545574 -1.409038470152555 0
0.2834026026986069 -1.344784762095428 0
0.2744535210533551 -1.438859824092603 0
0.4804413773862771 1.438617286575912 0
0.4032669446456868 1.498382566103378 0
-1.438617286575912 0.4804413773862771 0
-1.498382566103378 0.4032669446456868 0
-0.4804413773862771 -1.438617286575912 0
-0.4032669446456868 -1.498382566103378 0
1.438617286575912 -0.4804413773862771 0
1.498382566103378 -0.4032669446456868 0
1.497632284546507 0.1872384440491503 0
1.558450902952976 0.1026065515842875 0
-0.1872384440491503 1.497632284546507 0
-0.1026065515842875 1.558450902952976 0
-1.497632284546507 -0.1872384440491503 0
-1.558450902952976 -0.1026065515842875 0
0.1872384440491503 -1.497632284546507 0
0.1026065515842875 -1.558450902952976 0
0.7205858102154341 1.342615125418934 0
-1.342615125418934 0.7205858102154341 0
-0.7205858102154341 -1.342615125418934 0
1.342615125418934 -0.7205858102154341 0
0.7198795402591613 0.8040316806602719 0
-0.8040316806602719 0.7198795402591613 0
-0.7198795402591613 -0.8040316806602719 0
0.8040316806602719 -0.7198795402591613 0
0.9718598604410453 0.4678523560389907 0
-0.4678523560389907 0.9718598604410453 0
-0.9718598604410453 -0.4678523560389907 0
0.4678523560389907 -0.9718598604410453 0
0.5686437633261614 1.464971501523069 0
-1.464971501523069 0.5686437633261614 0
-0.5686437633261614 -1.464971501523069 0
1.464971501523069 -0.5686437633261614 0
1.561885992603634 0.2747372522051008 0
-0.2747372522051008 1.561885992603634 0
-1.561885992603634 -0.2747372522051008 0
0.2747372522051008 -1.561885992603634 0
1.321371962205623 0.5395648483654488 0
1.374010967503221 0.6211431714292612 0
1.276004939708627 0.6243405753845392 0
-0.5395648483654488 1.321371962205623 0
-0.6211431714292612 1.374010967503221 0
-0.6243405753845392 1.276004939708627 0
-1.321371962205623 -0.5395648483654488 0
-1.374010967503221 -0.6211431714292612 0
-1.276004939708627 -0.6243405753845392 0
0.5395648483654488 -1.321371962205623 0
0.6211431714292612 -1.374010967503221 0
0.6243405753845392 -1.276004939708627 0
1.066392883062317 0.4681629728463426 0
-0.4681629728463426 1.066392883062317 0
-1.066392883062317 -0.4681629728463426 0
0.4681629728463426 -1.066392883062317 0
0.8247288811244421 0.8230621082813603 0
-0.8230621082813603 0.8247288811244421 0
-0.8247288811244421 -0.8230621082813603 0
0.8230621082813603 -0.8247288811244421 0
0.829248966234484 0.9327389778124138 0
0.844948804116577 1.02908478269173 0
-0.9327389778124138 0.829248966234484 0
-1.02908478269173 0.844948804116577 0
-0.829248966234484 -0.9327389778124138 0
-0.844948804116577 -1.02908478269173 0
0.9327389778124138 -0.829248966234484 0
1.02908478269173 -0.844948804116577 0
0.857681056955691 1.126356835783261 0
0.874336216875319 1.220594646051743 0
-1.126356835783261 0.857681056955691 0
-1.220594646051743 0.874336216875319 0
-0.857681056955691 -1.126356835783261 0
-0.874336216875319 -1.220594646051743 0
1.126356835783261 -0.857681056955691 0
1.220594646051743 -0.874336216875319 0
1.367170699077799 0.4581089684549901 0
1.461245761074974 0.4491598868097382 0
-0.4581089684549901 1.367170699077799 0
-0.4491598868097382 1.461245761074974 0
-1.367170699077799 -0.4581089684549901 0
-1.461245761074974 -0.4491598868097382 0
0.4581089684549901 -1.367170699077799 0
0.4491598868097382 -1.461245761074974 0
0.9213255464173662 0.8548445075695623 0
0.9965536351372319 0.9169970642754386 0
-0.8548445075695623 0.9213255464173662 0
-0.9169970642754386 0.9965536351372319 0
-0.9213255464173662 -0.8548445075695623 0
-0.9965536351372319 -0.9169970642754386 0
0.8548445075695623 -0.9213255464173662 0
0.9169970642754386 -0.9965536351372319 0
1.168155755868143 0.4630334596675931 0
1.213954492740319 0.3815775797571344 0
1.269164671283205 0.4613063724102681 0
-0.4630334596675931 1.168155755868143 0
-0.3815775797571344 1.213954492740319 0
-0.4613063724102681 1.269164671283205 0
-1.168155755868143 -0.4630334596675931 0
-1.213954492740319 -0.3815775797571344 0
-1.269164671283205 -0.4613063724102681 0
0.4630334596675931 -1.168155755868143 0
0.3815775797571344 -1.213954492740319 0
0.4613063724102681 -1.269164671283205 0
1.473928464015489 0.6214428217190644 0
1.428561441518494 0.7062185487381547 0
-0.6214428217190644 1.473928464015489 0
-0.7062185487381547 1.428561441518494 0
-1.473928464015489 -0.6214428217190644 0
-1.428561441518494 -0.7062185487381547 0
0.6214428217190644 -1.473928464015489 0
0.7062185487381547 -1.428561441518494 0
0.938577884366522 1.061793430192146 0
-1.061793430192146 0.938577884366522 0
-0.938577884366522 -1.061793430192146 0
1.061793430192146 -0.938577884366522 0
1.121603061605203 0.5478917654994763 0
-0.5478917654994763 1.121603061605203 0
-1.121603061605203 -0.5478917654994763 0
0.5478917654994763 -1.121603061605203 0
1.084367418466973 0.9532245258025247 0
1.177607400966838 0.9724378293883782 0
-0.9532245258025247 1.084367418466973 0
-0.9724378293883782 1.177607400966838 0
-1.084367418466973 -0.9532245258025247 0
-1.177607400966838 -0.9724378293883782 0
0.9532245258025247 -1.084367418466973 0
0.9724378293883782 -1.177607400966838 0
1.013659414857149 1.000748838627702 0
-1.000748838627702 1.013659414857149 0
-1.013659414857149 -1.000748838627702 0
1.000748838627702 -1.013659414857149 0
1.026391667696263 1.098020891719232 0
1.120886248833265 1.137919553535396 0
1.045804718342638 1.198964145099841 0
-1.098020891719232 1.026391667696263 0
-1.137919553535396 1.120886248833265 0
-1.198964145099841 1.045804718342638 0
-1.026391667696263 -1.098020891719232 0
-1.120886248833265 -1.137919553535396 0
-1.045804718342638 -1.198964145099841 0
1.098020891719232 -1.026391667696263 0
1.137919553535396 -1.120886248833265 0
1.198964145099841 -1.045804718342638 0
0.03177583574989788 1.731674642262854 0
-1.731674642262854 0.03177583574989788 0
-0.03177583574989788 -1.731674642262854 0
1.731674642262854 -0.03177583574989788 0
1.302723932396051 1.310057429104303 0
-1.310057429104303 1.302723932396051 0
-1.302723932396051 -1.310057429104303 0
1.310057429104303 -1.302723932396051 0
1.555951089850375 0.4327045971262106 0
1.514083318775618 0.5199121547266432 0
-0.4327045971262106 1.555951089850375 0
-0.5199121547266432 1.514083318775618 0
-1.555951089850375 -0.4327045971262106 0
-1.514083318775618 -0.5199121547266432 0
0.4327045971262106 -1.555951089850375 0
0.5199121547266432 -1.514083318775618 0
1.464812422474705 -0.0628216988929837 0
1.518785454844717 -0.1523028392959888 0
0.0628216988929837 1.464812422474705 0
0.1523028392959888 1.518785454844717 0
-1.464812422474705 0.0628216988929837 0
-1.518785454844717 0.1523028392959888 0
-0.0628216988929837 -1.464812422474705 0
-0.1523028392959888 -1.518785454844717 0
1.411418285423049 1.171284942595852 0
1.378030271560062 1.094749176789307 0
-1.171284942595852 1.411418285423049 0
-1.094749176789307 1.378030271560062 0
-1.411418285423049 -1.171284942595852 0
-1.378030271560062 -1.094749176789307 0
1.171284942595852 -1.411418285423049 0
1.094749176789307 -1.378030271560062 0
1.370481305113726 0.7783881380354489 0
1.333030134484006 0.8793783681222573 0
-0.7783881380354489 1.370481305113726 0
-0.8793783681222573 1.333030134484006 0
-1.370481305113726 -0.7783881380354489 0
-1.333030134484006 -0.8793783681222573 0
0.7783881380354489 -1.370481305113726 0
0.8793783681222573 -1.333030134484006 0
0.9578128696746122 1.256110554186658 0
-1.256110554186658 0.9578128696746122 0
-0.9578128696746122 -1.256110554186658 0
1.256110554186658 -0.9578128696746122 0
1.584019408281502 0.3561577860321038 0
1.636856965982146 0.4269100539490088 0
-0.3561577860321038 1.584019408281502 0
-0.4269100539490088 1.636856965982146 0
-1.584019408281502 -0.3561577860321038 0
-1.636856965982146 -0.4269100539490088 0
0.3561577860321038 -1.584019408281502 0
0.4269100539490088 -1.636856965982146 0
0.3360061186146133 1.560746357066348 0
0.2371635196816241 1.537058994383558 0
-1.560746357066348 0.3360061186146133 0
-1.537058994383558 0.2371635196816241 0
-0.3360061186146133 -1.560746357066348 0
-0.2371635196816241 -1.537058994383558 0
1.560746357066348 -0.3360061186146133 0
1.537058994383558 -0.2371635196816241 0
0.4262173767353832 1.589200351991049 0
0.5110207959327637 1.62696037233426 0
0.4437599699016903 1.689324163297229 0
-1.589200351991049 0.4262173767353832 0
-1.62696037233426 0.5110207959327637 0
-1.689324163297229 0.4437599699016903 0
-0.4262173767353832 -1.589200351991049 0
-0.5110207959327637 -1.62696037233426 0
-0.4437599699016903 -1.689324163297229 0
1.589200351991049 -0.4262173767353832 0
1.62696037233426 -0.5110207959327637 0
1.689324163297229 -0.4437599699016903 0
0.8002750665115397 1.378121615600932 0
0.7234985801819717 1.438612932200056 0
-1.378121615600932 0.8002750665115397 0
-1.438612932200056 0.7234985801819717 0
-0.8002750665115397 -1.378121615600932 0
-0.7234985801819717 -1.438612932200056 0
1.378121615600932 -0.8002750665115397 0
1.438612932200056 -0.7234985801819717 0
1.177292688347422 0.6184155411645695 0
-0.6184155411645695 1.177292688347422 0
-1.177292688347422 -0.6184155411645695 0
0.6184155411645695 -1.177292688347422 0
1.192526716498639 1.061877869707906 0
-1.061877869707906 1.192526716498639 0
-1.192526716498639 -1.061877869707906 0
1.061877869707906 -1.192526716498639 0
1.697991499689391 0.4797399673109329 0
1.726059818120518 0.4031931562168262 0
-0.4797399673109329 1.697991499689391 0
-0.4031931562168262 1.726059818120518 0
-1.697991499689391 -0.4797399673109329 0
-1.726059818120518 -0.4031931562168262 0
0.4797399673109329 -1.697991499689391 0
0.4031931562168262 -1.726059818120518 0
1.253151844289486 0.3140669954744791 0
-0.3140669954744791 1.253151844289486 0
-1.253151844289486 -0.3140669954744791 0
0.3140669954744791 -1.253151844289486 0
0.8808389493442952 1.317639716954724 0
-1.317639716954724 0.8808389493442952 0
-0.8808389493442952 -1.317639716954724 0
1.317639716954724 -0.8808389493442952 0
1.509250606239065 1.185752742880346 0
-1.185752742880346 1.509250606239065 0
-1.509250606239065 -1.185752742880346 0
1.185752742880346 -1.509250606239065 0
1.567709765522837 1.10692969157709 0
1.520039205514595 1.021150530825179 0
-1.10692969157709 1.567709765522837 0
-1.021150530825179 1.520039205514595 0
-1.567709765522837 -1.10692969157709 0
-1.520039205514595 -1.021150530825179 0
1.10692969157709 -1.567709765522837 0
1.021150530825179 -1.520039205514595 0
1.796913384944906 0.3662724059000376 0
1.88410148933485 0.3333511936265312 0
-0.3662724059000376 1.796913384944906 0
-0.3333511936265312 1.88410148933485 0
-1.796913384944906 -0.3662724059000376 0
-1.88410148933485 -0.3333511936265312 0
0.3662724059000376 -1.796913384944906 0
0.3333511936265312 -1.88410148933485 0
1.898500935681283 0.2362780116629679 0
-0.2362780116629679 1.898500935681283 0
-1.898500935681283 -0.2362780116629679 0
0.2362780116629679 -1.898500935681283 0
1.336054655961498 1.037512484921336 0
1.430504692711173 1.045482222449618 0
-1.037512484921336 1.336054655961498 0
-1.045482222449618 1.430504692711173 0
-1.336054655961498 -1.037512484921336 0
-1.430504692711173 -1.045482222449618 0
1.037512484921336 -1.336054655961498 0
1.045482222449618 -1.430504692711173 0
0.5751747735294694 1.558123536171476 0
0.5927173666957766 1.658247347477657 0
-1.558123536171476 0.5751747735294694 0
-1.658247347477657 0.5927173666957766 0
-0.5751747735294694 -1.558123536171476 0
-0.5927173666957766 -1.658247347477657 0
1.558123536171476 -0.5751747735294694 0
1.658247347477657 -0.5927173666957766 0
1.334652580701215 1.397238726466997 0
-1.397238726466997 1.334652580701215 0
-1.334652580701215 -1.397238726466997 0
1.397238726466997 -1.334652580701215 0
1.261939083774828 1.463142398274696 0
-1.463142398274696 1.261939083774828 0
-1.261939083774828 -1.463142398274696 0
1.463142398274696 -1.261939083774828 0
1.725259623142288 0.8688501108476228 0
-0.8688501108476228 1.725259623142288 0
-1.725259623142288 -0.8688501108476228 0
0.8688501108476228 -1.725259623142288 0
0.877901996738774 1.617509329545289 0
0.9483862753541595 1.667524674392629 0
-1.617509329545289 0.877901996738774 0
-1.667524674392629 0.9483862753541595 0
-0.877901996738774 -1.617509329545289 0
-0.9483862753541595 -1.667524674392629 0
1.617509329545289 -0.877901996738774 0
1.667524674392629 -0.9483862753541595 0
1.032559771456614 1.617073022582012 0
-1.617073022582012 1.032559771456614 0
-1.032559771456614 -1.617073022582012 0
1.617073022582012 -1.032559771456614 0
0.2281950061392816 1.451655031639837 0
-1.451655031639837 0.2281950061392816 0
-0.2281950061392816 -1.451655031639837 0
1.451655031639837 -0.2281950061392816 0
1.821338534792579 0.6075214365168511 0
1.757995375204028 0.5452482932942944 0
-0.6075214365168511 1.821338534792579 0
-0.5452482932942944 1.757995375204028 0
-1.821338534792579 -0.6075214365168511 0
-1.757995375204028 -0.5452482932942944 0
0.6075214365168511 -1.821338534792579 0
0.5452482932942944 -1.757995375204028 0
1.767217891533674 0.7801368061926724 0
-0.7801368061926724 1.767217891533674 0
-1.767217891533674 -0.7801368061926724 0
0.7801368061926724 -1.767217891533674 0
0.7300295903852798 1.531764966848463 0
0.6503403340891741 1.496258476666465 0
-1.531764966848463 0.7300295903852798 0
-1.496258476666465 0.6503403340891741 0
-0.7300295903852798 -1.531764966848463 0
-0.6503403340891741 -1.496258476666465 0
1.531764966848463 -0.7300295903852798 0
1.496258476666465 -0.6503403340891741 0
0.8025063751457582 1.568965631388987 0
0.7293481290529606 1.626611175855397 0
-1.568965631388987 0.8025063751457582 0
-1.626611175855397 0.7293481290529606 0
-0.8025063751457582 -1.568965631388987 0
-0.7293481290529606 -1.626611175855397 0
1.568965631388987 -0.8025063751457582 0
1.626611175855397 -0.7293481290529606 0
0.5356879503133103 1.206787675785954 0
-1.206787675785954 0.5356879503133103 0
-0.5356879503133103 -1.206787675785954 0
1.206787675785954 -0.5356879503133103 0
0.4020283898704823 1.889524210943417 0
0.4972227448242055 1.865679266421554 0
-1.889524210943417 0.4020283898704823 0
-1.865679266421554 0.4972227448242055 0
-0.4020283898704823 -1.889524210943417 0
-0.4972227448242055 -1.865679266421554 0
1.889524210943417 -0.4020283898704823 0
1.865679266421554 -0.4972227448242055 0
0.6236042626088105 1.831134963332496 0
0.7160030174723244 1.798074160312179 0
-1.831134963332496 0.6236042626088105 0
-1.798074160312179 0.7160030174723244 0
-0.6236042626088105 -1.831134963332496 0
-0.7160030174723244 -1.798074160312179 0
1.831134963332496 -0.6236042626088105 0
1.798074160312179 -0.7160030174723244 0
0.5545663709178272 1.820482427821246 0
0.471219763005449 1.772281022240749 0
-1.820482427821246 0.5545663709178272 0
-1.772281022240749 0.471219763005449 0
-0.5545663709178272 -1.820482427821246 0
-0.471219763005449 -1.772281022240749 0
1.820482427821246 -0.5545663709178272 0
1.772281022240749 -0.471219763005449 0
0.5976012807900541 1.737736719151691 0
-1.737736719151691 0.5976012807900541 0
-0.5976012807900541 -1.737736719151691 0
1.737736719151691 -0.5976012807900541 0
1.788277731371936 0.6999201919069079 0
-0.6999201919069079 1.788277731371936 0
-1.788277731371936 -0.6999201919069079 0
0.6999201919069079 -1.788277731371936 0
1.268660919278586 0.9973393989414967 0
-0.9973393989414967 1.268660919278586 0
-1.268660919278586 -0.9973393989414967 0
0.9973393989414967 -1.268660919278586 0
0.6617552583867599 1.668899882988907 0
-1.668899882988907 0.6617552583867599 0
-0.6617552583867599 -1.668899882988907 0
1.668899882988907 -0.6617552583867599 0
0.3864163438080684 1.734521001897538 0
-1.734521001897538 0.3864163438080684 0
-0.3864163438080684 -1.734521001897538 0
1.734521001897538 -0.3864163438080684 0
1.478063589916031 0.9639138389572077 0
-0.9639138389572077 1.478063589916031 0
-1.478063589916031 -0.9639138389572077 0
0.9639138389572077 -1.478063589916031 0
1.400423871166918 0.9195514541020965 0
-0.9195514541020965 1.400423871166918 0
-1.400423871166918 -0.9195514541020965 0
0.9195514541020965 -1.400423871166918 0
0.3410215129870642 1.812656092927859 0
-1.812656092927859 0.3410215129870642 0
-0.3410215129870642 -1.812656092927859 0
1.812656092927859 -0.3410215129870642 0
0.7342320431472382 1.706100547529431 0
-1.706100547529431 0.7342320431472382 0
-0.7342320431472382 -1.706100547529431 0
1.706100547529431 -0.7342320431472382 0
1.321135340429696 0.9480724446018076 0
-0.9480724446018076 1.321135340429696 0
-1.321135340429696 -0.9480724446018076 0
0.9480724446018076 -1.321135340429696 0
$EndNodes
$Elements
9 704 1 704
1 1 8 8
1 1 9 16 
2 9 10 17 
3 10 11 18 
4 11 12 19 
5 12 13 20 
6 13 14 21 
7 14 15 22 
8 15 2 23 
1 2 8 8
9 2 24 31 
10 24 25 32 
11 25 26 33 
12 26 27 34 
13 27 28 35 
14 28 29 36 
15 29 30 37 
16 30 3 38 
1 3 8 8
17 3 39 46 
18 39 40 47 
19 40 41 48 
20 41 42 49 
21 42 43 50 
22 43 44 51 
23 44 45 52 
24 45 4 53 
1 4 8 8
25 4 54 61 
26 54 55 62 
27 55 56 63 
28 56 57 64 
29 57 58 65 
30 58 59 66 
31 59 60 67 
32 60 1 68 
1 5 8 16
33 5 69 84 
34 69 70 85 
35 70 71 86 
36 71 72 87 
37 72 73 88 
38 73 74 89 
39 74 75 90 
40 75 76 91 
41 76 77 92 
42 77 78 93 
43 78 79 94 
44 79 80 95 
45 80 81 96 
46 81 82 97 
47 82 83 98 
48 83 6 99 
1 6 8 16
49 6 100 115 
50 100 101 116 
51 101 102 117 
52 102 103 118 
53 103 104 119 
54 104 105 120 
55 105 106 121 
56 106 107 122 
57 107 108 123 
58 108 109 124 
59 109 110 125 
60 110 111 126 
61 111 112 127 
62 112 113 128 
63 113 114 129 
64 114 7 130 
1 7 8 16
65 7 131 146 
66 131 132 147 
67 132 133 148 
68 133 134 149 
69 134 135 150 
70 135 136 151 
71 136 137 152 
72 137 138 153 
73 138 139 154 
74 139 140 155 
75 140 141 156 
76 141 142 157 
77 142 143 158 
78 143 144 159 
79 144 145 160 
80 145 8 161 
1 8 8 16
81 8 162 177 
82 162 163 178 
83 163 164 179 
84 164 165 180 
85 165 166 181 
86 166 167 182 
87 167 168 183 
88 168 169 184 
89 169 170 185 
90 170 171 186 
91 171 172 187 
92 172 173 188 
93 173 174 189 
94 174 175 190 
95 175 176 191 
96 176 5 192 
2 1 9 608
97 237 205 401 449 450 451 
98 248 206 403 452 453 454 
99 259 207 405 455 456 457 
100 270 208 407 458 459 460 
101 176 5 372 192 461 462 
102 83 6 360 99 463 464 
103 114 7 364 130 465 466 
104 145 8 368 161 467 468 
105 11 205 237 469 449 470 
106 26 206 248 471 452 472 
107 41 207 259 473 455 474 
108 56 208 270 475 458 476 
109 285 330 401 477 478 479 
110 292 333 403 480 481 482 
111 299 336 405 483 484 485 
112 306 339 407 486 487 488 
113 287 201 341 489 490 491 
114 294 202 342 492 493 494 
115 301 203 343 495 496 497 
116 308 204 344 498 499 500 
117 201 287 429 489 501 502 
118 202 294 430 492 503 504 
119 203 301 431 495 505 506 
120 204 308 432 498 507 508 
121 330 240 401 509 510 478 
122 333 251 403 511 512 481 
123 336 262 405 513 514 484 
124 339 273 407 515 516 487 
125 317 229 377 517 518 519 
126 319 230 378 520 521 522 
127 321 231 379 523 524 525 
128 323 232 380 526 527 528 
129 341 309 348 529 530 531 
130 342 310 345 532 533 534 
131 343 311 346 535 536 537 
132 344 312 347 538 539 540 
133 341 348 381 531 541 542 
134 342 345 382 534 543 544 
135 343 346 383 537 545 546 
136 344 347 384 540 547 548 
137 209 83 360 549 464 550 
138 210 114 364 551 466 552 
139 211 145 368 553 468 554 
140 212 176 372 555 462 556 
141 5 229 372 557 558 461 
142 6 230 360 559 560 463 
143 7 231 364 561 562 465 
144 8 232 368 563 564 467 
145 240 237 401 565 451 510 
146 251 248 403 566 454 512 
147 262 259 405 567 457 514 
148 273 270 407 568 460 516 
149 197 239 325 569 570 571 
150 198 250 326 572 573 574 
151 199 261 327 575 576 577 
152 200 272 328 578 579 580 
153 353 385 397 581 582 583 
154 354 386 398 584 585 586 
155 355 387 399 587 588 589 
156 356 388 400 590 591 592 
157 385 233 397 593 594 582 
158 386 234 398 595 596 585 
159 387 235 399 597 598 588 
160 388 236 400 599 600 591 
161 281 9 429 601 602 603 
162 288 24 430 604 605 606 
163 295 39 431 607 608 609 
164 302 54 432 610 611 612 
165 239 243 325 613 614 570 
166 250 254 326 615 616 573 
167 261 265 327 617 618 576 
168 272 276 328 619 620 579 
169 331 233 385 621 593 622 
170 334 234 386 623 595 624 
171 337 235 387 625 597 626 
172 340 236 388 627 599 628 
173 229 317 417 517 629 630 
174 230 319 418 520 631 632 
175 231 321 419 523 633 634 
176 232 323 420 526 635 636 
177 357 209 358 637 638 639 
178 361 210 362 640 641 642 
179 365 211 366 643 644 645 
180 369 212 370 646 647 648 
181 358 209 360 638 550 649 
182 362 210 364 641 552 650 
183 366 211 368 644 554 651 
184 370 212 372 647 556 652 
185 233 331 389 621 653 654 
186 234 334 390 623 655 656 
187 235 337 391 625 657 658 
188 236 340 392 627 659 660 
189 225 313 393 661 662 663 
190 226 314 394 664 665 666 
191 227 315 395 667 668 669 
192 228 316 396 670 671 672 
193 9 201 429 673 502 602 
194 24 202 430 674 504 605 
195 39 203 431 675 506 608 
196 54 204 432 676 508 611 
197 245 345 433 677 678 679 
198 256 346 434 680 681 682 
199 267 347 435 683 684 685 
200 278 348 436 686 687 688 
201 313 225 402 661 689 690 
202 314 226 404 664 691 692 
203 315 227 406 667 693 694 
204 316 228 408 670 695 696 
205 313 349 409 697 698 699 
206 314 350 410 700 701 702 
207 315 351 411 703 704 705 
208 316 352 412 706 707 708 
209 10 9 281 17 601 709 
210 25 24 288 32 604 710 
211 40 39 295 47 607 711 
212 55 54 302 62 610 712 
213 12 11 237 19 470 713 
214 27 26 248 34 472 714 
215 42 41 259 49 474 715 
216 57 56 270 64 476 716 
217 13 197 325 717 571 718 
218 28 198 326 719 574 720 
219 43 199 327 721 577 722 
220 58 200 328 723 580 724 
221 193 14 325 725 726 727 
222 194 29 326 728 729 730 
223 195 44 327 731 732 733 
224 196 59 328 734 735 736 
225 201 1 309 737 738 739 
226 202 2 310 740 741 742 
227 203 3 311 743 744 745 
228 204 4 312 746 747 748 
229 15 193 310 749 750 751 
230 30 194 311 752 753 754 
231 45 195 312 755 756 757 
232 60 196 309 758 759 760 
233 393 313 409 662 699 761 
234 394 314 410 665 702 762 
235 395 315 411 668 705 763 
236 396 316 412 671 708 764 
237 201 309 341 739 529 490 
238 202 310 342 742 532 493 
239 203 311 343 745 535 496 
240 204 312 344 748 538 499 
241 310 193 345 750 765 533 
242 311 194 346 753 766 536 
243 312 195 347 756 767 539 
244 309 196 348 759 768 530 
245 317 377 425 519 769 770 
246 319 378 426 522 771 772 
247 321 379 427 525 773 774 
248 323 380 428 528 775 776 
249 345 193 433 765 777 678 
250 346 194 434 766 778 681 
251 347 195 435 767 779 684 
252 348 196 436 768 780 687 
253 318 287 341 781 491 782 
254 320 294 342 783 494 784 
255 322 301 343 785 497 786 
256 324 308 344 787 500 788 
257 245 247 345 789 790 677 
258 256 258 346 791 792 680 
259 267 269 347 793 794 683 
260 278 280 348 795 796 686 
261 318 370 417 797 798 799 
262 320 358 418 800 801 802 
263 322 362 419 803 804 805 
264 324 366 420 806 807 808 
265 193 325 433 727 809 777 
266 194 326 434 730 810 778 
267 195 327 435 733 811 779 
268 196 328 436 736 812 780 
269 217 331 413 813 814 815 
270 218 334 414 816 817 818 
271 219 337 415 819 820 821 
272 220 340 416 822 823 824 
273 75 76 217 91 825 826 
274 106 107 218 122 827 828 
275 137 138 219 153 829 830 
276 168 169 220 184 831 832 
277 70 71 221 86 833 834 
278 101 102 222 117 835 836 
279 132 133 223 148 837 838 
280 163 164 224 179 839 840 
281 79 80 213 95 841 842 
282 110 111 214 126 843 844 
283 141 142 215 157 845 846 
284 172 173 216 188 847 848 
285 82 83 209 98 549 849 
286 113 114 210 129 551 850 
287 144 145 211 160 553 851 
288 175 176 212 191 555 852 
289 73 74 225 89 853 854 
290 104 105 226 120 855 856 
291 135 136 227 151 857 858 
292 166 167 228 182 859 860 
293 5 69 229 84 861 557 
294 6 100 230 115 862 559 
295 7 131 231 146 863 561 
296 8 162 232 177 864 563 
297 77 78 233 93 865 866 
298 108 109 234 124 867 868 
299 139 140 235 155 869 870 
300 170 171 236 186 871 872 
301 239 242 243 873 874 613 
302 250 253 254 875 876 615 
303 261 264 265 877 878 617 
304 272 275 276 879 880 619 
305 243 244 245 881 882 883 
306 254 255 256 884 885 886 
307 265 266 267 887 888 889 
308 276 277 278 890 891 892 
309 286 283 287 893 894 895 
310 293 290 294 896 897 898 
311 300 297 301 899 900 901 
312 307 304 308 902 903 904 
313 245 246 247 905 906 789 
314 256 257 258 907 908 791 
315 267 268 269 909 910 793 
316 278 279 280 911 912 795 
317 317 287 318 913 781 914 
318 319 294 320 915 783 916 
319 321 301 322 917 785 918 
320 323 308 324 919 787 920 
321 243 242 244 874 921 881 
322 254 253 255 876 922 884 
323 265 264 266 878 923 887 
324 276 275 277 880 924 890 
325 9 1 201 16 737 673 
326 24 2 202 31 740 674 
327 39 3 203 46 743 675 
328 54 4 204 61 746 676 
329 13 12 197 20 925 717 
330 28 27 198 35 926 719 
331 43 42 199 50 927 721 
332 58 57 200 65 928 723 
333 15 14 193 22 725 749 
334 30 29 194 37 728 752 
335 45 44 195 52 731 755 
336 60 59 196 67 734 758 
337 11 10 205 18 929 469 
338 26 25 206 33 930 471 
339 41 40 207 48 931 473 
340 56 55 208 63 932 475 
341 14 13 325 21 718 726 
342 29 28 326 36 720 729 
343 44 43 327 51 722 732 
344 59 58 328 66 724 735 
345 245 244 246 882 933 905 
346 256 255 257 885 934 907 
347 267 266 268 888 935 909 
348 278 277 279 891 936 911 
349 1 60 309 68 760 738 
350 2 15 310 23 751 741 
351 3 30 311 38 754 744 
352 4 45 312 53 757 747 
353 286 287 317 895 913 937 
354 293 294 319 898 915 938 
355 300 301 321 901 917 939 
356 307 308 323 904 919 940 
357 282 284 285 941 942 943 
358 289 291 292 944 945 946 
359 296 298 299 947 948 949 
360 303 305 306 950 951 952 
361 205 10 281 929 709 953 
362 206 25 288 930 710 954 
363 207 40 295 931 711 955 
364 208 55 302 932 712 956 
365 197 12 237 925 713 957 
366 198 27 248 926 714 958 
367 199 42 259 927 715 959 
368 200 57 270 928 716 960 
369 197 238 239 961 962 569 
370 198 249 250 963 964 572 
371 199 260 261 965 966 575 
372 200 271 272 967 968 578 
373 239 241 242 969 970 873 
374 250 252 253 971 972 875 
375 261 263 264 973 974 877 
376 272 274 275 975 976 879 
377 284 283 286 977 893 978 
378 291 290 293 979 896 980 
379 298 297 300 981 899 982 
380 305 304 307 983 902 984 
381 238 237 240 985 565 986 
382 249 248 251 987 566 988 
383 260 259 262 989 567 990 
384 271 270 273 991 568 992 
385 282 281 283 993 994 995 
386 289 288 290 996 997 998 
387 296 295 297 999 1000 1001 
388 303 302 304 1002 1003 1004 
389 285 284 313 942 1005 1006 
390 292 291 314 945 1007 1008 
391 299 298 315 948 1009 1010 
392 306 305 316 951 1011 1012 
393 197 237 238 957 985 961 
394 198 248 249 958 987 963 
395 199 259 260 959 989 965 
396 200 270 271 960 991 967 
397 282 283 284 995 977 941 
398 289 290 291 998 979 944 
399 296 297 298 1001 981 947 
400 303 304 305 1004 983 950 
401 239 238 241 962 1013 969 
402 250 249 252 964 1014 971 
403 261 260 263 966 1015 973 
404 272 271 274 968 1016 975 
405 205 281 282 953 993 1017 
406 206 288 289 954 996 1018 
407 207 295 296 955 999 1019 
408 208 302 303 956 1002 1020 
409 329 240 330 1021 509 1022 
410 332 251 333 1023 511 1024 
411 335 262 336 1025 513 1026 
412 338 273 339 1027 515 1028 
413 238 240 329 986 1021 1029 
414 249 251 332 988 1023 1030 
415 260 262 335 990 1025 1031 
416 271 273 338 992 1027 1032 
417 241 329 331 1033 1034 1035 
418 252 332 334 1036 1037 1038 
419 263 335 337 1039 1040 1041 
420 274 338 340 1042 1043 1044 
421 241 238 329 1013 1029 1033 
422 252 249 332 1014 1030 1036 
423 263 260 335 1015 1031 1039 
424 274 271 338 1016 1032 1042 
425 358 360 418 649 1045 801 
426 362 364 419 650 1046 804 
427 366 368 420 651 1047 807 
428 370 372 417 652 1048 798 
429 331 217 389 813 1049 653 
430 334 218 390 816 1050 655 
431 337 219 391 819 1051 657 
432 340 220 392 822 1052 659 
433 284 286 349 978 1053 1054 
434 291 293 350 980 1055 1056 
435 298 300 351 982 1057 1058 
436 305 307 352 984 1059 1060 
437 370 318 381 797 1061 1062 
438 358 320 382 800 1063 1064 
439 362 322 383 803 1065 1066 
440 366 324 384 806 1067 1068 
441 373 217 413 1069 815 1070 
442 374 218 414 1071 818 1072 
443 375 219 415 1073 821 1074 
444 376 220 416 1075 824 1076 
445 330 285 402 477 1077 1078 
446 333 292 404 480 1079 1080 
447 336 299 406 483 1081 1082 
448 339 306 408 486 1083 1084 
449 313 284 349 1005 1054 697 
450 314 291 350 1007 1056 700 
451 315 298 351 1009 1058 703 
452 316 305 352 1011 1060 706 
453 241 331 385 1035 622 1085 
454 252 334 386 1038 624 1086 
455 263 337 387 1041 626 1087 
456 274 340 388 1044 628 1088 
457 349 286 425 1053 1089 1090 
458 350 293 426 1055 1091 1092 
459 351 300 427 1057 1093 1094 
460 352 307 428 1059 1095 1096 
461 247 357 358 1097 639 1098 
462 258 361 362 1099 642 1100 
463 269 365 366 1101 645 1102 
464 280 369 370 1103 648 1104 
465 357 246 359 1105 1106 1107 
466 361 257 363 1108 1109 1110 
467 365 268 367 1111 1112 1113 
468 369 279 371 1114 1115 1116 
469 244 242 353 921 1117 1118 
470 255 253 354 922 1119 1120 
471 266 264 355 923 1121 1122 
472 277 275 356 924 1123 1124 
473 282 285 401 943 479 1125 
474 289 292 403 946 482 1126 
475 296 299 405 949 485 1127 
476 303 306 407 952 488 1128 
477 331 329 413 1034 1129 814 
478 334 332 414 1037 1130 817 
479 337 335 415 1040 1131 820 
480 340 338 416 1043 1132 823 
481 221 349 425 1133 1090 1134 
482 222 350 426 1135 1092 1136 
483 223 351 427 1137 1094 1138 
484 224 352 428 1139 1096 1140 
485 247 246 357 906 1105 1097 
486 258 257 361 908 1108 1099 
487 269 268 365 910 1111 1101 
488 280 279 369 912 1114 1103 
489 287 283 429 894 1141 501 
490 294 290 430 897 1142 503 
491 301 297 431 900 1143 505 
492 308 304 432 903 1144 507 
493 353 242 385 1117 1145 581 
494 354 253 386 1119 1146 584 
495 355 264 387 1121 1147 587 
496 356 275 388 1123 1148 590 
497 75 217 373 826 1069 1149 
498 106 218 374 828 1071 1150 
499 137 219 375 830 1073 1151 
500 168 220 376 832 1075 1152 
501 225 74 373 853 1153 1154 
502 226 105 374 855 1155 1156 
503 227 136 375 857 1157 1158 
504 228 167 376 859 1159 1160 
505 70 221 377 834 1161 1162 
506 101 222 378 836 1163 1164 
507 132 223 379 838 1165 1166 
508 163 224 380 840 1167 1168 
509 229 69 377 861 1169 518 
510 230 100 378 862 1170 521 
511 231 131 379 863 1171 524 
512 232 162 380 864 1172 527 
513 74 75 373 90 1149 1153 
514 105 106 374 121 1150 1155 
515 136 137 375 152 1151 1157 
516 167 168 376 183 1152 1159 
517 69 70 377 85 1162 1169 
518 100 101 378 116 1164 1170 
519 131 132 379 147 1166 1171 
520 162 163 380 178 1168 1172 
521 373 413 441 1070 1173 1174 
522 374 414 442 1072 1175 1176 
523 375 415 443 1074 1177 1178 
524 376 416 444 1076 1179 1180 
525 359 246 421 1106 1181 1182 
526 363 257 422 1109 1183 1184 
527 367 268 423 1112 1185 1186 
528 371 279 424 1115 1187 1188 
529 217 76 389 825 1189 1049 
530 218 107 390 827 1190 1050 
531 219 138 391 829 1191 1051 
532 220 169 392 831 1192 1052 
533 77 233 389 866 654 1193 
534 108 234 390 868 656 1194 
535 139 235 391 870 658 1195 
536 170 236 392 872 660 1196 
537 73 225 393 854 663 1197 
538 104 226 394 856 666 1198 
539 135 227 395 858 669 1199 
540 166 228 396 860 672 1200 
541 79 213 397 842 1201 1202 
542 110 214 398 844 1203 1204 
543 141 215 399 846 1205 1206 
544 172 216 400 848 1207 1208 
545 233 78 397 865 1209 594 
546 234 109 398 867 1210 596 
547 235 140 399 869 1211 598 
548 236 171 400 871 1212 600 
549 285 313 402 1006 690 1077 
550 292 314 404 1008 692 1079 
551 299 315 406 1010 694 1081 
552 306 316 408 1012 696 1083 
553 247 358 382 1098 1064 1213 
554 258 362 383 1100 1066 1214 
555 269 366 384 1102 1068 1215 
556 280 370 381 1104 1062 1216 
557 221 71 409 833 1217 1218 
558 222 102 410 835 1219 1220 
559 223 133 411 837 1221 1222 
560 224 164 412 839 1223 1224 
561 318 341 381 782 542 1061 
562 320 342 382 784 544 1063 
563 322 343 383 786 546 1065 
564 324 344 384 788 548 1067 
565 345 247 382 790 1213 543 
566 346 258 383 792 1214 545 
567 347 269 384 794 1215 547 
568 348 280 381 796 1216 541 
569 242 241 385 970 1085 1145 
570 253 252 386 972 1086 1146 
571 264 263 387 974 1087 1147 
572 275 274 388 976 1088 1148 
573 76 77 389 92 1193 1189 
574 107 108 390 123 1194 1190 
575 138 139 391 154 1195 1191 
576 169 170 392 185 1196 1192 
577 72 73 393 88 1197 1225 
578 103 104 394 119 1198 1226 
579 134 135 395 150 1199 1227 
580 165 166 396 181 1200 1228 
581 244 353 421 1118 1229 1230 
582 255 354 422 1120 1231 1232 
583 266 355 423 1122 1233 1234 
584 277 356 424 1124 1235 1236 
585 353 213 421 1237 1238 1229 
586 354 214 422 1239 1240 1231 
587 355 215 423 1241 1242 1233 
588 356 216 424 1243 1244 1235 
589 325 243 433 614 1245 809 
590 326 254 434 616 1246 810 
591 327 265 435 618 1247 811 
592 328 276 436 620 1248 812 
593 78 79 397 94 1202 1209 
594 109 110 398 125 1204 1210 
595 140 141 399 156 1206 1211 
596 171 172 400 187 1208 1212 
597 81 82 437 97 1249 1250 
598 112 113 438 128 1251 1252 
599 143 144 439 159 1253 1254 
600 174 175 440 190 1255 1256 
601 80 81 445 96 1257 1258 
602 111 112 446 127 1259 1260 
603 142 143 447 158 1261 1262 
604 173 174 448 189 1263 1264 
605 349 221 409 1133 1218 698 
606 350 222 410 1135 1220 701 
607 351 223 411 1137 1222 704 
608 352 224 412 1139 1224 707 
609 213 353 397 1237 583 1201 
610 214 354 398 1239 586 1203 
611 215 355 399 1241 589 1205 
612 216 356 400 1243 592 1207 
613 359 81 437 1265 1250 1266 
614 363 112 438 1267 1252 1268 
615 367 143 439 1269 1254 1270 
616 371 174 440 1271 1256 1272 
617 81 359 445 1265 1273 1257 
618 112 363 446 1267 1274 1259 
619 143 367 447 1269 1275 1261 
620 174 371 448 1271 1276 1263 
621 205 282 401 1017 1125 450 
622 206 289 403 1018 1126 453 
623 207 296 405 1019 1127 456 
624 208 303 407 1020 1128 459 
625 71 72 409 87 1277 1217 
626 102 103 410 118 1278 1219 
627 133 134 411 149 1279 1221 
628 164 165 412 180 1280 1223 
629 329 330 413 1022 1281 1129 
630 332 333 414 1024 1282 1130 
631 335 336 415 1026 1283 1131 
632 338 339 416 1028 1284 1132 
633 359 421 445 1182 1285 1273 
634 363 422 446 1184 1286 1274 
635 367 423 447 1186 1287 1275 
636 371 424 448 1188 1288 1276 
637 357 359 437 1107 1266 1289 
638 361 363 438 1110 1268 1290 
639 365 367 439 1113 1270 1291 
640 369 371 440 1116 1272 1292 
641 72 393 409 1225 761 1277 
642 103 394 410 1226 762 1278 
643 134 395 411 1227 763 1279 
644 165 396 412 1228 764 1280 
645 317 318 417 914 799 629 
646 319 320 418 916 802 631 
647 321 322 419 918 805 633 
648 323 324 420 920 808 635 
649 225 373 441 1154 1174 1293 
650 226 374 442 1156 1176 1294 
651 227 375 443 1158 1178 1295 
652 228 376 444 1160 1180 1296 
653 372 229 417 558 630 1048 
654 360 230 418 560 632 1045 
655 364 231 419 562 634 1046 
656 368 232 420 564 636 1047 
657 246 244 421 933 1230 1181 
658 257 255 422 934 1232 1183 
659 268 266 423 935 1234 1185 
660 279 277 424 936 1236 1187 
661 286 317 425 937 770 1089 
662 293 319 426 938 772 1091 
663 300 321 427 939 774 1093 
664 307 323 428 940 776 1095 
665 402 225 441 689 1293 1297 
666 404 226 442 691 1294 1298 
667 406 227 443 693 1295 1299 
668 408 228 444 695 1296 1300 
669 283 281 429 994 603 1141 
670 290 288 430 997 606 1142 
671 297 295 431 1000 609 1143 
672 304 302 432 1003 612 1144 
673 243 245 433 883 679 1245 
674 254 256 434 886 682 1246 
675 265 267 435 889 685 1247 
676 276 278 436 892 688 1248 
677 209 357 437 637 1289 1301 
678 210 361 438 640 1290 1302 
679 211 365 439 643 1291 1303 
680 212 369 440 646 1292 1304 
681 82 209 437 849 1301 1249 
682 113 210 438 850 1302 1251 
683 144 211 439 851 1303 1253 
684 175 212 440 852 1304 1255 
685 377 221 425 1161 1134 769 
686 378 222 426 1163 1136 771 
687 379 223 427 1165 1138 773 
688 380 224 428 1167 1140 775 
689 213 80 445 841 1258 1305 
690 214 111 446 843 1260 1306 
691 215 142 447 845 1262 1307 
692 216 173 448 847 1264 1308 
693 421 213 445 1238 1305 1285 
694 422 214 446 1240 1306 1286 
695 423 215 447 1242 1307 1287 
696 424 216 448 1244 1308 1288 
697 330 402 441 1078 1297 1309 
698 333 404 442 1080 1298 1310 
699 336 406 443 1082 1299 1311 
700 339 408 444 1084 1300 1312 
701 413 330 441 1281 1309 1173 
702 414 333 442 1282 1310 1175 
703 415 336 443 1283 1311 1177 
704 416 339 444 1284 1312 1179 
$EndElements
