$MeshFormat
4.1 0 8
$EndMeshFormat
$PhysicalNames
3
1 1 "inner"
1 2 "outer"
2 3 "domain"
$EndPhysicalNames
$Entities
9 8 1 0
1 0 0 0 0 
2 1 0 0 0 
3 0 1 0 0 
4 -1 0 0 0 
5 0 -1 0 0 
6 2 0 0 0 
7 0 2 0 0 
8 -2 0 0 0 
9 0 -2 0 0 
1 5.551115123125783e-17 0 0 1 1 0 1 1 2 2 -3 
2 -1 5.551115123125783e-17 0 0 1 0 1 1 2 3 -4 
3 -1 -1 0 -5.551115123125783e-17 0 0 1 1 2 4 -5 
4 0 -1 0 1 -5.551115123125783e-17 0 1 1 2 5 -2 
5 1.110223024625157e-16 0 0 2 2 0 1 2 2 6 -7 
6 -2 1.110223024625157e-16 0 0 2 0 1 2 2 7 -8 
7 -2 -2 0 -1.110223024625157e-16 0 0 1 2 2 8 -9 
8 0 -2 0 2 -1.110223024625157e-16 0 1 2 2 9 -6 
1 -2 -2 0 2 2 0 1 3 8 5 6 7 8 -4 -3 -2 -1 
$EndEntities
$Nodes
17 1328 1 1328
0 2 0 1
1
1 0 0
0 3 0 1
2
0 1 0
0 4 0 1
3
-1 0 0
0 5 0 1
4
0 -1 0
0 6 0 1
5
2 0 0
0 7 0 1
6
0 2 0
0 8 0 1
7
-2 0 0
0 9 0 1
8
0 -2 0
1 1 0 15
9
10
11
12
13
14
15
16
17
18
19
20
21
22
23
0.9807852803040616 0.1950903225146834 0
0.9238795320827141 0.3826834333997557 0
0.8314696113699828 0.5555702344152805 0
0.7071067795767629 0.7071067827963321 0
0.5555702316295839 0.8314696132313258 0
0.3826834312295727 0.9238795329816333 0
0.1950903214133833 0.9807852805231239 0
0.9951847266520299 0.09801714053431865 0
0.9569403355025747 0.2902846780114648 0
0.8819212636990394 0.4713967380407817 0
0.7730104521231007 0.6343932856741465 0
0.634393282686774 0.7730104545747741 0
0.4713967354832414 0.8819212650660732 0
0.2902846764422344 0.9569403359785955 0
0.09801714012755942 0.9951847266920922 0
1 2 0 15
24
25
26
27
28
29
30
31
32
33
34
35
36
37
38
-0.1950903225146834 0.9807852803040616 0
-0.3826834333997557 0.9238795320827141 0
-0.5555702344152805 0.8314696113699828 0
-0.7071067827963321 0.7071067795767629 0
-0.8314696132313258 0.5555702316295839 0
-0.9238795329816333 0.3826834312295727 0
-0.9807852805231239 0.1950903214133833 0
-0.09801714053431865 0.9951847266520299 0
-0.2902846780114648 0.9569403355025747 0
-0.4713967380407817 0.8819212636990394 0
-0.6343932856741465 0.7730104521231007 0
-0.7730104545747741 0.634393282686774 0
-0.8819212650660732 0.4713967354832414 0
-0.9569403359785955 0.2902846764422344 0
-0.9951847266920922 0.09801714012755942 0
1 3 0 15
39
40
41
42
43
44
45
46
47
48
49
50
51
52
53
-0.9807852803040616 -0.1950903225146834 0
-0.9238795320827141 -0.3826834333997557 0
-0.8314696113699828 -0.5555702344152805 0
-0.7071067795767629 -0.7071067827963321 0
-0.5555702316295839 -0.8314696132313258 0
-0.3826834312295727 -0.9238795329816333 0
-0.1950903214133833 -0.9807852805231239 0
-0.9951847266520299 -0.09801714053431865 0
-0.9569403355025747 -0.2902846780114648 0
-0.8819212636990394 -0.4713967380407817 0
-0.7730104521231007 -0.6343932856741465 0
-0.634393282686774 -0.7730104545747741 0
-0.4713967354832414 -0.8819212650660732 0
-0.2902846764422344 -0.9569403359785955 0
-0.09801714012755942 -0.9951847266920922 0
1 4 0 15
54
55
56
57
58
59
60
61
62
63
64
65
66
67
68
0.1950903225146834 -0.9807852803040616 0
0.3826834333997557 -0.9238795320827141 0
0.5555702344152805 -0.8314696113699828 0
0.7071067827963321 -0.7071067795767629 0
0.8314696132313258 -0.5555702316295839 0
0.9238795329816333 -0.3826834312295727 0
0.9807852805231239 -0.1950903214133833 0
0.09801714053431865 -0.9951847266520299 0
0.2902846780114648 -0.9569403355025747 0
0.4713967380407817 -0.8819212636990394 0
0.6343932856741465 -0.7730104521231007 0
0.7730104545747741 -0.634393282686774 0
0.8819212650660732 -0.4713967354832414 0
0.9569403359785955 -0.2902846764422344 0
0.9951847266920922 -0.09801714012755942 0
1 5 0 31
69
70
71
72
73
74
75
76
77
78
79
80
81
82
83
84
85
86
87
88
89
90
91
92
93
94
95
96
97
98
99
1.990369453300517 0.1960342811046107 0
1.961570560607652 0.3901806450317374 0
1.913880671004866 0.5805693560238636 0
1.847759064163578 0.7653668668039773 0
1.763842527380806 0.9427934761138778 0
1.662939222735937 1.11114046883659 0
1.546020904168394 1.268786571443102 0
1.41421355914669 1.4142135655995 0
1.268786565293916 1.5460209092149 0
1.111140463249119 1.662939226469366 0
0.9427934710442101 1.7638425300906 0
0.7653668624636114 1.847759065961417 0
0.5805693527365837 1.913880672002052 0
0.3901806428291373 1.961570561045776 0
0.1960342800604678 1.990369453403356 0
1.997590912398997 0.09813534888582694 0
1.978353019821299 0.2934609496405734 0
1.940062506073491 0.4859603610664635 0
1.883088129718856 0.673779708593202 0
1.807978585151948 0.8551101891756177 0
1.71545721840493 1.028205491048565 0
1.606415060793109 1.19139861190832 0
1.481902247815845 1.343117912887155 0
1.343117906481036 1.481902253622013 0
1.19139860603007 1.606415065152716 0
1.028205485726491 1.715457221594858 0
0.8551101844277551 1.80797858739752 0
0.6737797047526817 1.883088131093016 0
0.4859603582808149 1.940062506771259 0
0.29346094800071 1.97835302006455 0
0.09813534835812061 1.997590912424921 0
1 6 0 31
100
101
102
103
104
105
106
107
108
109
110
111
112
113
114
115
116
117
118
119
120
121
122
123
124
125
126
127
128
129
130
-0.1960342811046107 1.990369453300517 0
-0.3901806450317374 1.961570560607652 0
-0.5805693560238636 1.913880671004866 0
-0.7653668668039773 1.847759064163578 0
-0.9427934761138778 1.763842527380806 0
-1.11114046883659 1.662939222735937 0
-1.268786571443102 1.546020904168394 0
-1.4142135655995 1.41421355914669 0
-1.5460209092149 1.268786565293916 0
-1.662939226469366 1.111140463249119 0
-1.7638425300906 0.9427934710442101 0
-1.847759065961417 0.7653668624636114 0
-1.913880672002052 0.5805693527365837 0
-1.961570561045776 0.3901806428291373 0
-1.990369453403356 0.1960342800604678 0
-0.09813534888582694 1.997590912398997 0
-0.2934609496405734 1.978353019821299 0
-0.4859603610664635 1.940062506073491 0
-0.673779708593202 1.883088129718856 0
-0.8551101891756177 1.807978585151948 0
-1.028205491048565 1.71545721840493 0
-1.19139861190832 1.606415060793109 0
-1.343117912887155 1.481902247815845 0
-1.481902253622013 1.343117906481036 0
-1.606415065152716 1.19139860603007 0
-1.715457221594858 1.028205485726491 0
-1.80797858739752 0.8551101844277551 0
-1.883088131093016 0.6737797047526817 0
-1.940062506771259 0.4859603582808149 0
-1.97835302006455 0.29346094800071 0
-1.997590912424921 0.09813534835812061 0
1 7 0 31
131
132
133
134
135
136
137
138
139
140
141
142
143
144
145
146
147
148
149
150
151
152
153
154
155
156
157
158
159
160
161
-1.990369453300517 -0.1960342811046107 0
-1.961570560607652 -0.3901806450317374 0
-1.913880671004866 -0.5805693560238636 0
-1.847759064163578 -0.7653668668039773 0
-1.763842527380806 -0.9427934761138778 0
-1.662939222735937 -1.11114046883659 0
-1.546020904168394 -1.268786571443102 0
-1.41421355914669 -1.4142135655995 0
-1.268786565293916 -1.5460209092149 0
-1.111140463249119 -1.662939226469366 0
-0.9427934710442101 -1.7638425300906 0
-0.7653668624636114 -1.847759065961417 0
-0.5805693527365837 -1.913880672002052 0
-0.3901806428291373 -1.961570561045776 0
-0.1960342800604678 -1.990369453403356 0
-1.997590912398997 -0.09813534888582694 0
-1.978353019821299 -0.2934609496405734 0
-1.940062506073491 -0.4859603610664635 0
-1.883088129718856 -0.673779708593202 0
-1.807978585151948 -0.8551101891756177 0
-1.71545721840493 -1.028205491048565 0
-1.606415060793109 -1.19139861190832 0
-1.481902247815845 -1.343117912887155 0
-1.343117906481036 -1.481902253622013 0
-1.19139860603007 -1.606415065152716 0
-1.028205485726491 -1.715457221594858 0
-0.8551101844277551 -1.80797858739752 0
-0.6737797047526817 -1.883088131093016 0
-0.4859603582808149 -1.940062506771259 0
-0.29346094800071 -1.97835302006455 0
-0.09813534835812061 -1.997590912424921 0
1 8 0 31
162
163
164
165
166
167
168
169
170
171
172
173
174
175
176
177
178
179
180
181
182
183
184
185
186
187
188
189
190
191
192
0.1960342811046107 -1.990369453300517 0
0.3901806450317374 -1.961570560607652 0
0.5805693560238636 -1.913880671004866 0
0.7653668668039773 -1.847759064163578 0
0.9427934761138778 -1.763842527380806 0
1.11114046883659 -1.662939222735937 0
1.268786571443102 -1.546020904168394 0
1.4142135655995 -1.41421355914669 0
1.5460209092149 -1.268786565293916 0
1.662939226469366 -1.111140463249119 0
1.7638425300906 -0.9427934710442101 0
1.847759065961417 -0.7653668624636114 0
1.913880672002052 -0.5805693527365837 0
1.961570561045776 -0.3901806428291373 0
1.990369453403356 -0.1960342800604678 0
0.09813534888582694 -1.997590912398997 0
0.2934609496405734 -1.978353019821299 0
0.4859603610664635 -1.940062506073491 0
0.673779708593202 -1.883088129718856 0
0.8551101891756177 -1.807978585151948 0
1.028205491048565 -1.71545721840493 0
1.19139861190832 -1.606415060793109 0
1.343117912887155 -1.481902247815845 0
1.481902253622013 -1.343117906481036 0
1.606415065152716 -1.19139860603007 0
1.715457221594858 -1.028205485726491 0
1.80797858739752 -0.8551101844277551 0
1.883088131093016 -0.6737797047526817 0
1.940062506771259 -0.4859603582808149 0
1.97835302006455 -0.29346094800071 0
1.997590912424921 -0.09813534835812061 0
2 1 0 1136
193
194
195
196
197
198
199
200
201
202
203
204
205
206
207
208
209
210
211
212
213
214
215
216
217
218
219
220
221
222
223
224
225
226
227
228
229
230
231
232
233
234
235
236
237
238
239
240
241
242
243
244
245
246
247
248
249
250
251
252
253
254
255
256
257
258
259
260
261
262
263
264
265
266
267
268
269
270
271
272
273
274
275
276
277
278
279
280
281
282
283
284
285
286
287
288
289
290
291
292
293
294
295
296
297
298
299
300
301
302
303
304
305
306
307
308
309
310
311
312
313
314
315
316
317
318
319
320
321
322
323
324
325
326
327
328
329
330
331
332
333
334
335
336
337
338
339
340
341
342
343
344
345
346
347
348
349
350
351
352
353
354
355
356
357
358
359
360
361
362
363
364
365
366
367
368
369
370
371
372
373
374
375
376
377
378
379
380
381
382
383
384
385
386
387
388
389
390
391
392
393
394
395
396
397
398
399
400
401
402
403
404
405
406
407
408
409
410
411
412
413
414
415
416
417
418
419
420
421
422
423
424
425
426
427
428
429
430
431
432
433
434
435
436
437
438
439
440
441
442
443
444
445
446
447
448
449
450
451
452
453
454
455
456
457
458
459
460
461
462
463
464
465
466
467
468
469
470
471
472
473
474
475
476
477
478
479
480
481
482
483
484
485
486
487
488
489
490
491
492
493
494
495
496
497
498
499
500
501
502
503
504
505
506
507
508
509
510
511
512
513
514
515
516
517
518
519
520
521
522
523
524
525
526
527
528
529
530
531
532
533
534
535
536
537
538
539
540
541
542
543
544
545
546
547
548
549
550
551
552
553
554
555
556
557
558
559
560
561
562
563
564
565
566
567
568
569
570
571
572
573
574
575
576
577
578
579
580
581
582
583
584
585
586
587
588
589
590
591
592
593
594
595
596
597
598
599
600
601
602
603
604
605
606
607
608
609
610
611
612
613
614
615
616
617
618
619
620
621
622
623
624
625
626
627
628
629
630
631
632
633
634
635
636
637
638
639
640
641
642
643
644
645
646
647
648
649
650
651
652
653
654
655
656
657
658
659
660
661
662
663
664
665
666
667
668
669
670
671
672
673
674
675
676
677
678
679
680
681
682
683
684
685
686
687
688
689
690
691
692
693
694
695
696
697
698
699
700
701
702
703
704
705
706
707
708
709
710
711
712
713
714
715
716
717
718
719
720
721
722
723
724
725
726
727
728
729
730
731
732
733
734
735
736
737
738
739
740
741
742
743
744
745
746
747
748
749
750
751
752
753
754
755
756
757
758
759
760
761
762
763
764
765
766
767
768
769
770
771
772
773
774
775
776
777
778
779
780
781
782
783
784
785
786
787
788
789
790
791
792
793
794
795
796
797
798
799
800
801
802
803
804
805
806
807
808
809
810
811
812
813
814
815
816
817
818
819
820
821
822
823
824
825
826
827
828
829
830
831
832
833
834
835
836
837
838
839
840
841
842
843
844
845
846
847
848
849
850
851
852
853
854
855
856
857
858
859
860
861
862
863
864
865
866
867
868
869
870
871
872
873
874
875
876
877
878
879
880
881
882
883
884
885
886
887
888
889
890
891
892
893
894
895
896
897
898
899
900
901
902
903
904
905
906
907
908
909
910
911
912
913
914
915
916
917
918
919
920
921
922
923
924
925
926
927
928
929
930
931
932
933
934
935
936
937
938
939
940
941
942
943
944
945
946
947
948
949
950
951
952
953
954
955
956
957
958
959
960
961
962
963
964
965
966
967
968
969
970
971
972
973
974
975
976
977
978
979
980
981
982
983
984
985
986
987
988
989
990
991
992
993
994
995
996
997
998
999
1000
1001
1002
1003
1004
1005
1006
1007
1008
1009
1010
1011
1012
1013
1014
1015
1016
1017
1018
1019
1020
1021
1022
1023
1024
1025
1026
1027
1028
1029
1030
1031
1032
1033
1034
1035
1036
1037
1038
1039
1040
1041
1042
1043
1044
1045
1046
1047
1048
1049
1050
1051
1052
1053
1054
1055
1056
1057
1058
1059
1060
1061
1062
1063
1064
1065
1066
1067
1068
1069
1070
1071
1072
1073
1074
1075
1076
1077
1078
1079
1080
1081
1082
1083
1084
1085
1086
1087
1088
1089
1090
1091
1092
1093
1094
1095
1096
1097
1098
1099
1100
1101
1102
1103
1104
1105
1106
1107
1108
1109
1110
1111
1112
1113
1114
1115
1116
1117
1118
1119
1120
1121
1122
1123
1124
1125
1126
1127
1128
1129
1130
1131
1132
1133
1134
1135
1136
1137
1138
1139
1140
1141
1142
1143
1144
1145
1146
1147
1148
1149
1150
1151
1152
1153
1154
1155
1156
1157
1158
1159
1160
1161
1162
1163
1164
1165
1166
1167
1168
1169
1170
1171
1172
1173
1174
1175
1176
1177
1178
1179
1180
1181
1182
1183
1184
1185
1186
1187
1188
1189
1190
1191
1192
1193
1194
1195
1196
1197
1198
1199
1200
1201
1202
1203
1204
1205
1206
1207
1208
1209
1210
1211
1212
1213
1214
1215
1216
1217
1218
1219
1220
1221
1222
1223
1224
1225
1226
1227
1228
1229
1230
1231
1232
1233
1234
1235
1236
1237
1238
1239
1240
1241
1242
1243
1244
1245
1246
1247
1248
1249
1250
1251
1252
1253
1254
1255
1256
1257
1258
1259
1260
1261
1262
1263
1264
1265
1266
1267
1268
1269
1270
1271
1272
1273
1274
1275
1276
1277
1278
1279
1280
1281
1282
1283
1284
1285
1286
1287
1288
1289
1290
1291
1292
1293
1294
1295
1296
1297
1298
1299
1300
1301
1302
1303
1304
1305
1306
1307
1308
1309
1310
1311
1312
1313
1314
1315
1316
1317
1318
1319
1320
1321
1322
1323
1324
1325
1326
1327
1328
1.32900542080749 -0.07887715482542797 0
-1.348842571174651 -0.0992052653908813 0
-0.4203487185565245 -1.269516915272201 0
1.146114912696567 -0.5303113906853939 0
0.3957101299990615 -1.306778631688954 0
-0.984918617895274 -0.8669647275966207 0
0.3394180051871008 1.252625810962018 0
-1.148899767506063 0.6152593969525496 0
1.127821612101759 0.6435786453921407 0
-0.6507773017512805 1.120300768105104 0
-1.59328208972023 0.3619325615519677 0
0.8028836207069988 1.464124494683062 0
1.608555298570264 0.4706942417515215 0
-0.4696091134179674 1.600831741892848 0
-1.157896081265822 1.123187415456777 0
-0.01520541414330874 1.613676985363274 0
1.131632705312195 1.151665464169779 0
0.8385071148405914 -1.360846031440282 0
0.008656368743798501 -1.633790659263706 0
1.181851363438406 -1.240382692063961 0
-1.55051421899341 -0.6143125382972611 0
0.8157419551628542 -0.985455932488481 0
0.6282615709373615 1.139329060220659 0
-0.3641683925512617 1.246905747600878 0
-0.9186001898209405 -1.342728019307241 0
1.500515280547988 -0.6118185544397231 0
1.621367316403847 -0.2874829993659471 0
-1.641410540963599 -0.2992664082465359 0
-1.27327469676227 0.3164667773349553 0
1.260219935663488 0.3491635805009502 0
0.3722540366792302 1.573914908173374 0
-1.471590450083294 0.7921784926120272 0
1.377972710709248 0.8491955168492843 0
-0.8541778174910758 1.371127085852373 0
-0.6319458407934567 -1.523733757562241 0
-1.409829091216646 -0.8754384419283421 0
0.6531626895538225 -1.622566838087795 0
-0.3431736038025911 -1.61366250998828 0
-0.7607421499161112 -1.063334064582559 0
-1.228872128475607 -0.5665045151723053 0
0.3743444266253329 -1.630474372013324 0
1.257656308273293 -0.921982307786818 0
-1.185658028386248 -1.119569760943534 0
0.003481582918571485 -1.294589296744325 0
-0.9170427411527053 0.8903725109306306 0
-0.00950664690473709 1.278417017991726 0
0.8986995674181227 0.910471978577562 0
1.651915205468901 0.03192687019616654 0
-1.660691193680454 0.005994990112535351 0
1.479336523856248 -0.2168626600749941 0
1.652374118493497 -0.1325970914340089 0
1.501576471951219 0.007948752094550796 0
1.540720786716741 -0.1131955244930283 0
0.9457377869923272 -0.6406448217135461 0
1.016621236057382 -0.4246131979068751 0
0.9295459766577336 -0.5400522837482269 0
0.6238126069445239 -0.9855129342224268 0
0.7855805479606459 -0.8448402965482036 0
0.6483114187256558 -0.8819652675043318 0
0.342254684311415 1.109854961172154 0
0.5343819257687555 1.032329902881127 0
0.489127836260408 1.212943096962564 0
0.4540043987403549 1.114007028044858 0
-0.5459334517927352 1.023414089516286 0
-0.3541114921769026 1.105694232265001 0
-0.5156920200112217 1.199349135077563 0
-0.4696792821869867 1.105538026063793 0
-1.039133885668472 0.5249478355645298 0
-1.226375955606419 0.4726323902920086 0
-1.122586492468095 0.3255870849524719 0
-1.124640443213567 0.440267674847203 0
1.028596567335485 0.540314029988038 0
1.1139059942918 0.342396664896365 0
1.208465984869092 0.5064504923277298 0
1.112787731086708 0.4612913641589356 0
-1.679791492501978 0.7590316927289508 0
-1.560163605564143 0.9707780923333957 0
-1.665003251700326 0.8905804175047846 0
-0.6368271915934093 1.721871803071068 0
-0.405334014785064 1.796997211111465 0
-0.5411897506575193 1.80813410641214 0
0.76922415244484 1.667923487110122 0
0.9852800001413181 1.557314501130451 0
0.8969256918157993 1.661257295235011 0
1.726548440972481 0.6485978440716096 0
1.780797996369063 0.4243991009149034 0
1.806648279185786 0.5476294266437673 0
-1.503429059537425 -0.2339634818545727 0
-1.515233904346254 -0.01870120007069149 0
-1.66587307403786 -0.148913597829211 0
-1.557538158207355 -0.1328881600885215 0
-0.8731161444092509 -0.7791382470494498 0
-0.8812759230403043 -0.9752556403135467 0
-0.7197361253357503 -0.9189414390148487 0
-0.8223015018037891 -0.8866244026514838 0
-0.553416244501686 -1.396125120963763 0
-0.4928571053320731 -1.583682806736961 0
-0.3531142707381192 -1.458696143888918 0
-0.4659256104836558 -1.475443039421296 0
-1.49215706315674 -0.7528232889974128 0
-1.31487074918344 -0.7521234181515444 0
-1.411183899803327 -0.5684116450873188 0
-1.402531813647059 -0.6889268632156904 0
1.343756120534789 -0.5555896029321988 0
1.17664967276478 -0.731246271132917 0
1.411765280557339 -0.7615360369259789 0
1.307910479655245 -0.6846783711775106 0
1.473231017779318 -1.018660354032164 0
1.209957871007021 -1.125649434522311 0
1.276381760912154 -1.310525814294141 0
1.37749694874032 -1.177836186689401 0
-0.3611223263630138 -1.77930209943357 0
0.005738777494382598 -1.811089719678239 0
-0.1741100303117777 -1.626909945845496 0
-0.1810711580185556 -1.802239837620817 0
0.3999584598937785 -1.133943585761332 0
0.001100371904296677 -1.136660465468635 0
0.1986482195490351 -1.300629282887735 0
0.1977239905314755 -1.135569583125405 0
-1.054909681627094 -0.4571753195073288 0
-1.09066783396996 -0.7344904369331536 0
-0.9622156088509568 -0.6309546486036562 0
0.5674975440507952 1.527670407618574 0
0.3547534663989533 1.404427976496744 0
0.7075542684463469 1.276556885320025 0
0.5325896789547011 1.35637690706491 0
-0.6822263506378111 1.477894596542808 0
-0.7474450185485346 1.238198610446483 0
-0.4050883103307946 1.400053329720925 0
-0.5863565879853807 1.33150317178822 0
1.782071590541528 -0.3391008963882174 0
1.817005453240923 0.02286265531687339 0
1.810065486728315 -0.161367274769018 0
-1.286595988099566 0.6946820569686676 0
-1.540059650761855 0.5557535478853532 0
-1.42767244229284 0.3365986672068789 0
-1.370950192058895 0.5175317608729759 0
1.485144682828232 0.6793162291853978 0
1.246316782974909 0.740733712463425 0
1.414561594664279 0.3956961038897204 0
1.340933647837807 0.5793344159034048 0
1.566603410724128 -0.4488992886445116 0
1.664614476800437 -0.6853296598029064 0
1.732536087491907 -0.5137255639011835 0
0.7190125559963443 -1.530160083022178 0
0.6997830603220618 -1.713088391689322 0
0.9874117811306561 -1.521491265960562 0
0.8391625431790702 -1.628933666248456 0
1.574679515495953 -0.852383840274375 0
-1.598528788430416 -0.4574324949440365 0
-1.79312728110847 -0.3451745295665065 0
-1.692456620932199 -0.6845304841311326 0
-1.750063983428174 -0.517181756347617 0
-1.056606335723129 -1.235978757355372 0
-1.294220805333187 -1.262221080848356 0
-1.011342443319335 -1.496001382290954 0
-1.157736651060965 -1.384902842862048 0
-0.6975316970012054 -1.675675747892844 0
-0.5329368390438602 -1.737728829724772 0
-0.774212025374956 -1.440036205619067 0
-0.8567857223764747 -1.593944276700099 0
-1.527470230541722 -0.9903665701324551 0
-1.618705915079652 -0.8423533757482571 0
1.056547431275241 -1.283859621108366 0
1.143539551385873 -1.416865223635791 0
-1.282690890419621 1.261391439132056 0
-1.010779249162046 1.253940640261668 0
-0.9761437983727617 1.511653114876012 0
-1.134561660476364 1.39323996315142 0
1.266254705462053 1.279254695213822 0
1.261079431557439 1.005268898255532 0
1.515422323306935 0.9738257833226638 0
1.397250114823358 1.131636917312668 0
-0.009776551837641336 1.799448779792219 0
0.1797416800558759 1.601906149224351 0
0.3822418573921528 1.759359735508556 0
0.1872032124487218 1.787741121204548 0
-0.2204670253116467 1.610822406017205 0
-0.2115994640890152 1.797474009196671 0
0.9851079454729628 1.294913390172617 0
1.122417238795525 1.420624216802461 0
-1.301409805637135 0.9752147595522872 0
-1.424013874493965 1.115960090492385 0
1.630916741273682 0.2238740511782203 0
1.805126556964141 0.2190561708621536 0
-1.633292556382349 0.1774099369517617 0
-1.3065811794324 0.1353602593564102 0
-1.470336150668017 0.1536050406926477 0
-1.035401074620181 1.000075335293731 0
-0.7838453758005044 1.013424334062346 0
-0.8948833940706475 1.126713430693966 0
-0.1923543976878804 1.269973177902664 0
-0.01477136844495237 1.43973730480027 0
-0.2099589744818641 1.432286708556283 0
0.7643895280509222 1.03400813212515 0
1.009235429938283 1.028273420765461 0
0.8668289368412289 1.161222425034462 0
-0.6138084438209436 -1.152690140084492 0
-0.8324663614414237 -1.200540169569497 0
-0.6896676457627403 -1.297972646945668 0
-0.3914031447236883 -1.071321828288118 0
-0.1941093816006714 -1.28327894617978 0
-0.1966310616478842 -1.119205696855455 0
-1.147163210693359 -0.05089367155257563 0
-1.283126813582884 -0.3292004617055637 0
-1.119443861495306 -0.2593691242415286 0
0.5970240453133679 -1.323305060369833 0
0.8245190485868722 -1.149903322925854 0
0.6108123841817069 -1.146656325761007 0
1.014809803721454 -0.9589958057603961 0
0.9815682043832052 -0.7912498174417459 0
1.134592694610126 -0.0393330805766605 0
1.244005230017678 -0.308477586737635 0
1.096085612580244 -0.2439834492399452 0
-0.8048460260531241 0.7909730800311814 0
-0.669898590385127 0.9134781241020825 0
-0.00468557726905349 1.128576396929146 0
-0.1871632374286999 1.11845695555186 0
0.7955837468633852 0.8011672735108359 0
0.660028342184507 0.9231950963193626 0
-1.041226787695382 0.7543321588379499 0
-0.9275571831975185 0.6541286079290964 0
1.020552629408269 0.7775255936792841 0
0.9176812795746107 0.6660804064908035 0
0.1702519880471793 1.271083897698264 0
0.1767577743120708 1.119768018555011 0
0.006805813108763084 -1.462087677941365 0
0.1936884280596936 -1.634411576332901 0
0.3828481333207194 -1.471412974447419 0
0.1958226647509327 -1.46685173711884 0
0.3768395709333782 -1.790830975084608 0
0.1933046024874114 -1.806723604765435 0
1.294030363829139 0.16251989484695 0
1.130023032421371 0.1641563183167433 0
-1.138368351929821 0.1506703849084001 0
-1.169035640021834 0.8561712722076521 0
0.1726405566472509 1.429913879892647 0
1.134752395874727 0.8883281894139682 0
-1.304402838441169 -0.9970853766330372 0
-1.418172987898263 -1.129919870056386 0
1.461165489784675 0.1956061754026961 0
-0.1816541071565269 -1.455844067627991 0
-1.770189347668429 0.3786074106652319 0
-1.723092408819368 0.5718465338649774 0
0.5778641174443044 1.715311938779165 0
1.623428255124853 0.8064754018120076 0
-0.8060570520997439 1.619572605526094 0
-1.821014602299992 0.006701809718002695 0
-1.804021773260226 0.1898172426353972 0
-1.817290441618591 -0.1709129426783544 0
-1.08406115225831 -0.9860228683474319 0
-1.200011675994665 -0.8634965434242049 0
1.405408099834431 -0.3805924264593105 0
-1.446520195286439 -0.3963373734300785 0
0.5381704785260071 -1.625285609592404 0
0.5478956415706181 -1.762487004746853 0
-0.5690997181578922 -0.9925656624213268 0
-0.9634104476078419 -1.098781270218591 0
0.5619708249381473 -1.484731139801051 0
1.025973957172482 -1.128865332305046 0
1.404170972331869 -0.147869907450211 0
1.510028655286494 -0.1650290922840112 0
1.52114862933398 -0.05262338619923875 0
1.415290946379354 -0.03546420136543859 0
1.462659800832924 -0.1002466468247249 0
1.636870717448672 -0.210040045399978 0
1.596547452605119 -0.1228963079635186 0
1.550351920130047 -0.2521728297204706 0
1.573449686367583 -0.1875345688419946 0
1.57674583871006 0.01993781114535867 0
1.652144661981199 -0.05033511061892118 0
1.586646645657589 -0.05147924840907997 0
0.8805077949445297 -0.5478112576889054 0
0.9730836063575578 -0.482332740827551 0
0.9702503845195076 -0.4036483145682239 0
0.9275024357118155 -0.4768647381553962 0
0.8264222848943297 -0.6738758006451545 0
0.9376418818250305 -0.5903485527308865 0
0.8553261681999023 -0.6123709177088301 0
1.081368074376974 -0.4774622942961345 0
1.045926349844447 -0.58547810619947 0
1.009504978101002 -0.5339054235135104 0
0.6019408265704682 -0.8567174394371573 0
0.7169459833431508 -0.8634027820262677 0
0.746343665378489 -0.7759735380624833 0
0.6756696345086487 -0.8182066170746842 0
0.5032480201721399 -0.9546962331525705 0
0.6360620128350898 -0.9337391008633793 0
0.5537293754379358 -0.9078301822812094 0
0.8006612515617501 -0.9151481145183422 0
0.7197772810536891 -0.9854844333554539 0
0.7183616321984199 -0.9244436076908609 0
0.3408363447492579 1.181240386067086 0
0.398129541525885 1.111930994608506 0
0.4715661175003815 1.163475062503711 0
0.4142729207237544 1.232784453962291 0
0.4062012311248197 1.172357724285399 0
0.4585326784991641 0.97810471793138 0
0.4941931622545552 1.073168465462992 0
0.3624690577704939 1.016867247076894 0
0.4283311100125246 1.045017856269943 0
0.5586947035988847 1.176136078591612 0
0.5813217483530585 1.085829481550893 0
0.52644393292672 1.124652272027302 0
-0.5983553767720078 1.071857428810695 0
-0.5078063669898609 1.06447605779004 0
-0.4926856510991042 1.152443580570678 0
-0.5832346608812511 1.159824951591334 0
-0.545520513935556 1.112150504690687 0
-0.3683974627883292 1.014786882173858 0
-0.4118953871819447 1.105616129164397 0
-0.4643084425962455 0.9736468107995002 0
-0.4381019148890951 1.039631469981949 0
-0.4399302062812417 1.22312744133922 0
-0.3591399423640822 1.176299989932939 0
-0.4259127967315932 1.164371785251809 0
-0.9815067093250529 0.4538156333970513 0
-1.08188716444102 0.4826077552058664 0
-1.123613467840831 0.3829273798998375 0
-1.023233012724864 0.3541352580910223 0
-1.052560088582942 0.4183715066484444 0
-1.187637861556241 0.5439458936222791 0
-1.175508199409993 0.4564500325696058 0
-1.094016826587268 0.5701036162585398 0
-1.13476251299863 0.5132768244140729 0
-1.197930594615183 0.3210269311437136 0
-1.249825326184344 0.3945495838134819 0
-1.186719397012588 0.3887384818566597 0
1.078209089718622 0.5919463376900893 0
1.070692149211097 0.5008026970734868 0
1.1606268579779 0.4838709282433327 0
1.168143798485426 0.5750145688599353 0
1.119417973848261 0.5379086329667111 0
1.018892763187257 0.3625400491480604 0
1.113346862689254 0.4018440145276503 0
0.9762380497090994 0.4614987316938969 0
1.044792456199177 0.4316713731107736 0
1.23434296026629 0.42780703641434 0
1.187062964977645 0.3457801226986576 0
1.173844911477772 0.4148255254709951 0
-1.714422890895463 0.9166869442744974 0
-1.612583428632234 0.9306792549190901 0
-1.611551416016754 1.040959277791258 0
-1.664020325113547 0.9794423703227907 0
-1.763775279231697 0.7621992775962811 0
-1.672397372101152 0.8248060551168677 0
-1.740187979749336 0.8399581197723114 0
-1.515877027823718 0.8814782924727115 0
-1.575690971292636 0.7756050926704889 0
-1.594137199962435 0.8531421737947895 0
-0.5608795533406914 1.861007388708503 0
-0.4732618827212917 1.802565658761803 0
-0.3977573299084007 1.879283885859559 0
-0.4796111218938776 1.871314082417647 0
-0.7010970291986933 1.784815433617323 0
-0.5890084711254643 1.765002954741604 0
-0.6313940898593331 1.82404554223023 0
-0.4374715641015157 1.698914476502157 0
-0.5532181525056883 1.661351772481958 0
-0.5132400176134899 1.731958715621881 0
0.9198595814300047 1.712549912662806 0
0.9411028459785586 1.609285898182731 0
1.048210231695219 1.610126863799908 0
0.984654165852525 1.662371559888795 0
0.7672955074542257 1.757841276535769 0
0.8330749221303196 1.664590391172566 0
0.8440925532790373 1.736284489285043 0
0.8940818104241585 1.510719497906757 0
0.7860538865759195 1.566023990896592 0
0.8635783662772389 1.587654944539662 0
1.860264475095326 0.5640993913338155 0
1.793723137777424 0.4860142637793354 0
1.871184278488357 0.4072898729733204 0
1.866892821925457 0.4859873124228995 0
1.787153752568029 0.7069823554377934 0
1.766598360079133 0.5981136353576885 0
1.824843244898994 0.6359466719754452 0
1.694676647469663 0.4475466713332125 0
1.667551869771372 0.5596460429115655 0
1.730637503774398 0.5228301533454505 0
-1.572419800250512 -0.2666149450505543 0
-1.53048360887239 -0.1834258209715471 0
-1.611705616122607 -0.1409008789588663 0
-1.65364180750073 -0.2240900030378735 0
-1.59206270818656 -0.2037579120047103 0
-1.432038237760453 -0.05895323273078639 0
-1.536386031276805 -0.07579468007960648 0
-1.426135815356038 -0.166584373622727 0
-1.481260923316421 -0.1211895268511667 0
-1.663282133859157 -0.07145930385833785 0
-1.587962549013354 -0.006353104979078067 0
-1.599834082567981 -0.07362699196897217 0
-0.790111461993007 -0.7431225149228909 0
-0.84770882310652 -0.8328813248504667 0
-0.7710188135697698 -0.9027829208331662 0
-0.7134214524562565 -0.8130241109055905 0
-0.7805651377813883 -0.8229527178780286 0
-0.9330972704677891 -0.9211101839550837 0
-0.8517887124220467 -0.9309400214825152 0
-0.9290173811522624 -0.8230514873230352 0
-0.8904030467871545 -0.8769957544027751 0
-0.7402391376259307 -0.9911377517987037 0
-0.8210090364782078 -1.019294852448053 0
-0.7960139250239888 -0.9610388866406094 0
-0.4868824815291053 -1.332821018117982 0
-0.509670927492671 -1.435784080192529 0
-0.4095199406108875 -1.467069591655107 0
-0.3867314946473219 -1.364106529580559 0
-0.4482012110699964 -1.399945304886545 0
-0.5624014730627649 -1.553708282149601 0
-0.4793913579078645 -1.529562923079129 0
-0.5926810426475714 -1.459929439263002 0
-0.5360362002777179 -1.494746181171065 0
-0.3481439372703552 -1.536179326938599 0
-0.4180153545673321 -1.59867265836262 0
-0.4137676475891099 -1.532871125008864 0
-1.521335641075075 -0.6835679136473369 0
-1.4473444384019 -0.7208750761065517 0
-1.406857856725193 -0.6286692541515047 0
-1.480849059398368 -0.5913620916922899 0
-1.464096748900134 -0.6561185838994208 0
-1.362349920200043 -0.8137809300399432 0
-1.35870128141525 -0.7205251406836174 0
-1.450993077186693 -0.8141308654628774 0
-1.404847179300971 -0.7673280030732474 0
-1.320028014139467 -0.567458080129812 0
-1.271871438829524 -0.6593139666619248 0
-1.339364647777358 -0.6439916104067147 0
1.422135700541388 -0.583704078685961 0
1.325833300095017 -0.6201339870548548 0
1.359837880106292 -0.7231072040517448 0
1.456140280552664 -0.6866772956828511 0
1.39098679032384 -0.6534056413688529 0
1.161382292730673 -0.6307788309091554 0
1.242280076210013 -0.7079623211552137 0
1.244935516615678 -0.5429504968087964 0
1.243607796412845 -0.6254564089820052 0
1.334710794415316 -0.8417591723563984 0
1.217152990519037 -0.8266142894598675 0
1.288495435312664 -0.7748607467558062 0
1.46175892897761 -1.223311375991659 0
1.326939354826237 -1.244181000491771 0
1.345297663255827 -1.362369686720415 0
1.404420804224125 -1.293649453486403 0
1.568085122124342 -1.064900408640642 0
1.425363983259819 -1.098248270360783 0
1.515889524206268 -1.144823438195426 0
1.233807089640157 -1.023815871154565 0
1.293727409873671 -1.151742810605856 0
1.365443663026306 -0.9703213309094909 0
1.329585536449988 -1.061032070757673 0
1.22911656217528 -1.275454253179051 0
1.195904617222714 -1.183016063293136 0
1.261421986024476 -1.213598531892454 0
-0.3521479650828024 -1.696482304710925 0
-0.2710967421907847 -1.790770968527194 0
-0.1775905941651666 -1.714574891733156 0
-0.2586418170571844 -1.620286227916888 0
-0.2648692796239845 -1.705528598222041 0
-0.1885527190395117 -1.896304645512087 0
-0.3756514845960756 -1.870436330239673 0
-0.2822788450957474 -1.884561994295872 0
0.002869388747191299 -1.90554485983912 0
-0.08766619026208647 -1.806664778649528 0
-0.09290076931010355 -1.902127845537225 0
-0.08272683078398957 -1.630350302554601 0
0.00719757311909055 -1.722440189470973 0
-0.08519651052303802 -1.718507540602065 0
0.39783429494642 -1.220361108725143 0
0.298841225212627 -1.134756584443369 0
0.1981861050402553 -1.21809943300657 0
0.2971791747740483 -1.303703957288345 0
0.2980101999933377 -1.219230270865857 0
0.1964071565230795 -1.058177431714733 0
0.3913209466467671 -1.028911558922023 0
0.2945629516120459 -1.045848459972972 0
0.0005501859521483384 -1.068330232734318 0
0.0994121812178861 -1.13611502429702 0
0.09871466087610237 -1.065649875474525 0
0.1010649012338033 -1.29760928981603 0
0.002290977411434081 -1.21562488110648 0
0.1002385412258447 -1.216862157056525 0
-0.9176658766301038 -0.705046447826553 0
-1.026441721410458 -0.6827225427684049 0
-1.037793225932617 -0.8007275822648872 0
-0.9777295512813603 -0.7528870150457201 0
-0.8968426101104698 -0.5932624415094684 0
-0.8453381643766024 -0.6697198667503498 0
-0.9893946068549038 -0.4199293764535423 0
-1.008562645239025 -0.5440649840554925 0
-0.9452419544690324 -0.5077308610481372 0
-1.159769981222783 -0.6504974760527295 0
-1.14189090505135 -0.511839917339817 0
-1.084166313230904 -0.5972812300541109 0
0.6851905823788971 1.495897451150818 0
0.5500436115027482 1.442023657341742 0
0.620071973700524 1.316466896192467 0
0.7552189445766728 1.370340690001544 0
0.6526312780397105 1.406182173671643 0
0.3635037515390918 1.489171442335059 0
0.4436715726768272 1.380402441780827 0
0.4698757903650127 1.550792657895974 0
0.45677368152092 1.4655975498384 0
0.5108587576075545 1.284660002013737 0
0.347085735793027 1.328526893729381 0
0.4289722467002908 1.306593447871559 0
0.6679079196918543 1.207942972770342 0
0.5893833386497044 1.246301487392039 0
-0.5759177320278892 1.539363169217828 0
-0.634291469311596 1.404698884165514 0
-0.4957224491580877 1.365778250754572 0
-0.437348711874381 1.500442535806886 0
-0.5358200905929885 1.4525707099862 0
-0.8008114180198052 1.304662848149428 0
-0.6669008032669577 1.284850891117351 0
-0.7682020840644435 1.42451084119759 0
-0.7175514436657006 1.354680866157471 0
-0.5510243039983012 1.265426153432891 0
-0.6991111601499076 1.179249689275793 0
-0.6250677320741044 1.222337921354342 0
-0.3846283514410281 1.323479538660901 0
-0.4678263277196646 1.294452846046896 0
1.701719453472688 -0.3132919478770823 0
1.796068538634922 -0.2502340855786177 0
1.731219802610906 -0.1469821831015135 0
1.716469628041797 -0.2301370654892979 0
1.900217470065836 -0.1787007774147429 0
1.871821075793652 -0.3646407696086774 0
1.887210779349736 -0.2718475167896638 0
1.908502726620461 0.0114313276584367 0
1.813535469984619 -0.0692523097260723 0
1.90556319120477 -0.08369382904209646 0
1.734460329354912 0.02739476275651997 0
1.732840065982909 -0.05979371017249674 0
-1.217747877802815 0.6549707269606087 0
-1.32877309007923 0.6061069089208218 0
-1.298663073832657 0.4950820755824923 0
-1.258205475817736 0.5750264012715505 0
-1.505825050422575 0.6739660202486902 0
-1.455504921410375 0.5366426543791646 0
-1.37909321909143 0.7434302747903474 0
-1.417299070250903 0.6400364645847559 0
-1.510477266006535 0.3492656143794233 0
-1.399311317175867 0.4270652140399274 0
-1.566670870241043 0.4588430547186605 0
-1.482991093708455 0.4429541343792939 0
-1.350473569527555 0.3265327222709171 0
-1.324568321680106 0.4108073989267047 0
1.546849990699248 0.5750052354684596 0
1.413039165333019 0.6293253225444013 0
1.377747621251043 0.4875152598965626 0
1.511558446617272 0.4331951728206209 0
1.462298805975145 0.5312602476825111 0
1.312144746842079 0.7949646146563547 0
1.293625215406358 0.6600340641834149 0
1.43155869676874 0.764255873017341 0
1.362591956087549 0.712144968600378 0
1.274699816353449 0.5428924541155673 0
1.187069197538334 0.6921561789277828 0
1.230884506945892 0.6175243165216751 0
1.337390765163884 0.3724298421953353 0
1.306045290758667 0.4576611481554513 0
1.823208379746979 -0.5471474583188836 0
1.698575282146172 -0.599527611852045 0
1.756186771380927 -0.7253482611332589 0
1.790831706619594 -0.6366536583023633 0
1.757303839016718 -0.4264132301447005 0
1.848683172893988 -0.4561867942127577 0
1.593985363563988 -0.3681911440052293 0
1.649569749108018 -0.4813124262728475 0
1.675644601290353 -0.3973021870749649 0
1.582564878674213 -0.6485741071213147 0
1.533559345636058 -0.5303589215421174 0
1.616067313891115 -0.5649432666970811 0
0.7787598354184678 -1.44550305723123 0
0.7790875495877072 -1.579546874635317 0
0.9132871621548632 -1.575212466104509 0
0.9129594479856238 -1.441168648700422 0
0.8460234987866655 -1.510357761667869 0
0.6764728749379422 -1.667827614888559 0
0.7694728017505661 -1.671011028968889 0
0.6860876227750834 -1.576363460554986 0
0.7277802122628247 -1.623687244761938 0
0.890978009646474 -1.696388096814631 0
0.7325749635630195 -1.780423727926451 0
0.8122914954630919 -1.739494807060419 0
1.049276124983623 -1.59221524434825 0
0.9707463266017143 -1.645334842254719 0
1.619646996148195 -0.7688567500386407 0
1.669261022793276 -0.8975886556592925 0
1.713812791772857 -0.8119834672331979 0
1.493222398026646 -0.8069599386001769 0
1.537893638350429 -0.7277670228607458 0
1.523955266637635 -0.9355220971532694 0
1.429333030526476 -0.8886406347548339 0
1.619706244116247 -0.9818637914398802 0
-1.574521503711913 -0.5358725166206488 0
-1.674296385929295 -0.4873071256458268 0
-1.721260302180187 -0.6008561202393747 0
-1.621485419962805 -0.6494215112141968 0
-1.64789090294605 -0.5683643184300118 0
-1.717268911036035 -0.3222204689065212 0
-1.771595632268322 -0.4311781429570617 0
-1.619969664697007 -0.3783494515952862 0
-1.695782648482665 -0.404763797276174 0
-1.83197232721652 -0.5488755561857404 0
-1.877348920858061 -0.367677587299122 0
-1.855829069170907 -0.4585692520117627 0
-1.770107842547889 -0.7249486754675549 0
-1.802174215949521 -0.6373179144162885 0
-0.9876032627720348 -1.289353388331306 0
-1.107171493392047 -1.31044080010871 0
-1.08453954719015 -1.440452112576501 0
-0.9649713165701375 -1.419364700799097 0
-1.036071404981092 -1.364902750453904 0
-1.239939416859718 -1.190895420895945 0
-1.225978728197076 -1.323561961855202 0
-1.121132182054688 -1.177774259149453 0
-1.173555455125882 -1.250668110502327 0
-1.213261608177441 -1.465461876038474 0
-1.354217182239938 -1.338217323223928 0
-1.284548317339056 -1.402732107738607 0
-1.061241453284227 -1.57947030438016 0
-1.13796907661011 -1.523433588864609 0
-0.556753095890222 -1.825804750863412 0
-0.6152342680225329 -1.706702288808808 0
-0.7314492797324084 -1.761717406927131 0
-0.6445069863876073 -1.794895209950913 0
-0.447029582703437 -1.758515464579171 0
-0.466494970492126 -1.849288985675215 0
-0.5128969721879666 -1.660705818230866 0
-0.4325224686353845 -1.678594061470896 0
-0.6647387688973311 -1.599704752727543 0
-0.5888178705426488 -1.630205285479205 0
-0.8997895967103424 -1.67889340339535 0
-0.9340640828479045 -1.544972829495527 0
-0.9811347842871979 -1.630215025545192 0
-0.77715870968884 -1.634810012296472 0
-0.8161344470582976 -1.721394299846996 0
-0.7030789330842064 -1.481884981590654 0
-0.8154988738757154 -1.516990241159583 0
-0.7401188213865233 -1.558347496943563 0
-0.8464061075979483 -1.391382112463154 0
-0.8902350952229265 -1.46817747097934 0
-1.691274221230229 -0.8925734259310674 0
-1.655581268005926 -0.7634419299396948 0
-1.731779926578937 -0.8092760595576562 0
-1.59520472663883 -1.050753519484522 0
-1.573088072810687 -0.9163599729403561 0
-1.644272645607809 -0.9722827319944607 0
-1.555431489118196 -0.797588332372835 0
-1.468649660879184 -0.9329025060303986 0
-1.51204057499869 -0.8652454192016168 0
-1.5884584545405 -0.7235049217935159 0
1.206163061414487 -1.481443063902093 0
1.065475666258265 -1.469178244798176 0
1.128437139083292 -1.537796652795643 0
1.209960656149013 -1.363695518964966 0
1.276539284518084 -1.422798883390405 0
1.119199397356824 -1.262121156586164 0
1.100043491330557 -1.350362422372079 0
1.164580026752919 -1.312908337775565 0
0.9475272730579164 -1.322352826274324 0
1.00650146965809 -1.39576553553625 0
-1.201674115959733 1.469630433659907 0
-1.055352729424563 1.452446539013716 0
-1.043642133604676 1.587296168805975 0
-1.123375670666442 1.529430799903413 0
-1.348452228009561 1.337802499139373 0
-1.208626275447993 1.327315701141738 0
-1.275872094167574 1.404608974478792 0
-1.084337665213934 1.188564027859222 0
-1.072670454819205 1.323590301706544 0
-1.220293485842721 1.192289427294417 0
-1.146481970330963 1.25793986450048 0
-0.9151608079319187 1.441390100364192 0
-0.9324785333265606 1.31253386305702 0
-0.9939156313755618 1.382490201035368 0
1.471635509495876 1.200211744377885 0
1.456336219065147 1.052731350317666 0
1.589180773021436 1.042483126079627 0
1.531375639929128 1.122064981112993 0
1.340234132304371 1.346734130406661 0
1.331752410142706 1.205445806263245 0
1.406827328979275 1.2742818595752 0
1.196356068434817 1.078467181212655 0
1.329164773190399 1.0684529077841 0
1.198943705387124 1.2154600796918 0
1.264054239288761 1.14195649373795 0
1.446697517008092 0.911510650085974 0
1.319526071133344 0.927232207552408 0
1.387931145099246 0.9899817789350369 0
0.1916187462545948 1.889055287303952 0
0.2847225349204373 1.773550428356552 0
0.3862112501106451 1.860465148277166 0
0.2890917414605737 1.875951724210551 0
-0.004888275918820668 1.89972438989611 0
0.08871333030554025 1.793594950498384 0
0.09342433933183043 1.895592931461652 0
0.08226813295628356 1.607791567293813 0
0.1834724462522989 1.694823635214449 0
-0.01249098299047504 1.706562882577747 0
0.08549073163091189 1.700693258896098 0
0.3772479470356915 1.666637321840965 0
0.2759978583675531 1.587910528698862 0
0.2803601966439952 1.680730478527707 0
-0.1106880079633283 1.798461394494445 0
-0.2160332447003309 1.704148207606938 0
-0.1178362197274777 1.61224969569024 0
-0.114262113845403 1.705355545092343 0
-0.203816872596813 1.893921731248594 0
-0.1044116784245776 1.898026153446721 0
-0.3084667394370396 1.797235610154068 0
-0.3009638445388065 1.887794314987683 0
-0.345038069364807 1.605827073955027 0
-0.3267524044009233 1.701531342054547 0
1.194335972128789 1.349939456008141 0
1.053762592134244 1.357768803487539 0
1.058370325392579 1.223289427171198 0
1.126353148760684 1.28661444158967 0
1.195601902044721 1.483322563008681 0
1.268726939304912 1.415920854815077 0
1.053848619468422 1.488969358966456 0
1.122623612749246 1.547692212059586 0
0.8939957830899807 1.379518942427839 0
0.973922201279201 1.434244150697148 0
-1.353352382456793 1.188675764812221 0
-1.36271184006555 1.045587425022336 0
-1.229652943451478 1.049201087504532 0
-1.291502662954136 1.118938426158377 0
-1.485017391854432 1.192373327893151 0
-1.417627318039403 1.265896835646628 0
-1.492088740029054 1.04336909141289 0
-1.549251902590885 1.11738384872148 0
-1.386500127860214 0.8836966260821573 0
-1.439294433944634 0.9635328587475238 0
1.792962276666602 0.3217276358885285 0
1.897748005132329 0.2075452259833822 0
1.88565764824395 0.3075942927645509 0
1.619736019921973 0.3472841464648709 0
1.718021649118911 0.221465111020187 0
1.706349148294287 0.3345058911766997 0
1.811066005102532 0.1209594130895135 0
1.641415973371291 0.1279004606871934 0
1.726240989236912 0.1244299368883535 0
1.904328458750765 0.1095473809876702 0
-1.449004296480428 0.2451018539497633 0
-1.388458665050209 0.144482650024529 0
-1.289927938097335 0.2259135183456827 0
-1.369466117288882 0.235507686147723 0
-1.61328732305129 0.2696712492518647 0
-1.551814353525183 0.1655074888222047 0
-1.531145809765859 0.257386551600814 0
-1.492785027507136 0.0674519203109781 0
-1.646991875031401 0.09170246353214853 0
-1.569888451269269 0.07957719192156332 0
-1.327711875303526 0.01807749698276447 0
-1.410248451405331 0.04276470864687129 0
-1.096648577943002 1.061631375375254 0
-0.9651422343454144 1.063394382993849 0
-0.9528313216163465 1.190327035477817 0
-1.024739949779674 1.125979205426536 0
-0.8504440584766049 0.9518984224964883 0
-0.839364384935576 1.070068882378156 0
-0.9762219078864433 0.9452239231121811 0
-0.9077931464110096 1.007646402745169 0
-0.8211642063095911 1.182456020570225 0
-0.7173113387758925 1.066862551083725 0
-0.7692377725427417 1.124659285826975 0
-0.8768213698180758 1.247494941813623 0
-0.278261395119571 1.258439462751771 0
-0.2011566860848723 1.351129943229473 0
-0.3075236424063293 1.416170019138604 0
-0.2928925187629502 1.337304740945187 0
-0.01213900767484473 1.359077161395998 0
-0.1123651714634083 1.436012006678276 0
-0.1009305222963088 1.274195097947195 0
-0.1066478468798585 1.355103552312735 0
-0.2152129998967554 1.521554557286744 0
-0.01498839129413056 1.526707145081772 0
-0.115100695595443 1.524130851184258 0
-0.3262808558855682 1.510998546546815 0
0.6963255494941418 1.086668596172905 0
0.8156092324460755 1.097615278579806 0
0.787191602643788 1.218889655177243 0
0.7417585760689649 1.152779125675074 0
0.953967498678203 0.9693726996715117 0
0.938032183389756 1.094747922899961 0
0.8315445477345225 0.9722400553513562 0
0.8847883655621392 1.033493989125659 0
0.9259684411570959 1.228067907603539 0
1.070434067625239 1.08996944246762 0
0.9982012543911674 1.15901867503558 0
0.8405936928668843 1.299204298802541 0
-0.7319398355688482 -1.369004426282368 0
-0.761067003602082 -1.249256408257583 0
-0.8755332756311821 -1.271634094438369 0
-0.8037365556000152 -1.320319260360368 0
-0.6215419451322132 -1.347048883954715 0
-0.6623104391082099 -1.414466932772685 0
-0.5170785811887341 -1.211103527678346 0
-0.6517380447918419 -1.22533139351508 0
-0.5693102631604736 -1.279076205816531 0
-0.7966042556787675 -1.131937117076028 0
-0.6872752968685274 -1.108012102333525 0
-0.7241711502353047 -1.178634255295554 0
-0.1958606915306338 -1.049995488689289 0
-0.09776534487179378 -1.127933081162045 0
-0.0978912424996766 -1.061558903927069 0
-0.3870432879766305 -0.9976006806348756 0
-0.2940171031857863 -1.095263762571786 0
-0.2921508898140104 -1.026102049275191 0
-0.3072290500785979 -1.27639793072599 0
-0.1953702216242778 -1.201242321517617 0
-0.4058759316401064 -1.170419371780159 0
-0.3006230766321921 -1.185830846648888 0
-0.09531389934104995 -1.288934121462052 0
-0.09653962210642186 -1.208433601312048 0
-1.050114570899684 -0.227229723378106 0
-1.0871767715612 -0.3582722218744288 0
-1.022058553531887 -0.3242784499429467 0
-1.07358160534668 -0.02544683577628781 0
-1.133303536094332 -0.1551313978970521 0
-1.064244131373181 -0.1265742692156854 0
-1.315984692378767 -0.2142028635482225 0
-1.201285337539095 -0.2942847929735461 0
-1.248002890934005 -0.07504946847172847 0
-1.22464411423655 -0.1846671307226373 0
-1.255999471029245 -0.4478524884389345 0
-1.171588121295223 -0.4030623551566817 0
0.4963670876562147 -1.315041846029393 0
0.6039182147475375 -1.23498069306542 0
0.5053854220377427 -1.140299955761169 0
0.5008762548469787 -1.227670900895282 0
0.8315130817137317 -1.255374677183068 0
0.7176657163842896 -1.148279824343431 0
0.7177655800769797 -1.342075545905058 0
0.7177156482306346 -1.245177685124244 0
0.6173124955631154 -1.066084629991717 0
0.8201305018748632 -1.067679627707167 0
0.7187214987189893 -1.066882128849442 0
0.5043167211049413 -1.04749809445687 0
0.9152758794421539 -0.9722258691244385 0
0.9981890040523295 -0.875122811601071 0
0.8835743761719256 -0.8180450569949748 0
0.8994251278070398 -0.8951354630597066 0
1.079108938573993 -0.7612480442873315 0
1.136233055997373 -0.9404890567736071 0
1.107670997285683 -0.8508685505304694 0
0.9636529956877662 -0.715947319577646 0
1.06251764420922 -0.6733630752434008 0
0.8549983305331277 -0.7459604288200646 0
1.231799057708808 -0.05910511770104424 0
1.115339153595185 -0.1416582649083029 0
1.170045421298961 -0.2762305179887901 0
1.286505325412584 -0.1936773707815315 0
1.200922239503885 -0.1676678178449171 0
1.038435446551684 -0.2195368853266643 0
1.067296347305063 -0.01966654028833025 0
1.055261940143639 -0.1198377025179311 0
1.056353424318813 -0.3342983235734102 0
1.006646880148704 -0.3122915000078222 0
1.195060071357122 -0.4193944887115144 0
1.125706747837968 -0.3768464061424622 0
-0.6127344124002038 0.8724738677360326 0
-0.7373723082191255 0.8522256020666319 0
-0.7559764044247281 0.7490399298039722 0
-0.6858827969466361 0.8126180270948664 0
-0.6079160210889312 0.9684461068091845 0
-0.5396563795648565 0.925183685254112 0
-0.7268719830928156 0.9634512290822141 0
-0.6626136799324117 1.017654328946455 0
-0.8609443836029147 0.840672795480906 0
-0.7939081833478652 0.90206201228156 0
-0.2706373648028013 1.11207559390843 0
-0.1897588175582902 1.194215066727262 0
-0.2744493799611861 1.185257528330101 0
-0.1911267799716917 1.049621117927961 0
-0.280461021407133 1.034507964705503 0
-0.002342788634526745 1.064288198464573 0
-0.09592440734887668 1.123516676240503 0
-0.09697077394159767 1.059350701446266 0
-0.007096112086895289 1.203496707460436 0
-0.09842746482259271 1.198855887093849 0
0.5972051339766313 0.9777624996002447 0
0.7122089351177145 0.9786016142222564 0
0.6467653417353865 1.032215547886575 0
0.6077992869070454 0.8773323547753442 0
0.5343009347299363 0.9298418823331589 0
0.7513452632200741 0.754137028153584 0
0.727806044523946 0.8621811849150993 0
0.68109966360536 0.8175958197449367 0
0.847141657140754 0.855819626044199 0
0.7796752961292343 0.9172106201332277 0
-0.8662016046253213 0.7225508439801389 0
-0.8795133982144221 0.6048494197793401 0
-0.8196060296000477 0.6784720633334564 0
-0.9791347644240439 0.8223523348842903 0
-0.9843919854464505 0.7042303833835232 0
-0.9226681845246826 0.7724515894322146 0
-0.9833455344329954 0.5895382217468131 0
-1.095063277600723 0.6847957778952498 0
-1.039204406016859 0.6371669998210315 0
-0.9326333997495343 0.5304674786150273 0
1.074187120755014 0.7105521195357124 0
0.96911695449144 0.7218030000850437 0
0.9731389234550476 0.6031972182394207 0
1.023663022105031 0.6568746688875664 0
0.8566325132189979 0.7336238400008197 0
0.9596260984131959 0.8439987861284231 0
0.9081293058160971 0.7888113130646213 0
0.8745754454722967 0.6108253204530421 0
0.8148214826710494 0.6840085628374831 0
0.9275300935770435 0.5372969781401014 0
0.25483499661714 1.261854854330141 0
0.1735048811796251 1.195425958126637 0
0.2595062293117429 1.114811489863582 0
0.2571706129644415 1.188333172096862 0
0.08603609852150866 1.124172207742078 0
0.08037267057122112 1.274750457844995 0
0.08320438454636489 1.199461332793537 0
0.185924047862727 1.050276649539067 0
0.09202661932453404 1.059678467217085 0
0.2748954528769887 1.035875912921089 0
0.005143698013667285 -1.378338487342845 0
0.1013142389298479 -1.464469707530102 0
0.1972354421499839 -1.383740510003288 0
0.1011895700818256 -1.381039498673066 0
0.1011723984017461 -1.634101117798304 0
0.1947555464053131 -1.55063165672587 0
0.007731090926280793 -1.547939168602535 0
0.101243318665797 -1.549285412664203 0
0.3785962799730261 -1.550943673230371 0
0.289335399035826 -1.469132355783129 0
0.2840164273425133 -1.632442974173113 0
0.2866759131891696 -1.550787664978121 0
0.3892791316598905 -1.389095803068186 0
0.2932572869049371 -1.386418156535737 0
0.194669441796011 -1.898546529032976 0
0.09952168999089697 -1.808906662221837 0
0.09882851943836195 -1.903248787310417 0
0.3835101079825578 -1.87620076784613 0
0.2850720867103947 -1.798777289925021 0
0.2892665181754841 -1.88856515487316 0
0.1934965152735525 -1.720567590549168 0
0.3755919987793556 -1.710652673548966 0
0.284544257026454 -1.715610132049067 0
0.1003470441963215 -1.721503890010071 0
1.121964513356586 0.2532764916065541 0
1.212026698125255 0.1633381065818466 0
1.277125149746314 0.2558417376739501 0
1.19954483155145 0.2545591146402521 0
1.055404156362716 0.1796233204157134 0
1.03945242442958 0.2717805848090095 0
1.132307863515749 0.06241161887004139 0
1.063746295083889 0.08021437970218001 0
1.311517892318315 0.04182137001076099 0
1.221912877917032 0.05211649444040119 0
-1.059576816226472 0.1728803531608917 0
-1.14276578131159 0.04988835667791224 0
-1.068975254001841 0.07395274840273583 0
-1.130477422198958 0.238128734930436 0
-1.043708879088777 0.2642067056863352 0
-1.222474765681111 0.1430153221324051 0
-1.210202680148147 0.2320211266380594 0
-1.235238828307558 0.03398292683033835 0
-1.2278158140607 0.7754266645881598 0
-1.235222722829485 0.9156930158799697 0
-1.307157970960457 0.8295616453351585 0
-1.105131213858608 0.8052517155228009 0
-1.161439545830711 0.7301112212417047 0
-1.102218357321008 0.9281233037506917 0
-1.040676560872526 0.875237819317491 0
-1.165935650386243 0.9886621956276118 0
0.1714462723472152 1.350498888795455 0
0.07893459410114929 1.434825592346458 0
0.07965363233618522 1.354788025095727 0
0.2636970115231021 1.417170928194695 0
0.259266004070121 1.339512891262418 0
0.1761911183515634 1.515910014558499 0
0.2698474349453276 1.502540728446779 0
0.08060136352871644 1.521308579820135 0
1.077652512641498 0.8329268915466261 0
1.071993912906505 0.9583008050897148 0
1.01581000565985 0.901149795609069 0
1.190534589424818 0.8145309509386967 0
1.132360855089916 0.7625415352372045 0
1.197915913716083 0.9467985438347499 0
1.255030330279081 0.8708815792455524 0
1.134174990670661 1.018383993151185 0
-1.482096946033328 -1.199353220749744 0
-1.472821609219992 -1.06014322009442 0
-1.539618335006551 -1.12577091600137 0
-1.356196896615725 -1.196070475452371 0
-1.419049572215785 -1.269594194169763 0
-1.245030433413708 -1.058327568788285 0
-1.361287913169716 -1.063502623344711 0
-1.300613665014717 -1.127199022120328 0
-1.357115964828907 -0.9362619092806896 0
-1.41496878702445 -0.998202564687555 0
1.546041115529178 0.2097401132904582 0
1.481370980867947 0.1017774637486234 0
1.561393477119619 0.1148389622179084 0
1.437863542224477 0.2956511396462083 0
1.528799781073225 0.3214676430555397 0
1.377597926806907 0.179063035124823 0
1.357494345985395 0.2757464386600792 0
1.396444436593131 0.07179941687969221 0
-0.1778820687341522 -1.541377006736743 0
-0.2673841889473231 -1.457270105758454 0
-0.2630130030022537 -1.538778166837671 0
-0.08742414702388188 -1.458965872784678 0
-0.08507548890393571 -1.54465808766964 0
-0.1878817443785991 -1.369561506903885 0
-0.09136902318246591 -1.373949997123365 0
-0.2873066195129605 -1.366834018242222 0
-1.81848654041071 0.5762079433007805 0
-1.701441950660673 0.6654391132969641 0
-1.792265040876845 0.6696094090248229 0
-1.865879954357102 0.3843940267471846 0
-1.746640878243898 0.4752269722651047 0
-1.843351692507579 0.4805936652729598 0
-1.631576029790612 0.5638000408751653 0
-1.68173571869433 0.3702699861085998 0
-1.656655874242471 0.4670350134918826 0
-1.603633500541624 0.6697025667728271 0
0.579216735090444 1.814596305390608 0
0.6735441349445722 1.691617712944643 0
0.6736619198486269 1.78735292201883 0
0.4800529874182286 1.73733583714386 0
0.4830066728495217 1.83869917195756 0
0.5726808307475498 1.621491173198869 0
0.4749643888916207 1.644064247519917 0
0.6793673586617347 1.593757582047731 0
1.69363539125283 0.8746344389629427 0
1.674988348048667 0.7275366229418085 0
1.741483466600307 0.7913234060587131 0
1.569425289215894 0.8901505925673356 0
1.642441253810412 0.9591780418079505 0
1.554286468976543 0.7428958154987026 0
1.500491992992317 0.8272032327923383 0
1.610919169373957 0.6512709292051341 0
-0.8744252641068109 1.69170756645345 0
-0.7214421218465765 1.670722204298581 0
-0.7882761555110972 1.739350394725264 0
-0.8911004252362528 1.565612860201053 0
-0.9596529581424091 1.640535039302991 0
-0.7441417013687774 1.548733601034451 0
-0.8296512546503481 1.495061850699322 0
-0.6486799269372329 1.605042686758205 0
-1.897195613331791 0.1929257613479325 0
-1.787105560464327 0.2842123266503145 0
-1.882729290264439 0.2888366373255123 0
-1.910507301149996 0.003350904859001348 0
-1.812518187780109 0.09825952617669995 0
-1.905054550102515 0.09819743726741029 0
-1.718657164821288 0.1836135897935794 0
-1.740852897990223 0.006348399915269023 0
-1.729755031405755 0.09498099485442424 0
-1.700196441757809 0.2769417879510896 0
-1.819152521959292 -0.08210556648017586 0
-1.741581757828226 -0.1599132702537827 0
-1.741217327909224 -0.07678243516925684 0
-1.903829947459554 -0.1834736118914826 0
-1.908371717179144 -0.09012045768300139 0
-1.805208861363531 -0.2580437361224305 0
-1.891780940592415 -0.275752342881502 0
-1.72942533443213 -0.241066869580152 0
-1.252207257217917 -0.9302909600286211 0
-1.257441212589053 -0.8078099807878747 0
-1.30727858870898 -0.8720359450342823 0
-1.134859590322279 -1.052796314645483 0
-1.142036414126487 -0.9247597058858184 0
-1.193533423770098 -0.991543637337052 0
-1.145339754982312 -0.7989934901786793 0
-1.034489885076792 -0.9264937979720262 0
-1.089914820029552 -0.8627436440753528 0
-1.208605596905918 -0.729153728420302 0
1.37458211018461 -0.4680910146957546 0
1.324706664926054 -0.3445350065984727 0
1.284821090770866 -0.4437427517036345 0
1.48600575527928 -0.4147458575519111 0
1.454070727910334 -0.499224968118936 0
1.44237231184534 -0.2987275432671522 0
1.518178837704664 -0.3334593436361908 0
1.364438818628962 -0.2462024570243418 0
-1.522524491858427 -0.4268849341870575 0
-1.474974627411932 -0.3151504276423256 0
-1.54747214605447 -0.3467499396188059 0
-1.428852047544883 -0.4823745092586986 0
-1.501686775628398 -0.5091235129396737 0
-1.364823504434661 -0.3627689175678211 0
-1.342425759287064 -0.4651134988488165 0
-1.39547965989535 -0.264676645595274 0
0.4623676062519981 -1.776658989915731 0
0.5430330600483126 -1.693886307169629 0
0.45625745257567 -1.627879990802864 0
0.459312529413834 -1.702269490359297 0
0.5642324987972409 -1.83818383787586 0
0.4741639836592308 -1.85836074799461 0
0.62383935094634 -1.737787698218088 0
0.6488095297697709 -1.810437913968472 0
0.5956665840399148 -1.623926223840099 0
0.6097529674931274 -1.680856961029094 0
-0.5623349748937381 -0.9120176378263263 0
-0.4802514314407902 -1.031943745354722 0
-0.4758240834620159 -0.9569325052103979 0
-0.6444179217468212 -0.9557535507180878 0
-0.6394056022167975 -0.8643820026464309 0
-0.5914540809894179 -1.072627901252909 0
-0.6658466093076743 -1.031882826525806 0
-0.4986650063147621 -1.121523636516534 0
-0.8979384045246328 -1.149660719894044 0
-1.010008391665486 -1.167380013786981 0
-0.9427708336483339 -1.219507054112675 0
-0.9223431853240731 -1.037018455266069 0
-0.8594737205014203 -1.084477786171048 0
-1.023735799933076 -1.042402069283011 0
-0.9784165352004325 -0.9817561266190474 0
-1.072433990993882 -1.110088164216232 0
0.6404916904672457 -1.507445611411614 0
0.5500706517320773 -1.555008374696727 0
0.6180791372535803 -1.565685917625857 0
0.5794974351257576 -1.404018100085442 0
0.6791286352721126 -1.424760578658336 0
0.4724094791294333 -1.478072057124235 0
0.484388283392824 -1.396556951576814 0
0.4643334658525517 -1.55297602396355 0
0.9252465028796772 -1.13938432761545 0
1.020391880446968 -1.043930569032721 0
0.9202611911609158 -1.055805098369944 0
1.041260694223862 -1.206362476706706 0
0.9363868879687968 -1.230868576944887 0
1.117965914089752 -1.127257383413679 0
1.118582655723288 -1.194689269999921 0
1.127099485043562 -1.033873220093643 0
$EndNodes
$Elements
9 404 1 404
1 1 8 8
1 1 9 16 
2 9 10 17 
3 10 11 18 
4 11 12 19 
5 12 13 20 
6 13 14 21 
7 14 15 22 
8 15 2 23 
1 2 8 8
9 2 24 31 
10 24 25 32 
11 25 26 33 
12 26 27 34 
13 27 28 35 
14 28 29 36 
15 29 30 37 
16 30 3 38 
1 3 8 8
17 3 39 46 
18 39 40 47 
19 40 41 48 
20 41 42 49 
21 42 43 50 
22 43 44 51 
23 44 45 52 
24 45 4 53 
1 4 8 8
25 4 54 61 
26 54 55 62 
27 55 56 63 
28 56 57 64 
29 57 58 65 
30 58 59 66 
31 59 60 67 
32 60 1 68 
1 5 8 16
33 5 69 84 
34 69 70 85 
35 70 71 86 
36 71 72 87 
37 72 73 88 
38 73 74 89 
39 74 75 90 
40 75 76 91 
41 76 77 92 
42 77 78 93 
43 78 79 94 
44 79 80 95 
45 80 81 96 
46 81 82 97 
47 82 83 98 
48 83 6 99 
1 6 8 16
49 6 100 115 
50 100 101 116 
51 101 102 117 
52 102 103 118 
53 103 104 119 
54 104 105 120 
55 105 106 121 
56 106 107 122 
57 107 108 123 
58 108 109 124 
59 109 110 125 
60 110 111 126 
61 111 112 127 
62 112 113 128 
63 113 114 129 
64 114 7 130 
1 7 8 16
65 7 131 146 
66 131 132 147 
67 132 133 148 
68 133 134 149 
69 134 135 150 
70 135 136 151 
71 136 137 152 
72 137 138 153 
73 138 139 154 
74 139 140 155 
75 140 141 156 
76 141 142 157 
77 142 143 158 
78 143 144 159 
79 144 145 160 
80 145 8 161 
1 8 8 16
81 8 162 177 
82 162 163 178 
83 163 164 179 
84 164 165 180 
85 165 166 181 
86 166 167 182 
87 167 168 183 
88 168 169 184 
89 169 170 185 
90 170 171 186 
91 171 172 187 
92 172 173 188 
93 173 174 189 
94 174 175 190 
95 175 176 191 
96 176 5 192 
2 1 10 308
97 193 242 245 244 453 454 455 456 457 
98 219 243 245 242 458 459 454 460 461 
99 240 244 245 243 462 455 459 463 464 
100 59 58 248 247 66 465 466 467 468 
101 57 246 248 58 469 470 465 65 471 
102 196 247 248 246 472 466 470 473 474 
103 57 56 251 250 64 475 476 477 478 
104 55 249 251 56 479 480 475 63 481 
105 214 250 251 249 482 476 480 483 484 
106 199 252 255 254 485 486 487 488 489 
107 14 253 255 252 490 491 486 492 493 
108 215 254 255 253 494 487 491 495 496 
109 202 256 259 258 497 498 499 500 501 
110 25 257 259 256 502 503 498 504 505 
111 216 258 259 257 506 499 503 507 508 
112 29 260 263 262 509 510 511 512 513 
113 200 261 263 260 514 515 510 516 517 
114 221 262 263 261 518 511 515 519 520 
115 201 264 267 266 521 522 523 524 525 
116 10 265 267 264 526 527 522 528 529 
117 222 266 267 265 530 523 527 531 532 
118 109 110 270 269 125 533 534 535 536 
119 111 268 270 110 537 538 533 126 539 
120 224 269 270 268 540 534 538 541 542 
121 101 102 273 272 117 543 544 545 546 
122 103 271 273 102 547 548 543 118 549 
123 206 272 273 271 550 544 548 551 552 
124 78 79 276 275 94 553 554 555 556 
125 80 274 276 79 557 558 553 95 559 
126 204 275 276 274 560 554 558 561 562 
127 70 71 279 278 86 563 564 565 566 
128 72 277 279 71 567 568 563 87 569 
129 205 278 279 277 570 564 568 571 572 
130 220 280 283 282 573 574 575 576 577 
131 194 281 283 280 578 579 574 580 581 
132 241 282 283 281 582 575 579 583 584 
133 42 284 287 286 585 586 587 588 589 
134 198 285 287 284 590 591 586 592 593 
135 231 286 287 285 594 587 591 595 596 
136 195 288 291 290 597 598 599 600 601 
137 227 289 291 288 602 603 598 604 605 
138 230 290 291 289 606 599 603 607 608 
139 213 292 295 294 609 610 611 612 613 
140 228 293 295 292 614 615 610 616 617 
141 232 294 295 293 618 611 615 619 620 
142 218 296 299 298 621 622 623 624 625 
143 196 297 299 296 626 627 622 628 629 
144 234 298 299 297 630 623 627 631 632 
145 169 170 303 302 185 633 634 635 636 
146 171 300 303 170 637 638 633 186 639 
147 234 301 303 300 640 641 638 642 643 
148 212 302 303 301 644 634 641 645 646 
149 230 304 307 306 647 648 649 650 651 
150 144 145 307 304 160 652 648 653 654 
151 8 305 307 145 655 656 652 161 657 
152 211 306 307 305 658 649 656 659 660 
153 197 308 311 310 661 662 663 664 665 
154 55 54 311 308 62 666 662 667 668 
155 4 309 311 54 669 670 666 61 671 
156 236 310 311 309 672 663 670 673 674 
157 198 284 314 313 592 675 676 677 678 
158 42 41 314 284 49 679 675 585 680 
159 40 312 314 41 681 682 679 48 683 
160 232 313 314 312 684 676 682 685 686 
161 204 315 318 317 687 688 689 690 691 
162 223 316 318 315 692 693 688 694 695 
163 199 254 318 316 488 696 693 697 698 
164 215 317 318 254 699 689 696 494 700 
165 206 319 322 321 701 702 703 704 705 
166 226 320 322 319 706 707 702 708 709 
167 202 258 322 320 500 710 707 711 712 
168 216 321 322 258 713 703 710 506 714 
169 219 323 325 243 715 716 717 458 718 
170 175 176 325 323 191 719 716 720 721 
171 5 324 325 176 722 723 719 192 724 
172 240 243 325 324 463 717 723 725 726 
173 200 326 329 261 727 728 729 514 730 
174 224 327 329 326 731 732 728 733 734 
175 203 328 329 327 735 736 732 737 738 
176 221 261 329 328 519 729 736 739 740 
177 205 330 333 332 741 742 743 744 745 
178 225 331 333 330 746 747 742 748 749 
179 201 266 333 331 524 750 747 751 752 
180 222 332 333 266 753 743 750 530 754 
181 173 174 336 335 189 755 756 757 758 
182 175 323 336 174 720 759 755 190 760 
183 219 334 336 323 761 762 759 715 763 
184 218 335 336 334 764 756 762 765 766 
185 210 337 340 339 767 768 769 770 771 
186 229 338 340 337 772 773 768 774 775 
187 165 166 340 338 181 776 773 777 778 
188 167 339 340 166 779 769 776 182 780 
189 173 335 341 172 757 781 782 188 783 
190 218 298 341 335 624 784 781 764 785 
191 234 300 341 298 642 786 784 630 787 
192 171 172 341 300 187 782 786 637 788 
193 213 342 345 344 789 790 791 792 793 
194 220 343 345 342 794 795 790 796 797 
195 132 133 345 343 148 798 795 799 800 
196 134 344 345 133 801 791 798 149 802 
197 217 346 349 348 803 804 805 806 807 
198 235 347 349 346 808 809 804 810 811 
199 138 139 349 347 154 812 809 813 814 
200 140 348 349 139 815 805 812 155 816 
201 142 143 351 350 158 817 818 819 820 
202 144 304 351 143 653 821 817 159 822 
203 230 289 351 304 607 823 821 647 824 
204 227 350 351 289 825 818 823 602 826 
205 140 141 353 348 156 827 828 815 829 
206 142 350 353 141 819 830 827 157 831 
207 227 352 353 350 832 833 830 825 834 
208 217 348 353 352 806 828 833 835 836 
209 134 135 355 344 150 837 838 801 839 
210 136 354 355 135 840 841 837 151 842 
211 228 292 355 354 616 843 841 844 845 
212 213 344 355 292 792 838 843 609 846 
213 167 168 357 339 183 847 848 779 849 
214 169 302 357 168 635 850 847 184 851 
215 212 356 357 302 852 853 850 644 854 
216 210 339 357 356 770 848 853 855 856 
217 105 106 361 360 121 857 858 859 860 
218 107 358 361 106 861 862 857 122 863 
219 207 359 361 358 864 865 862 866 867 
220 226 360 361 359 868 858 865 869 870 
221 74 75 365 364 90 871 872 873 874 
222 76 362 365 75 875 876 871 91 877 
223 209 363 365 362 878 879 876 880 881 
224 225 364 365 363 882 872 879 883 884 
225 82 83 369 368 98 885 886 887 888 
226 6 366 369 83 889 890 885 99 891 
227 208 367 369 366 892 893 890 894 895 
228 223 368 369 367 896 886 893 897 898 
229 208 366 371 370 894 899 900 901 902 
230 6 100 371 366 115 903 899 889 904 
231 101 272 371 100 545 905 903 116 906 
232 206 370 371 272 907 900 905 550 908 
233 209 362 373 372 880 909 910 911 912 
234 76 77 373 362 92 913 909 875 914 
235 78 275 373 77 555 915 913 93 916 
236 204 372 373 275 917 910 915 560 918 
237 207 358 375 374 866 919 920 921 922 
238 107 108 375 358 123 923 919 861 924 
239 109 269 375 108 535 925 923 124 926 
240 224 374 375 269 927 920 925 540 928 
241 70 278 377 69 565 929 930 85 931 
242 205 376 377 278 932 933 929 570 934 
243 240 324 377 376 725 935 933 936 937 
244 5 69 377 324 84 930 935 722 938 
245 221 328 380 379 739 939 940 941 942 
246 203 378 380 328 943 944 939 735 945 
247 241 281 380 378 583 946 944 947 948 
248 194 379 380 281 949 940 946 578 950 
249 207 381 383 359 951 952 953 864 954 
250 237 382 383 381 955 956 952 957 958 
251 202 320 383 382 711 959 956 960 961 
252 226 359 383 320 869 953 959 706 962 
253 216 384 386 321 963 964 965 713 966 
254 238 385 386 384 967 968 964 969 970 
255 208 370 386 385 901 971 968 972 973 
256 206 321 386 370 704 965 971 907 974 
257 215 387 389 317 975 976 977 699 978 
258 239 388 389 387 979 980 976 981 982 
259 209 372 389 388 911 983 980 984 985 
260 204 317 389 372 690 977 983 917 986 
261 217 352 392 391 835 987 988 989 990 
262 227 288 392 352 604 991 987 832 992 
263 195 390 392 288 993 994 991 597 995 
264 231 391 392 390 996 988 994 997 998 
265 4 45 395 309 53 999 1000 669 1001 
266 44 393 395 45 1002 1003 999 52 1004 
267 195 394 395 393 1005 1006 1003 1007 1008 
268 236 309 395 394 673 1000 1006 1009 1010 
269 40 39 398 312 47 1011 1012 681 1013 
270 3 396 398 39 1014 1015 1011 46 1016 
271 194 397 398 396 1017 1018 1015 1019 1020 
272 232 312 398 397 685 1012 1018 1021 1022 
273 197 399 401 308 1023 1024 1025 661 1026 
274 210 400 401 399 1027 1028 1024 1029 1030 
275 214 249 401 400 483 1031 1028 1032 1033 
276 55 308 401 249 667 1025 1031 479 1034 
277 214 402 403 250 1035 1036 1037 482 1038 
278 234 297 403 402 631 1039 1036 1040 1041 
279 196 246 403 297 473 1042 1039 626 1043 
280 57 250 403 246 477 1037 1042 469 1044 
281 193 404 406 405 1045 1046 1047 1048 1049 
282 1 60 406 404 68 1050 1046 1051 1052 
283 59 247 406 60 467 1053 1050 67 1054 
284 196 405 406 247 1055 1047 1053 472 1056 
285 27 26 408 407 34 1057 1058 1059 1060 
286 25 256 408 26 504 1061 1057 33 1062 
287 202 382 408 256 960 1063 1061 497 1064 
288 237 407 408 382 1065 1058 1063 955 1066 
289 216 257 410 384 507 1067 1068 963 1069 
290 25 24 410 257 32 1070 1067 502 1071 
291 2 409 410 24 1072 1073 1070 31 1074 
292 238 384 410 409 969 1068 1073 1075 1076 
293 215 253 412 387 495 1077 1078 975 1079 
294 14 13 412 253 21 1080 1077 490 1081 
295 12 411 412 13 1082 1083 1080 20 1084 
296 239 387 412 411 981 1078 1083 1085 1086 
297 27 407 414 28 1059 1087 1088 35 1089 
298 237 413 414 407 1090 1091 1087 1065 1092 
299 200 260 414 413 516 1093 1091 1094 1095 
300 29 28 414 260 36 1088 1093 509 1096 
301 201 415 416 264 1097 1098 1099 521 1100 
302 239 411 416 415 1085 1101 1098 1102 1103 
303 12 11 416 411 19 1104 1101 1082 1105 
304 10 264 416 11 528 1099 1104 18 1106 
305 199 417 418 252 1107 1108 1109 485 1110 
306 238 409 418 417 1075 1111 1108 1112 1113 
307 2 15 418 409 23 1114 1111 1072 1115 
308 14 252 418 15 492 1109 1114 22 1116 
309 236 419 422 310 1117 1118 1119 672 1120 
310 211 420 422 419 1121 1122 1118 1123 1124 
311 233 421 422 420 1125 1126 1122 1127 1128 
312 197 310 422 421 664 1119 1126 1129 1130 
313 8 162 424 305 177 1131 1132 655 1133 
314 163 423 424 162 1134 1135 1131 178 1136 
315 233 420 424 423 1127 1137 1135 1138 1139 
316 211 305 424 420 659 1132 1137 1121 1140 
317 222 265 426 425 531 1141 1142 1143 1144 
318 10 9 426 265 17 1145 1141 526 1146 
319 1 404 426 9 1051 1147 1145 16 1148 
320 193 425 426 404 1149 1142 1147 1045 1150 
321 3 30 427 396 38 1151 1152 1014 1153 
322 29 262 427 30 512 1154 1151 37 1155 
323 221 379 427 262 941 1156 1154 518 1157 
324 194 396 427 379 1019 1152 1156 949 1158 
325 224 326 428 374 733 1159 1160 927 1161 
326 200 413 428 326 1094 1162 1159 727 1163 
327 237 381 428 413 957 1164 1162 1090 1165 
328 207 374 428 381 921 1160 1164 951 1166 
329 238 417 429 385 1112 1167 1168 967 1169 
330 199 316 429 417 697 1170 1167 1107 1171 
331 223 367 429 316 897 1172 1170 692 1173 
332 208 385 429 367 972 1168 1172 892 1174 
333 239 415 430 388 1102 1175 1176 979 1177 
334 201 331 430 415 751 1178 1175 1097 1179 
335 225 363 430 331 883 1180 1178 746 1181 
336 209 388 430 363 984 1176 1180 878 1182 
337 136 137 432 354 152 1183 1184 840 1185 
338 138 347 432 137 813 1186 1183 153 1187 
339 235 431 432 347 1188 1189 1186 808 1190 
340 228 354 432 431 844 1184 1189 1191 1192 
341 240 376 433 244 936 1193 1194 462 1195 
342 205 332 433 376 744 1196 1193 932 1197 
343 222 425 433 332 1143 1198 1196 753 1199 
344 193 244 433 425 456 1194 1198 1149 1200 
345 230 306 434 290 650 1201 1202 606 1203 
346 211 419 434 306 1123 1204 1201 658 1205 
347 236 394 434 419 1009 1206 1204 1117 1207 
348 195 290 434 394 600 1202 1206 1005 1208 
349 111 112 436 268 127 1209 1210 537 1211 
350 113 435 436 112 1212 1213 1209 128 1214 
351 203 327 436 435 737 1215 1213 1216 1217 
352 224 268 436 327 541 1210 1215 731 1218 
353 80 81 437 274 96 1219 1220 557 1221 
354 82 368 437 81 887 1222 1219 97 1223 
355 223 315 437 368 694 1224 1222 896 1225 
356 204 274 437 315 561 1220 1224 687 1226 
357 72 73 438 277 88 1227 1228 567 1229 
358 74 364 438 73 873 1230 1227 89 1231 
359 225 330 438 364 748 1232 1230 882 1233 
360 205 277 438 330 571 1228 1232 741 1234 
361 103 104 439 271 119 1235 1236 547 1237 
362 105 360 439 104 859 1238 1235 120 1239 
363 226 319 439 360 708 1240 1238 868 1241 
364 206 271 439 319 551 1236 1240 701 1242 
365 113 114 441 435 129 1243 1244 1212 1245 
366 7 440 441 114 1246 1247 1243 130 1248 
367 241 378 441 440 947 1249 1247 1250 1251 
368 203 435 441 378 1216 1244 1249 943 1252 
369 241 440 442 282 1250 1253 1254 582 1255 
370 7 131 442 440 146 1256 1253 1246 1257 
371 132 343 442 131 799 1258 1256 147 1259 
372 220 282 442 343 576 1254 1258 794 1260 
373 228 431 444 293 1191 1261 1262 614 1263 
374 235 443 444 431 1264 1265 1261 1188 1266 
375 198 313 444 443 677 1267 1265 1268 1269 
376 232 293 444 313 619 1262 1267 684 1270 
377 196 296 445 405 628 1271 1272 1055 1273 
378 218 334 445 296 765 1274 1271 621 1275 
379 219 242 445 334 460 1276 1274 761 1277 
380 193 405 445 242 1048 1272 1276 453 1278 
381 220 342 446 280 796 1279 1280 573 1281 
382 213 294 446 342 612 1282 1279 789 1283 
383 232 397 446 294 1021 1284 1282 618 1285 
384 194 280 446 397 580 1280 1284 1017 1286 
385 233 423 448 447 1138 1287 1288 1289 1290 
386 163 164 448 423 179 1291 1287 1134 1292 
387 165 338 448 164 777 1293 1291 180 1294 
388 229 447 448 338 1295 1288 1293 772 1296 
389 44 43 449 393 51 1297 1298 1002 1299 
390 42 286 449 43 588 1300 1297 50 1301 
391 231 390 449 286 997 1302 1300 594 1303 
392 195 393 449 390 1007 1298 1302 993 1304 
393 217 391 450 346 989 1305 1306 803 1307 
394 231 285 450 391 595 1308 1305 996 1309 
395 198 443 450 285 1268 1310 1308 590 1311 
396 235 346 450 443 810 1306 1310 1264 1312 
397 229 337 451 447 774 1313 1314 1295 1315 
398 210 399 451 337 1029 1316 1313 767 1317 
399 197 421 451 399 1129 1318 1316 1023 1319 
400 233 447 451 421 1289 1314 1318 1125 1320 
401 214 400 452 402 1032 1321 1322 1035 1323 
402 210 356 452 400 855 1324 1321 1027 1325 
403 212 301 452 356 645 1326 1324 852 1327 
404 234 402 452 301 1040 1322 1326 640 1328 
$EndElements
