$MeshFormat
4.1 0 8
$EndMeshFormat
$PhysicalNames
7
2 1 "left"
2 2 "right"
2 3 "bottom"
2 4 "top"
2 5 "front"
2 6 "back"
3 7 "fluid"
$EndPhysicalNames
$Entities
8 12 6 1
1 0 0 1 0 
2 0 0 0 0 
3 0 1 1 0 
4 0 1 0 0 
5 2 0 1 0 
6 2 0 0 0 
7 2 1 1 0 
8 2 1 0 0 
1 -1e-07 -1e-07 -9.999999994736442e-08 1e-07 1e-07 1.0000001 0 2 2 -1 
2 -1e-07 -9.999999994736442e-08 0.9999999000000001 1e-07 1.0000001 1.0000001 0 2 1 -3 
3 -1e-07 0.9999999000000001 -9.999999994736442e-08 1e-07 1.0000001 1.0000001 0 2 4 -3 
4 -1e-07 -9.999999994736442e-08 -1e-07 1e-07 1.0000001 1e-07 0 2 2 -4 
5 1.9999999 -1e-07 -9.999999994736442e-08 2.0000001 1e-07 1.0000001 0 2 6 -5 
6 1.9999999 -9.999999994736442e-08 0.9999999000000001 2.0000001 1.0000001 1.0000001 0 2 5 -7 
7 1.9999999 0.9999999000000001 -9.999999994736442e-08 2.0000001 1.0000001 1.0000001 0 2 8 -7 
8 1.9999999 -9.999999994736442e-08 -1e-07 2.0000001 1.0000001 1e-07 0 2 6 -8 
9 -9.999999994736442e-08 -1e-07 -1e-07 2.0000001 1e-07 1e-07 0 2 2 -6 
10 -9.999999994736442e-08 -1e-07 0.9999999000000001 2.0000001 1e-07 1.0000001 0 2 1 -5 
11 -9.999999994736442e-08 0.9999999000000001 -1e-07 2.0000001 1.0000001 1e-07 0 2 4 -8 
12 -9.999999994736442e-08 0.9999999000000001 0.9999999000000001 2.0000001 1.0000001 1.0000001 0 2 3 -7 
1 -1e-07 -9.999999994736442e-08 -9.999999994736442e-08 1e-07 1.0000001 1.0000001 1 1 4 -1 4 3 -2 
2 1.9999999 -9.999999994736442e-08 -9.999999994736442e-08 2.0000001 1.0000001 1.0000001 1 2 4 -5 8 7 -6 
3 -9.999999994736442e-08 -1e-07 -9.999999994736442e-08 2.0000001 1e-07 1.0000001 1 3 4 -9 1 10 -5 
4 -9.999999994736442e-08 0.9999999000000001 -9.999999994736442e-08 2.0000001 1.0000001 1.0000001 1 4 4 -11 3 12 -7 
5 -9.999999994736442e-08 -9.999999994736442e-08 -1e-07 2.0000001 1.0000001 1e-07 1 5 4 -4 9 8 -11 
6 -9.999999994736442e-08 -9.999999994736442e-08 0.9999999000000001 2.0000001 1.0000001 1.0000001 1 6 4 -2 10 6 -12 
1 -9.999999994736442e-08 -9.999999994736442e-08 -9.999999994736442e-08 2.0000001 1.0000001 1.0000001 1 7 6 -1 2 -3 4 -5 6 
$EndEntities
$Nodes
27 774 1 774
0 1 0 1
1
0 0 1
0 2 0 1
2
0 0 0
0 3 0 1
3
0 1 1
0 4 0 1
4
0 1 0
0 5 0 1
5
2 0 1
0 6 0 1
6
2 0 0
0 7 0 1
7
2 1 1
0 8 0 1
8
2 1 0
1 1 0 5
9
10
11
12
13
0 0 0.3333333333333325
0 0 0.6666666666666647
0 0 0.1666666666666663
0 0 0.4999999999999987
0 0 0.8333333333333324
1 2 0 5
14
15
16
17
18
0 0.3333333333333325 1
0 0.6666666666666647 1
0 0.1666666666666663 1
0 0.4999999999999987 1
0 0.8333333333333324 1
1 3 0 5
19
20
21
22
23
0 1 0.3333333333333325
0 1 0.6666666666666647
0 1 0.1666666666666663
0 1 0.4999999999999987
0 1 0.8333333333333324
1 4 0 5
24
25
26
27
28
0 0.3333333333333325 0
0 0.6666666666666647 0
0 0.1666666666666663 0
0 0.4999999999999987 0
0 0.8333333333333324 0
1 5 0 5
29
30
31
32
33
2 0 0.3333333333333325
2 0 0.6666666666666647
2 0 0.1666666666666663
2 0 0.4999999999999987
2 0 0.8333333333333324
1 6 0 5
34
35
36
37
38
2 0.3333333333333325 1
2 0.6666666666666647 1
2 0.1666666666666663 1
2 0.4999999999999987 1
2 0.8333333333333324 1
1 7 0 5
39
40
41
42
43
2 1 0.3333333333333325
2 1 0.6666666666666647
2 1 0.1666666666666663
2 1 0.4999999999999987
2 1 0.8333333333333324
1 8 0 5
44
45
46
47
48
2 0.3333333333333325 0
2 0.6666666666666647 0
2 0.1666666666666663 0
2 0.4999999999999987 0
2 0.8333333333333324 0
1 9 0 11
49
50
51
52
53
54
55
56
57
58
59
0.3333333333333328 0 0
0.6666666666666651 0 0
0.9999999999999973 0 0
1.333333333333329 0 0
1.666666666666664 0 0
0.1666666666666664 0 0
0.4999999999999989 0 0
0.8333333333333313 0 0
1.166666666666663 0 0
1.499999999999997 0 0
1.833333333333332 0 0
1 10 0 11
60
61
62
63
64
65
66
67
68
69
70
0.3333333333333328 0 1
0.6666666666666651 0 1
0.9999999999999973 0 1
1.333333333333329 0 1
1.666666666666664 0 1
0.1666666666666664 0 1
0.4999999999999989 0 1
0.8333333333333313 0 1
1.166666666666663 0 1
1.499999999999997 0 1
1.833333333333332 0 1
1 11 0 11
71
72
73
74
75
76
77
78
79
80
81
0.3333333333333328 1 0
0.6666666666666651 1 0
0.9999999999999973 1 0
1.333333333333329 1 0
1.666666666666664 1 0
0.1666666666666664 1 0
0.4999999999999989 1 0
0.8333333333333313 1 0
1.166666666666663 1 0
1.499999999999997 1 0
1.833333333333332 1 0
1 12 0 11
82
83
84
85
86
87
88
89
90
91
92
0.3333333333333328 1 1
0.6666666666666651 1 1
0.9999999999999973 1 1
1.333333333333329 1 1
1.666666666666664 1 1
0.1666666666666664 1 1
0.4999999999999989 1 1
0.8333333333333313 1 1
1.166666666666663 1 1
1.499999999999997 1 1
1.833333333333332 1 1
2 1 0 41
93
94
95
96
97
98
99
100
101
102
103
104
105
106
107
108
109
110
111
112
113
114
115
116
117
118
119
120
121
122
123
124
125
126
127
128
129
130
131
132
133
0 0.3014476151301525 0.4999999999999991
0 0.702866621318894 0.4999999999999988
0 0.5007190394081737 0.7525600817161044
0 0.500719039408174 0.2474399182838947
0 0.7576802451483142 0.7576802451483142
0 0.7576802451483144 0.242319754851685
0 0.2423197548516845 0.7576802451483149
0 0.2423197548516857 0.2423197548516857
0 0.1211598774258422 0.8788401225741574
0 0.1211598774258422 0.7121734559074898
0 0.2878265440925085 0.8788401225741574
0 0.1211598774258428 0.2878265440925091
0 0.1211598774258428 0.1211598774258428
0 0.2878265440925091 0.1211598774258428
0 0.8788401225741571 0.8788401225741571
0 0.7121734559074895 0.8788401225741571
0 0.8788401225741571 0.7121734559074895
0 0.8788401225741572 0.1211598774258425
0 0.8788401225741572 0.2878265440925087
0 0.7121734559074896 0.1211598774258425
0 0.1507238075650763 0.5833333333333319
0 0.1507238075650763 0.4166666666666658
0 0.2718836849909191 0.3711598774258424
0 0.2718836849909185 0.628840122574157
0 0.5836928530374192 0.8762800408580522
0 0.4170261863707532 0.8762800408580522
0 0.3715193971299291 0.7551201634322097
0 0.629199642278244 0.7551201634322093
0 0.8514333106594469 0.4166666666666657
0 0.8514333106594469 0.5833333333333318
0 0.7302734332336043 0.3711598774258419
0 0.7302734332336041 0.6288401225741566
0 0.4170261863707533 0.1237199591419474
0 0.5836928530374194 0.1237199591419474
0 0.3715193971299299 0.2448798365677902
0 0.6291996422782442 0.2448798365677898
0 0.5021571182245232 0.4999999999999989
0 0.4010833272691631 0.6262800408580518
0 0.6017928303635338 0.6262800408580517
0 0.601792830363534 0.3737199591419468
0 0.4010833272691632 0.3737199591419469
2 2 0 41
134
135
136
137
138
139
140
141
142
143
144
145
146
147
148
149
150
151
152
153
154
155
156
157
158
159
160
161
162
163
164
165
166
167
168
169
170
171
172
173
174
2 0.3014476151301525 0.4999999999999991
2 0.702866621318894 0.4999999999999988
2 0.5007190394081737 0.7525600817161044
2 0.500719039408174 0.2474399182838947
2 0.7576802451483142 0.7576802451483142
2 0.7576802451483144 0.242319754851685
2 0.2423197548516845 0.7576802451483149
2 0.2423197548516857 0.2423197548516857
2 0.1211598774258422 0.7121734559074898
2 0.1211598774258422 0.8788401225741574
2 0.2878265440925085 0.8788401225741574
2 0.1211598774258428 0.1211598774258428
2 0.1211598774258428 0.2878265440925091
2 0.2878265440925091 0.1211598774258428
2 0.7121734559074895 0.8788401225741571
2 0.8788401225741571 0.8788401225741571
2 0.8788401225741571 0.7121734559074895
2 0.8788401225741572 0.2878265440925087
2 0.8788401225741572 0.1211598774258425
2 0.7121734559074896 0.1211598774258425
2 0.1507238075650763 0.4166666666666658
2 0.1507238075650763 0.5833333333333319
2 0.2718836849909191 0.3711598774258423
2 0.2718836849909185 0.628840122574157
2 0.4170261863707532 0.8762800408580522
2 0.5836928530374192 0.8762800408580522
2 0.3715193971299291 0.7551201634322097
2 0.629199642278244 0.7551201634322093
2 0.8514333106594469 0.5833333333333318
2 0.8514333106594469 0.4166666666666657
2 0.7302734332336043 0.3711598774258419
2 0.7302734332336041 0.6288401225741566
2 0.5836928530374194 0.1237199591419474
2 0.4170261863707533 0.1237199591419474
2 0.3715193971299298 0.2448798365677902
2 0.6291996422782442 0.2448798365677898
2 0.6017928303635338 0.6262800408580517
2 0.4010833272691631 0.6262800408580518
2 0.5021571182245232 0.4999999999999989
2 0.4010833272691632 0.3737199591419469
2 0.601792830363534 0.3737199591419468
2 3 0 83
175
176
177
178
179
180
181
182
183
184
185
186
187
188
189
190
191
192
193
194
195
196
197
198
199
200
201
202
203
204
205
206
207
208
209
210
211
212
213
214
215
216
217
218
219
220
221
222
223
224
225
226
227
228
229
230
231
232
233
234
235
236
237
238
239
240
241
242
243
244
245
246
247
248
249
250
251
252
253
254
255
256
257
0.8333333333333311 0 0.2886751345948119
1.498466637364593 0 0.2551658149077496
0.3127333641386877 0 0.4999999999999993
1.166666666666663 0 0.7113248654051881
1.498466637364593 0 0.7448341850922502
1.16660014218748 0 0.2805097062114001
0.8333333333333313 0 0.711324865405188
0.509748540022573 0 0.7445513215914823
0.5097485400225727 0 0.2554486784085171
1.712258795153276 0 0.4999999999999991
0.999999999999997 0 0.4999999999999999
1.333333333333329 0 0.5000000000000012
0.6664828518084154 0 0.4999999999999998
0.2440169358562925 0 0.7559830641437068
0.2440169358562917 0 0.2440169358562916
1.757680245148314 0 0.7576802451483137
1.757680245148315 0 0.2423197548516848
0.1220084679281462 0 0.7113248654051858
0.1220084679281462 0 0.8779915320718534
0.2886751345948126 0 0.8779915320718534
0.1220084679281458 0 0.1220084679281458
0.1220084679281458 0 0.2886751345948121
0.2886751345948123 0 0.1220084679281458
1.878840122574157 0 0.8788401225741569
1.878840122574157 0 0.7121734559074893
1.712173455907489 0 0.8788401225741569
1.878840122574157 0 0.2878265440925087
1.878840122574157 0 0.1211598774258424
1.712173455907489 0 0.1211598774258424
0.1563666820693439 0 0.4166666666666659
0.1563666820693439 0 0.583333333333332
0.2783751499974897 0 0.3720084679281455
0.2783751499974901 0 0.627991532071853
1.856129397576638 0 0.5833333333333319
1.856129397576638 0 0.4166666666666659
1.734969520150795 0 0.3711598774258419
1.734969520150795 0 0.6288401225741564
0.5882076033446189 0 0.1277243392042585
0.4215409366779528 0 0.1277243392042585
0.3768827379394322 0 0.2497328071324044
0.9166666666666643 0 0.1443375672974059
0.7499999999999981 0 0.1443375672974059
0.6715409366779519 0 0.2720619065016645
1.249966737760405 0 0.1402548531057001
1.083300071093739 0 0.1402548531057001
0.9999667377604056 0 0.284592420403106
1.582566652015629 0 0.1275829074538748
1.415899985348961 0 0.1275829074538748
1.332533389776037 0 0.2678377605595749
1.628073441256454 0 0.2487427848797172
0.4215409366779529 0 0.8722756607957411
0.5882076033446191 0 0.8722756607957411
0.3768827379394327 0 0.7502671928675946
0.7499999999999982 0 0.855662432702594
0.9166666666666643 0 0.855662432702594
0.6715409366779521 0 0.7279380934983352
1.08333333333333 0 0.8556624327025941
1.249999999999996 0 0.8556624327025941
0.9999999999999973 0 0.711324865405188
1.415899985348961 0 0.8724170925461251
1.582566652015629 0 0.8724170925461251
1.332566652015628 0 0.7280795252487191
1.628073441256453 0 0.7512572151202819
1.083300071093738 0 0.3902548531057
0.9166666666666641 0 0.3943375672974059
0.7499080925708732 0 0.3943375672974058
0.5881156959154941 0 0.3777243392042584
0.8332414259042062 0 0.4999999999999998
1.415899985348961 0 0.3775829074538755
1.249966737760405 0 0.3902548531057007
1.605362716258934 0 0.3775829074538744
1.522796064243303 0 0.5000000000000002
0.4112409520806304 0 0.6222756607957408
0.4896081079735516 0 0.4999999999999996
0.5881156959154942 0 0.622275660795741
0.4112409520806303 0 0.3777243392042582
1.249999999999996 0 0.6056624327025947
1.415899985348961 0 0.6224170925461256
0.9166666666666641 0 0.6056624327025939
1.08333333333333 0 0.605662432702594
1.166666666666663 0 0.5000000000000006
1.605362716258934 0 0.6224170925461247
0.7499080925708733 0 0.6056624327025939
2 4 0 83
258
259
260
261
262
263
264
265
266
267
268
269
270
271
272
273
274
275
276
277
278
279
280
281
282
283
284
285
286
287
288
289
290
291
292
293
294
295
296
297
298
299
300
301
302
303
304
305
306
307
308
309
310
311
312
313
314
315
316
317
318
319
320
321
322
323
324
325
326
327
328
329
330
331
332
333
334
335
336
337
338
339
340
0.8333333333333313 1 0.2886751345948119
1.498466637364593 1 0.7448341850922497
0.3127333641386877 1 0.4999999999999993
0.8333333333333313 1 0.7113248654051881
1.498466637364593 1 0.2551658149077489
1.16660014218748 1 0.7194902937885997
1.166600142187479 1 0.2805097062113991
0.509748540022573 1 0.7445513215914823
0.5097485400225729 1 0.255448678408517
1.712258795153276 1 0.4999999999999989
1.00026798186368 1 0.4999999999999996
1.335184139252787 1 0.4999999999999993
0.6665275154523626 1 0.4999999999999996
0.2440169358562925 1 0.7559830641437068
0.2440169358562917 1 0.2440169358562916
1.757680245148315 1 0.7576802451483141
1.757680245148315 1 0.2423197548516843
0.1220084679281462 1 0.8779915320718534
0.1220084679281462 1 0.7113248654051858
0.2886751345948126 1 0.8779915320718534
0.1220084679281458 1 0.2886751345948121
0.1220084679281458 1 0.1220084679281458
0.2886751345948123 1 0.1220084679281458
1.878840122574157 1 0.7121734559074895
1.878840122574157 1 0.8788401225741571
1.712173455907489 1 0.8788401225741571
1.878840122574157 1 0.1211598774258422
1.878840122574157 1 0.2878265440925084
1.712173455907489 1 0.1211598774258422
0.1563666820693439 1 0.583333333333332
0.1563666820693439 1 0.4166666666666659
0.2783751499974897 1 0.3720084679281455
0.2783751499974901 1 0.627991532071853
1.856129397576638 1 0.4166666666666657
1.856129397576638 1 0.5833333333333318
1.734969520150795 1 0.3711598774258416
1.734969520150795 1 0.6288401225741564
0.4215409366779528 1 0.1277243392042585
0.588207603344619 1 0.1277243392042585
0.3768827379394323 1 0.2497328071324043
0.7499999999999982 1 0.1443375672974059
0.9166666666666643 1 0.1443375672974059
0.6715409366779521 1 0.2720619065016645
1.083300071093738 1 0.1402548531056995
1.249966737760404 1 0.1402548531056995
0.9999667377604051 1 0.2845924204031055
1.415899985348961 1 0.1275829074538745
1.582566652015629 1 0.1275829074538745
1.332533389776036 1 0.267837760559574
1.628073441256454 1 0.2487427848797166
0.5882076033446191 1 0.8722756607957411
0.4215409366779529 1 0.8722756607957411
0.3768827379394327 1 0.7502671928675946
0.9166666666666643 1 0.8556624327025941
0.7499999999999982 1 0.8556624327025941
0.6715409366779521 1 0.7279380934983353
1.249966737760405 1 0.8597451468942998
1.083300071093739 1 0.8597451468942998
0.9999667377604056 1 0.7154075795968939
1.582566652015629 1 0.8724170925461249
1.415899985348961 1 0.8724170925461249
1.332533389776037 1 0.7321622394404248
1.628073441256454 1 0.7512572151202819
0.9168006575985055 1 0.3943375672974058
1.083434062025579 1 0.3902548531056994
0.5881380277374677 1 0.3777243392042583
0.7499304243928469 1 0.3943375672974058
0.8333977486580211 1 0.4999999999999996
1.41682538830869 1 0.6224170925461245
1.250892140720133 1 0.6097451468942995
1.523721467203031 1 0.4999999999999991
1.605362716258934 1 0.6224170925461243
0.5881380277374677 1 0.6222756607957409
0.4896304397955251 1 0.4999999999999994
0.4112409520806304 1 0.6222756607957408
0.4112409520806303 1 0.3777243392042582
1.08343406202558 1 0.6097451468942997
0.9168006575985055 1 0.6056624327025939
0.7499304243928469 1 0.6056624327025939
1.250892140720133 1 0.3902548531056992
1.41682538830869 1 0.3775829074538741
1.605362716258934 1 0.3775829074538739
1.167726060558233 1 0.4999999999999994
2 5 0 83
341
342
343
344
345
346
347
348
349
350
351
352
353
354
355
356
357
358
359
360
361
362
363
364
365
366
367
368
369
370
371
372
373
374
375
376
377
378
379
380
381
382
383
384
385
386
387
388
389
390
391
392
393
394
395
396
397
398
399
400
401
402
403
404
405
406
407
408
409
410
411
412
413
414
415
416
417
418
419
420
421
422
423
1.166666666666663 0.2886751345948119 0
0.5015333626354035 0.2551658149077492 0
1.68726663586131 0.4999999999999993 0
0.8333333333333313 0.7113248654051881 0
0.5015333626354036 0.7448341850922501 0
0.8333998578125155 0.2805097062113992 0
1.166666666666663 0.7113248654051881 0
1.490251459977423 0.7445513215914823 0
1.490251459977423 0.255448678408517 0
0.2877412048467223 0.4999999999999989 0
0.666666666666665 0.5 0
0.9999999999999976 0.4999999999999997 0
1.33351714819158 0.4999999999999996 0
1.755983064143707 0.7559830641437072 0
1.755983064143708 0.2440169358562913 0
0.2423197548516857 0.7576802451483138 0
0.2423197548516849 0.2423197548516848 0
0.1211598774258424 0.2878265440925087 0
0.1211598774258424 0.1211598774258424 0
0.2878265440925089 0.1211598774258424 0
0.1211598774258428 0.8788401225741569 0
0.1211598774258428 0.7121734559074893 0
0.2878265440925092 0.8788401225741569 0
1.877991532071854 0.1220084679281456 0
1.877991532071854 0.2886751345948119 0
1.711324865405186 0.1220084679281456 0
1.877991532071853 0.711324865405186 0
1.877991532071853 0.8779915320718537 0
1.711324865405186 0.8779915320718537 0
0.1438706024233611 0.5833333333333318 0
0.1438706024233611 0.4166666666666657 0
0.2650304798492036 0.3711598774258419 0
0.265030479849204 0.6288401225741563 0
1.843633317930655 0.4166666666666659 0
1.843633317930655 0.583333333333332 0
1.721624850002509 0.3720084679281452 0
1.721624850002509 0.6279915320718532 0
0.4174333479843682 0.1275829074538746 0
0.5841000146510342 0.1275829074538746 0
0.3719265587435442 0.248742784879717 0
0.7500332622395902 0.1402548531056996 0
0.9166999289062564 0.1402548531056996 0
0.6674666102239595 0.2678377605595742 0
1.08333333333333 0.1443375672974059 0
1.249999999999996 0.1443375672974059 0
1.000033262239589 0.2845924204031055 0
1.411792396655376 0.1277243392042585 0
1.578459063322044 0.1277243392042585 0
1.328459063322043 0.2720619065016645 0
1.623117262060566 0.2497328071324041 0
0.5841000146510343 0.872417092546125 0
0.4174333479843682 0.872417092546125 0
0.3719265587435446 0.7512572151202819 0
0.9166666666666643 0.8556624327025941 0
0.7499999999999982 0.8556624327025941 0
0.6674333479843675 0.7280795252487191 0
1.249999999999996 0.8556624327025941 0
1.08333333333333 0.8556624327025941 0
0.9999999999999972 0.7113248654051881 0
1.578459063322044 0.8722756607957411 0
1.411792396655376 0.8722756607957411 0
1.328459063322043 0.7279380934983353 0
1.623117262060565 0.7502671928675948 0
0.9166999289062565 0.3902548531056994 0
1.08333333333333 0.3943375672974058 0
1.250091907429122 0.3943375672974058 0
1.411884304084502 0.3777243392042583 0
1.166758574095789 0.4999999999999997 0
0.5841000146510342 0.3775829074538746 0
0.7500332622395902 0.3902548531056996 0
0.3946372837410629 0.3775829074538741 0
0.4772039357566936 0.4999999999999994 0
1.588759047919367 0.6222756607957408 0
1.510391892026445 0.4999999999999994 0
1.411884304084502 0.6222756607957409 0
1.588759047919367 0.3777243392042582 0
0.7499999999999981 0.6056624327025941 0
0.5841000146510342 0.622417092546125 0
1.08333333333333 0.6056624327025939 0
0.9166666666666644 0.6056624327025939 0
0.8333333333333313 0.4999999999999998 0
0.3946372837410629 0.6224170925461245 0
1.250091907429121 0.6056624327025939 0
2 6 0 83
424
425
426
427
428
429
430
431
432
433
434
435
436
437
438
439
440
441
442
443
444
445
446
447
448
449
450
451
452
453
454
455
456
457
458
459
460
461
462
463
464
465
466
467
468
469
470
471
472
473
474
475
476
477
478
479
480
481
482
483
484
485
486
487
488
489
490
491
492
493
494
495
496
497
498
499
500
501
502
503
504
505
506
0.8333333333333313 0.2886751345948119 1
1.498466637364593 0.7448341850922496 1
0.3127333641386878 0.4999999999999993 1
0.8333333333333313 0.7113248654051881 1
1.498466637364593 0.2551658149077489 1
1.166600142187479 0.7194902937885996 1
1.166600142187479 0.280509706211399 1
0.509748540022573 0.7445513215914823 1
0.5097485400225729 0.2554486784085171 1
1.712258795153276 0.4999999999999988 1
1.00026798186368 0.4999999999999996 1
1.335924461620569 0.499999999999999 1
0.6665275154523627 0.4999999999999997 1
0.2440169358562926 0.755983064143707 1
0.2440169358562918 0.2440169358562917 1
1.757680245148314 0.7576802451483141 1
1.757680245148315 0.2423197548516842 1
0.1220084679281459 0.1220084679281458 1
0.1220084679281459 0.2886751345948121 1
0.2886751345948123 0.1220084679281458 1
0.1220084679281463 0.7113248654051858 1
0.1220084679281463 0.8779915320718534 1
0.2886751345948127 0.8779915320718534 1
1.878840122574158 0.2878265440925084 1
1.878840122574158 0.1211598774258421 1
1.71217345590749 0.1211598774258421 1
1.878840122574157 0.8788401225741571 1
1.878840122574157 0.7121734559074895 1
1.712173455907489 0.8788401225741571 1
0.1563666820693439 0.4166666666666659 1
0.1563666820693439 0.583333333333332 1
0.2783751499974898 0.3720084679281455 1
0.2783751499974902 0.6279915320718531 1
1.856129397576638 0.5833333333333317 1
1.856129397576638 0.4166666666666656 1
1.734969520150796 0.3711598774258415 1
1.734969520150795 0.6288401225741564 1
0.588207603344619 0.1277243392042585 1
0.4215409366779528 0.1277243392042585 1
0.3768827379394323 0.2497328071324044 1
0.9166666666666643 0.1443375672974059 1
0.7499999999999982 0.1443375672974059 1
0.6715409366779521 0.2720619065016645 1
1.249966737760404 0.1402548531056995 1
1.083300071093738 0.1402548531056995 1
0.9999667377604051 0.2845924204031055 1
1.582566652015629 0.1275829074538745 1
1.415899985348961 0.1275829074538745 1
1.332533389776036 0.267837760559574 1
1.628073441256454 0.2487427848797166 1
0.4215409366779529 0.8722756607957411 1
0.5882076033446191 0.8722756607957411 1
0.3768827379394327 0.7502671928675946 1
0.7499999999999982 0.8556624327025941 1
0.9166666666666643 0.8556624327025941 1
0.6715409366779521 0.7279380934983353 1
1.083300071093738 0.8597451468942998 1
1.249966737760404 0.8597451468942998 1
0.9999667377604053 0.7154075795968939 1
1.415899985348961 0.8724170925461248 1
1.582566652015629 0.8724170925461248 1
1.332533389776036 0.7321622394404246 1
1.628073441256454 0.7512572151202819 1
1.083434062025579 0.3902548531056993 1
0.9168006575985055 0.3943375672974058 1
0.749930424392847 0.3943375672974058 1
0.5881380277374677 0.3777243392042584 1
0.8333977486580212 0.4999999999999997 1
1.251262301904025 0.6097451468942994 1
1.417195549492581 0.6224170925461243 1
1.524091628386923 0.4999999999999989 1
1.605362716258934 0.6224170925461242 1
0.4896304397955252 0.4999999999999994 1
0.5881380277374678 0.6222756607957409 1
0.4112409520806304 0.6222756607957408 1
0.4112409520806303 0.3777243392042582 1
0.9168006575985055 0.6056624327025939 1
1.08343406202558 0.6097451468942996 1
0.749930424392847 0.6056624327025939 1
1.417195549492581 0.377582907453874 1
1.251262301904024 0.390254853105699 1
1.605362716258934 0.3775829074538739 1
1.168096221742124 0.4999999999999993 1
3 1 0 268
507
508
509
510
511
512
513
514
515
516
517
518
519
520
521
522
523
524
525
526
527
528
529
530
531
532
533
534
535
536
537
538
539
540
541
542
543
544
545
546
547
548
549
550
551
552
553
554
555
556
557
558
559
560
561
562
563
564
565
566
567
568
569
570
571
572
573
574
575
576
577
578
579
580
581
582
583
584
585
586
587
588
589
590
591
592
593
594
595
596
597
598
599
600
601
602
603
604
605
606
607
608
609
610
611
612
613
614
615
616
617
618
619
620
621
622
623
624
625
626
627
628
629
630
631
632
633
634
635
636
637
638
639
640
641
642
643
644
645
646
647
648
649
650
651
652
653
654
655
656
657
658
659
660
661
662
663
664
665
666
667
668
669
670
671
672
673
674
675
676
677
678
679
680
681
682
683
684
685
686
687
688
689
690
691
692
693
694
695
696
697
698
699
700
701
702
703
704
705
706
707
708
709
710
711
712
713
714
715
716
717
718
719
720
721
722
723
724
725
726
727
728
729
730
731
732
733
734
735
736
737
738
739
740
741
742
743
744
745
746
747
748
749
750
751
752
753
754
755
756
757
758
759
760
761
762
763
764
765
766
767
768
769
770
771
772
773
774
0.833397748658022 0.5000446822889483 0.5000446822889479
1.510391892026445 0.5011155982964239 0.4982974833289224
0.4333251078241702 0.3955157532916814 0.6044842467083189
1.172025305572169 0.6275622450000636 0.6275622450000636
0.3728388417577531 0.6604441599110428 0.3437334386660725
1.153084425153061 0.3630034584599761 0.3652827320921364
0.6694043592814906 0.7071304590232621 0.7071304590232621
1.330868332914868 0.7044747726177399 0.295882422492735
0.6652845158170261 0.2964112741648134 0.2912316543744558
1.334658787559438 0.2956688581911115 0.7046831695675196
0.8333333333333313 0.1443375672974059 0.855662432702594
0.9999999999999973 0.1443375672974059 0.8556624327025941
1.250662727113051 0.1478344290955557 0.7080040174863539
1.083996060446385 0.2921719963929617 0.8523415847837599
1.083996060446385 0.1478344290955557 0.7080040174863538
1.166633404427071 0.1402548531056995 0.8556624327025941
1.250629464873459 0.2880892822012553 0.8523415847837599
0.8333655409956766 0.2500223411444741 0.605684773847068
0.8333655409956766 0.3943599084418801 0.750022341144474
1.08402826810873 0.3978567702400299 0.6023639259282338
0.8333655409956766 0.7500223411444742 0.3943599084418799
0.8333655409956766 0.6056847738470682 0.250022341144474
0.8333333333333313 0.8556624327025941 0.1443375672974059
1.0821008331241 0.8522373863088699 0.2922787785437734
1.0821008331241 0.707899819011464 0.1479412112463675
1.082133040786445 0.6022597274533441 0.3979635523908415
0.9999999999999972 0.8556624327025941 0.1443375672974059
1.166633404427071 0.8556624327025941 0.1402548531056995
1.248734237551173 0.8522373863088699 0.288196064352067
1.248767499790766 0.707899819011464 0.1479412112463675
0.6030860875455422 0.6858845126581155 0.1718667193330363
0.6030860875455422 0.8302220799555213 0.3162042866304422
0.6031182952078875 0.5802444210999955 0.4218890604775102
0.1211598774258424 0.2423197548516852 0.1211598774258428
0.1220084679281458 0.1211598774258428 0.2431683453539887
0.2431683453539883 0.1211598774258424 0.1220084679281458
0.3378224313379276 0.3189177540716831 0.3022421233541595
0.338671021840231 0.1977578766458407 0.4242505912823052
0.2166625539120851 0.3189177540716835 0.4234020007800023
0.307579298304719 0.4513819573813638 0.1718667193330363
0.4030819747909616 0.5279799566013621 0.4741088426871957
0.1864194208788765 0.4513819573813642 0.2930265967588791
0.1220084679281463 0.7568316546460105 0.8788401225741571
0.1220084679281462 0.8788401225741571 0.7568316546460105
0.2440169358562925 0.8779915320718534 0.8779915320718534
0.3386710218402314 0.5757494087176942 0.8022421233541595
0.3386710218402313 0.6977578766458407 0.6802336554260129
0.2166625539120851 0.5765979992199978 0.6810822459283166
0.3084278888070228 0.8302220799555213 0.5498582514048896
0.1864194208788765 0.7090622025296784 0.5507068419071934
1.498466637364593 0.8724170925461248 0.8724170925461249
1.628073441256454 0.8788401225741571 0.8724170925461249
1.504429264695519 0.6229748916943367 0.7491487416644612
1.63403606858738 0.6293979217223691 0.7491487416644612
1.504429264695519 0.750557799148212 0.6215658342105861
1.627224850754151 0.1220084679281456 0.1275829074538748
1.494359048671008 0.1277243392042585 0.1275829074538748
1.504429264695519 0.250557799148212 0.376731649118336
1.500321676001934 0.3782821383524705 0.2491487416644612
1.633187478085077 0.3725662670763576 0.2491487416644612
1.878840122574157 0.1211598774258422 0.7576802451483142
1.757680245148314 0.1211598774258421 0.8788401225741569
1.878840122574158 0.2423197548516844 0.8788401225741574
1.755195946013222 0.3717176765740542 0.6279888642386187
1.63403606858738 0.3717176765740541 0.7491487416644612
1.634036068587379 0.250557799148212 0.627988864238618
0.4546507258366589 0.1482056370824067 0.2676242951153737
0.5493048118205981 0.3459635137282474 0.4478579505413873
0.4538021353343555 0.2693655145082491 0.1456158271872279
1.878840122574157 0.8788401225741571 0.7576802451483142
1.878840122574157 0.7576802451483142 0.8788401225741571
1.757680245148315 0.8788401225741571 0.8788401225741571
1.63403606858738 0.750557799148212 0.6279888642386182
1.755195946013222 0.6293979217223691 0.6279888642386183
0.6715409366779521 0.8556624327025941 0.1277243392042585
0.441293690890163 0.8302220799555213 0.2995910585372948
0.4567106475688916 0.7315567615834846 0.8535652295116311
0.4567106475688915 0.8535652295116311 0.7315567615834844
0.5513647335528304 0.5513231061574717 0.6558073528657905
0.5190616787873896 0.4784277170379281 0.3174825465202642
1.877991532071854 0.2431683453539885 0.1211598774258428
1.756831654646012 0.1220084679281456 0.1211598774258424
1.878840122574157 0.1211598774258428 0.2423197548516852
1.755195946013222 0.3717176765740548 0.370308619090304
1.63403606858738 0.250557799148212 0.3703086190903036
1.878840122574157 0.8788401225741572 0.2423197548516847
1.756831654646011 0.8779915320718537 0.1211598774258422
1.877991532071853 0.7568316546460108 0.1211598774258425
1.755195946013222 0.6293979217223692 0.3703086190903037
1.633187478085076 0.6285493312200656 0.2491487416644612
1.63403606858738 0.750557799148212 0.3703086190903033
0.5211216005196218 0.6837873094671525 0.5254319488446673
0.5056409513289882 0.872417092546125 0.1277243392042585
0.4371861021965783 0.7026391725016464 0.1718667193330363
1.076542212576529 0.1815017292299881 0.4326413660460682
0.9932410869055415 0.4315240703744622 0.4326637071905421
0.9166988743290094 0.2500223411444741 0.500022341144474
1.167329393779718 0.1478344290955557 0.6023415847837598
1.24387160635625 0.3293361583255438 0.5349829508298281
1.546169516353877 0.2689943065213979 0.8523415847837599
1.546169516353876 0.1478344290955557 0.7311817073579167
1.422525339792942 0.3983922282437677 0.601490326448221
0.6333292205787507 0.3420954439432466 0.8022421233541595
0.6333292205787507 0.1977578766458407 0.6579045560567535
0.6333614282410961 0.4477802177903148 0.5522644644986334
0.9166988743290098 0.500022341144474 0.250022341144474
1.076542212576529 0.4315017292299879 0.1826413660460682
1.165434166457433 0.6022373863088698 0.1479412112463675
1.241976379033964 0.533739115538858 0.3305825772924357
0.509748540022573 0.1277243392042585 0.8722756607957411
0.6715409366779521 0.1443375672974059 0.8722756607957411
0.4715368239233716 0.1977578766458407 0.6745177841499006
0.4715368239233715 0.3254822158500992 0.8022421233541595
0.9168328652608508 0.500022341144474 0.750022341144474
1.002711527115096 0.563803463644506 0.5638034636445057
1.086146643717925 0.5637811225000317 0.8137811225000318
1.167463384711559 0.3978344290955556 0.8523415847837599
1.253342046565804 0.4616155515955875 0.6661227072837916
1.543425698529287 0.7302289183807236 0.1479412112463675
1.544274289031591 0.8522373863088699 0.2691010886722097
1.420630112470656 0.6027951854570819 0.3970899529108287
1.856129397576638 0.5003595197040862 0.8762800408580522
1.856129397576638 0.6288401225741564 0.8788401225741571
1.61132534358986 0.5005577991482113 0.7491487416644612
1.755195946013222 0.5009173188522988 0.6254287825225134
0.7499626320551922 0.7500223411444742 0.5000223411444737
0.5196831786050577 0.8302220799555213 0.4218667193330361
1.086146643717925 0.8137811225000318 0.5637811225000317
0.9168328652608508 0.7500223411444742 0.5000223411444737
1.165568157389274 0.8522373863088699 0.3979412112463673
1.251446819243519 0.6660185088089018 0.4617223337463993
0.3427861029482204 0.8302220799555213 0.4218667193330359
0.4910688617100891 0.8535652295116311 0.6035652295116307
1.856129397576638 0.1211598774258422 0.628840122574157
1.61132534358986 0.250557799148212 0.4991487416644608
1.856129397576638 0.8788401225741571 0.6288401225741566
1.61132534358986 0.750557799148212 0.4991487416644607
1.856129397576638 0.1211598774258428 0.3711598774258424
1.856129397576638 0.8788401225741572 0.3711598774258419
0.7500322076623435 0.5000223411444742 0.250022341144474
0.519752754212209 0.5802220799555213 0.1718667193330363
0.1220084679281463 0.6283510517759403 0.8762800408580522
0.2166625539120851 0.4481173963499275 0.6785221642122117
0.5895764496520317 0.8535652295116311 0.7258408903073722
1.598829263943878 0.5005577991482116 0.2491487416644612
0.3302900233022377 0.5802220799555209 0.1718667193330363
0.4765128603318742 0.3982056370824062 0.1456158271872279
0.3768827379394328 0.8779915320718534 0.8722756607957411
0.509748540022573 0.8722756607957411 0.8722756607957411
0.5895764496520317 0.7258408903073722 0.8535652295116311
0.1563666820693439 0.5003595197040865 0.8762800408580522
0.373029235981429 0.4477578766458403 0.8022421233541595
1.325775531258827 0.1815017292299881 0.310224273499943
1.321667942565242 0.3092260684342466 0.1826413660460682
1.331738158589753 0.4320595283782001 0.4317901077105294
0.5875165279197994 0.1482056370824067 0.2733401663914864
0.4890089399778569 0.1482056370824067 0.3956158271872275
1.410559896446145 0.7245130471046111 0.1479412112463675
1.509067484388089 0.6022373863088696 0.1479412112463675
0.5834089392262147 0.2757885445362813 0.1456158271872279
1.335245971468381 0.8137811225000318 0.6861982150461567
1.335245971468381 0.6861982150461566 0.8137811225000318
1.341208598799307 0.5643389216482437 0.562929864164493
1.62722485075415 0.8779915320718537 0.1275829074538745
1.41466748513973 0.8522373863088699 0.275524118700242
0.3727751492458476 0.1275829074538746 0.1220084679281458
1.494359048671008 0.8722756607957411 0.1275829074538745
1.498466637364593 0.1275829074538745 0.8724170925461251
1.628073441256453 0.1275829074538745 0.8788401225741569
1.416562712462015 0.1478344290955557 0.7247586773298849
1.416562712462015 0.2754173365494302 0.8523415847837599
1.523458791356357 0.3978344290955551 0.8523415847837599
0.5056409513289881 0.1275829074538746 0.1277243392042585
0.7499403002332187 0.2500223411444741 0.5000223411444739
0.5499039798162928 0.1977578766458407 0.5522421233541593
0.7499626320551923 0.500022341144474 0.750022341144474
0.5499263116382664 0.4477578766458405 0.8022421233541595
1.523458791356357 0.1478344290955557 0.6023415847837594
0.2166625539120851 0.5491911873052877 0.5522421233541589
0.1864194208788765 0.6816553906149684 0.4218667193330357
1.856129397576638 0.1507238075650763 0.4999999999999991
1.755195946013222 0.4012816067132882 0.4991487416644607
1.856129397576638 0.8514333106594469 0.4999999999999989
1.755195946013222 0.6019911098076589 0.4991487416644606
1.755195946013222 0.500917318852299 0.3728687008064085
0.373029235981429 0.1977578766458407 0.5522421233541591
0.1220084679281462 0.8514333106594469 0.6279915320718528
0.7514010539697562 0.6035875706561051 0.603587570656105
0.6679659373669266 0.8535652295116311 0.6035652295116308
1.162554865362615 0.4952828517300198 0.4964224885461
0.1220084679281458 0.1507238075650763 0.3720084679281453
0.2166625539120851 0.348481684210917 0.552242123354159
0.1563666820693439 0.8514333106594469 0.4999999999999991
0.6659755912418455 0.3982056370824067 0.1456158271872279
0.7493411322375241 0.3982279782268808 0.3956381683317018
0.1563666820693439 0.1507238075650763 0.4999999999999992
1.421954520109013 0.5005577991482117 0.2491487416644612
1.24330078667232 0.4315017292299879 0.1826413660460682
0.8333333333333313 0.8556624327025941 0.8556624327025941
0.9999667377604053 0.8597451468942998 0.8556624327025941
1.169312723879824 0.6735262693943316 0.8137811225000318
1.00267931945275 0.8137811225000318 0.6694435552026259
1.00267931945275 0.6694435552026259 0.8137811225000318
1.16660014218748 0.8597451468942998 0.8597451468942998
1.169312723879825 0.8137811225000318 0.6735262693943317
0.7513688463074109 0.7092276622142251 0.8535652295116311
0.9207148324268299 0.6673463520116629 0.6673463520116629
0.7513688463074109 0.8535652295116311 0.7092276622142251
1.421862612679887 0.250557799148212 0.4991487416644618
1.243208879243195 0.1815017292299881 0.4326413660460688
1.328425801082452 0.1277243392042585 0.1402548531057001
1.15984228367027 0.1815017292299881 0.3228962191517682
0.8348361705725851 0.8535652295116311 0.6035652295116308
0.8348361705725851 0.6035652295116308 0.8535652295116311
1.166633404427072 0.1443375672974059 0.1402548531057001
1.159875545909862 0.325839296527394 0.1826413660460682
1.423158176823507 0.5005577991482115 0.7491487416644612
1.253974883596369 0.5637811225000313 0.8137811225000318
0.9999999999999977 0.1402548531056996 0.1402548531057001
0.8333665955729233 0.1402548531056996 0.1443375672974059
0.9932088792431961 0.1815017292299881 0.3269789333434742
0.9932421414827882 0.3217565823356877 0.1826413660460682
1.422788015639616 0.750557799148212 0.4991487416644608
1.253604722412478 0.8137811225000318 0.5637811225000314
0.8326422579085115 0.1482056370824067 0.3956158271872279
0.9091844704850436 0.3297073663123947 0.3282571932332961
1.332533389776036 0.8597451468942998 0.8724170925461249
0.7493089245751786 0.1482056370824067 0.2899533944846339
0.8326422579085118 0.3982056370824065 0.1456158271872279
0.6658836838127207 0.1482056370824067 0.3956158271872278
0.6679659373669267 0.6035652295116309 0.8535652295116311
0.7493421868147707 0.2884604901881063 0.1456158271872279
1.332192740553224 0.6022373863088698 0.1479412112463675
1.335291624590004 0.3978344290955552 0.8523415847837599
1.333996060446384 0.1478344290955557 0.6023415847837604
1.333026236083827 0.8522373863088699 0.3979412112463672
1.521563564034072 0.8522373863088699 0.3979412112463669
0.1220084679281459 0.3723679876322327 0.8762800408580522
0.1220084679281459 0.2431683453539881 0.8788401225741574
0.2166625539120851 0.3189177540716829 0.6810822459283169
0.338671021840231 0.3197663445739866 0.8022421233541595
0.3768827379394324 0.1220084679281458 0.8722756607957411
0.4910688617100892 0.6035652295116307 0.8535652295116311
0.2440169358562921 0.1220084679281458 0.8779915320718534
0.3386710218402313 0.1977578766458407 0.6802336554260129
0.1220084679281462 0.1211598774258422 0.7568316546460108
0.1864194208788765 0.4809458875205976 0.4218667193330358
0.1220084679281462 0.1507238075650763 0.6279915320718529
0.1864194208788765 0.5805815996596084 0.2955866784749837
0.1211598774258428 0.6291996422782439 0.1237199591419474
0.1211598774258428 0.7576802451483141 0.1211598774258425
0.1864194208788765 0.7090622025296787 0.2930265967588788
0.3075792983047194 0.7090622025296782 0.1718667193330363
0.3727751492458476 0.872417092546125 0.1220084679281458
0.3084278888070224 0.8302220799555213 0.2938751872611821
0.1438706024233611 0.5003595197040864 0.1237199591419474
0.1220084679281458 0.8514333106594469 0.3720084679281452
0.1220084679281458 0.8788401225741572 0.2431683453539883
0.2431683453539887 0.8788401225741569 0.1220084679281458
0.6680355129740778 0.8535652295116311 0.8535652295116311
0.6659755912418456 0.1482056370824067 0.1456158271872279
1.333996060446384 0.1478344290955557 0.8523415847837599
1.878840122574158 0.371519397129929 0.8762800408580522
0.1211598774258424 0.3715193971299294 0.1237199591419474
1.332100833124099 0.8522373863088699 0.1479412112463675
1.843633317930655 0.5003595197040867 0.1237199591419474
1.877991532071854 0.3723679876322326 0.1237199591419474
1.877991532071853 0.6283510517759405 0.1237199591419474
$EndNodes
$Elements
7 625 1 625
2 1 9 26
1 10 1 99 13 101 102 
2 1 14 99 16 103 101 
3 2 9 100 11 104 105 
4 24 2 100 26 105 106 
5 15 3 97 18 107 108 
6 3 20 97 23 109 107 
7 19 4 98 21 110 111 
8 4 25 98 28 112 110 
9 9 10 93 12 113 114 
10 9 93 100 114 115 104 
11 93 10 99 113 102 116 
12 14 15 95 17 117 118 
13 14 95 99 118 119 103 
14 95 15 97 117 108 120 
15 20 19 94 22 121 122 
16 94 19 98 121 111 123 
17 20 94 97 122 124 109 
18 25 24 96 27 125 126 
19 96 24 100 125 106 127 
20 25 96 98 126 128 112 
21 94 93 95 129 130 131 
22 93 94 96 129 132 133 
23 95 93 99 130 116 119 
24 93 96 100 133 127 115 
25 94 95 97 131 120 124 
26 96 94 98 132 123 128 
2 2 9 26
27 30 140 5 142 143 33 
28 5 140 34 143 144 36 
29 6 141 29 145 146 31 
30 44 141 6 147 145 46 
31 35 138 7 148 149 38 
32 7 138 40 149 150 43 
33 39 139 8 151 152 41 
34 8 139 45 152 153 48 
35 29 134 30 154 155 32 
36 29 141 134 146 156 154 
37 134 140 30 157 142 155 
38 34 136 35 158 159 37 
39 34 140 136 144 160 158 
40 136 138 35 161 148 159 
41 40 135 39 162 163 42 
42 135 139 39 164 151 163 
43 40 138 135 150 165 162 
44 45 137 44 166 167 47 
45 137 141 44 168 147 167 
46 45 139 137 153 169 166 
47 135 136 134 170 171 172 
48 134 137 135 173 174 172 
49 136 140 134 160 157 171 
50 134 141 137 156 168 173 
51 135 138 136 165 161 170 
52 137 139 135 169 164 174 
2 3 9 50
53 1 10 188 13 192 193 
54 60 1 188 65 193 194 
55 9 2 189 11 195 196 
56 2 49 189 54 197 195 
57 30 5 190 33 198 199 
58 5 64 190 70 200 198 
59 6 29 191 31 201 202 
60 53 6 191 59 202 203 
61 10 9 177 12 204 205 
62 177 9 189 204 196 206 
63 10 177 188 205 207 192 
64 29 30 184 32 208 209 
65 29 184 191 209 210 201 
66 184 30 190 208 199 211 
67 49 50 183 55 212 213 
68 49 183 189 213 214 197 
69 50 51 175 56 215 216 
70 50 175 183 216 217 212 
71 51 52 180 57 218 219 
72 175 51 180 215 219 220 
73 52 53 176 58 221 222 
74 52 176 180 222 223 218 
75 176 53 191 221 203 224 
76 61 60 182 66 225 226 
77 182 60 188 225 194 227 
78 62 61 181 67 228 229 
79 181 61 182 228 226 230 
80 63 62 178 68 231 232 
81 178 62 181 231 229 233 
82 64 63 179 69 234 235 
83 63 178 179 232 236 234 
84 64 179 190 235 237 200 
85 175 180 185 220 238 239 
86 183 175 187 217 240 241 
87 175 185 187 239 242 240 
88 180 176 186 223 243 244 
89 176 184 186 245 246 243 
90 184 176 191 245 224 210 
91 182 177 187 247 248 249 
92 177 182 188 247 227 207 
93 177 183 187 250 241 248 
94 183 177 189 250 206 214 
95 179 178 186 236 251 252 
96 178 181 185 233 253 254 
97 178 185 186 254 255 251 
98 184 179 186 256 252 246 
99 179 184 190 256 211 237 
100 185 180 186 238 244 255 
101 181 182 187 230 249 257 
102 185 181 187 253 257 242 
2 4 9 50
103 3 271 20 275 276 23 
104 82 271 3 277 275 87 
105 19 272 4 278 279 21 
106 4 272 71 279 280 76 
107 40 273 7 281 282 43 
108 7 273 86 282 283 92 
109 8 274 39 284 285 41 
110 75 274 8 286 284 81 
111 20 260 19 287 288 22 
112 260 272 19 289 278 288 
113 20 271 260 276 290 287 
114 39 267 40 291 292 42 
115 39 274 267 285 293 291 
116 267 273 40 294 281 292 
117 71 266 72 295 296 77 
118 71 272 266 280 297 295 
119 72 258 73 298 299 78 
120 72 266 258 296 300 298 
121 73 264 74 301 302 79 
122 258 264 73 303 301 299 
123 74 262 75 304 305 80 
124 74 264 262 302 306 304 
125 262 274 75 307 286 305 
126 83 265 82 308 309 88 
127 265 271 82 310 277 309 
128 84 261 83 311 312 89 
129 261 265 83 313 308 312 
130 85 263 84 314 315 90 
131 84 263 261 315 316 311 
132 86 259 85 317 318 91 
133 259 263 85 319 314 318 
134 86 273 259 283 320 317 
135 258 268 264 321 322 303 
136 266 270 258 323 324 300 
137 258 270 268 324 325 321 
138 259 269 263 326 327 319 
139 267 269 259 328 326 329 
140 259 273 267 320 294 329 
141 265 270 260 330 331 332 
142 260 271 265 290 310 332 
143 260 270 266 331 323 333 
144 266 272 260 297 289 333 
145 263 268 261 334 335 316 
146 261 270 265 336 330 313 
147 268 270 261 325 336 335 
148 264 269 262 337 338 306 
149 262 269 267 338 328 339 
150 267 274 262 293 307 339 
151 263 269 268 327 340 334 
152 268 269 264 340 337 322 
2 5 9 50
153 2 24 357 26 358 359 
154 49 2 357 54 359 360 
155 25 4 356 28 361 362 
156 4 71 356 76 363 361 
157 44 6 355 46 364 365 
158 6 53 355 59 366 364 
159 8 45 354 48 367 368 
160 75 8 354 81 368 369 
161 24 25 350 27 370 371 
162 24 350 357 371 372 358 
163 350 25 356 370 362 373 
164 45 44 343 47 374 375 
165 343 44 355 374 365 376 
166 45 343 354 375 377 367 
167 50 49 342 55 378 379 
168 342 49 357 378 360 380 
169 51 50 346 56 381 382 
170 50 342 346 379 383 381 
171 52 51 341 57 384 385 
172 341 51 346 384 382 386 
173 53 52 349 58 387 388 
174 52 341 349 385 389 387 
175 53 349 355 388 390 366 
176 71 72 345 77 391 392 
177 71 345 356 392 393 363 
178 72 73 344 78 394 395 
179 72 344 345 395 396 391 
180 73 74 347 79 397 398 
181 344 73 347 394 398 399 
182 74 75 348 80 400 401 
183 347 74 348 397 401 402 
184 348 75 354 400 369 403 
185 341 346 352 386 404 405 
186 349 341 353 389 406 407 
187 341 352 353 405 408 406 
188 346 342 351 383 409 410 
189 342 350 351 411 412 409 
190 350 342 357 411 380 372 
191 348 343 353 413 414 415 
192 343 348 354 413 403 377 
193 343 349 353 416 407 414 
194 349 343 355 416 376 390 
195 345 344 351 396 417 418 
196 344 347 352 399 419 420 
197 351 344 352 417 420 421 
198 350 345 351 422 418 412 
199 345 350 356 422 373 393 
200 346 351 352 410 421 404 
201 347 348 353 402 415 423 
202 352 347 353 419 423 408 
2 6 9 50
203 1 438 14 441 442 16 
204 60 438 1 443 441 65 
205 15 437 3 444 445 18 
206 3 437 82 445 446 87 
207 34 440 5 447 448 36 
208 5 440 64 448 449 70 
209 7 439 35 450 451 38 
210 86 439 7 452 450 92 
211 14 426 15 453 454 17 
212 14 438 426 442 455 453 
213 426 437 15 456 444 454 
214 35 433 34 457 458 37 
215 433 440 34 459 447 458 
216 35 439 433 451 460 457 
217 61 432 60 461 462 66 
218 432 438 60 463 443 462 
219 62 424 61 464 465 67 
220 424 432 61 466 461 465 
221 63 430 62 467 468 68 
222 62 430 424 468 469 464 
223 64 428 63 470 471 69 
224 428 430 63 472 467 471 
225 64 440 428 449 473 470 
226 82 431 83 474 475 88 
227 82 437 431 446 476 474 
228 83 427 84 477 478 89 
229 83 431 427 475 479 477 
230 84 429 85 480 481 90 
231 427 429 84 482 480 478 
232 85 425 86 483 484 91 
233 85 429 425 481 485 483 
234 425 439 86 486 452 484 
235 430 434 424 487 488 469 
236 424 436 432 489 490 466 
237 434 436 424 491 489 488 
238 429 435 425 492 493 485 
239 425 435 433 493 494 495 
240 433 439 425 460 486 495 
241 426 436 431 496 497 498 
242 431 437 426 476 456 498 
243 432 436 426 490 496 499 
244 426 438 432 455 463 499 
245 427 434 429 500 501 482 
246 431 436 427 497 502 479 
247 427 436 434 502 491 500 
248 428 435 430 503 504 472 
249 433 435 428 494 503 505 
250 428 440 433 473 459 505 
251 434 435 429 506 492 501 
252 430 435 434 504 506 487 
3 1 11 373
253 178 181 424 516 233 517 518 519 520 521 
254 424 430 178 516 469 522 518 520 519 523 
255 181 507 424 516 524 525 517 521 520 526 
256 258 507 344 514 527 528 529 530 531 532 
257 264 258 347 514 303 533 534 535 536 530 
258 258 344 347 514 529 399 533 530 536 531 
259 344 507 258 511 528 527 529 537 538 539 
260 357 100 189 509 540 541 542 543 544 545 
261 357 100 509 511 540 545 543 546 547 548 
262 437 97 271 509 549 550 551 552 553 554 
263 271 509 97 511 553 554 550 555 556 547 
264 425 259 439 508 557 558 486 559 560 561 
265 176 355 349 508 562 390 563 564 565 566 
266 140 190 440 508 567 568 569 570 571 572 
267 189 357 509 515 542 543 544 573 574 575 
268 273 138 439 508 576 577 578 579 560 580 
269 266 344 258 511 581 529 300 582 538 537 
270 437 509 271 513 552 553 551 583 584 585 
271 357 511 509 515 546 547 543 575 574 586 
272 141 355 191 508 587 588 589 590 591 566 
273 439 259 273 508 558 320 578 560 579 561 
274 139 274 354 508 592 593 594 595 596 597 
275 271 509 511 513 553 547 555 584 598 585 
276 191 355 176 508 588 562 224 591 564 566 
277 344 266 345 511 581 599 396 537 600 582 
278 185 512 507 516 601 602 603 604 526 605 
279 440 508 190 516 571 572 568 606 607 608 
280 424 507 181 509 525 524 517 609 610 611 
281 352 507 512 514 612 602 613 614 615 532 
282 182 432 424 509 616 466 617 618 609 619 
283 434 507 510 516 620 621 622 623 624 526 
284 354 508 274 514 596 597 593 625 626 627 
285 138 136 433 508 161 628 629 580 630 631 
286 258 507 270 511 527 632 324 538 633 539 
287 268 510 507 514 634 621 635 636 532 637 
288 424 181 182 509 517 230 617 609 618 610 
289 271 511 260 513 555 638 290 584 639 598 
290 138 433 439 508 629 460 577 580 560 630 
291 140 184 190 508 640 211 567 570 572 641 
292 138 273 267 508 576 294 642 580 643 579 
293 191 184 141 508 210 644 589 591 590 641 
294 267 274 139 508 293 592 645 643 595 597 
295 351 507 344 511 646 528 417 647 537 539 
296 97 437 95 509 549 648 120 554 649 552 
297 266 258 270 511 300 324 323 582 633 538 
298 271 260 265 513 290 332 310 584 650 639 
299 349 355 343 508 390 376 416 565 651 566 
300 350 511 357 515 652 546 372 653 575 586 
301 431 437 265 513 476 654 655 656 650 583 
302 437 426 95 509 456 657 648 552 649 658 
303 176 508 349 512 564 565 563 659 660 661 
304 189 177 183 515 206 250 214 573 662 663 
305 348 343 354 514 413 377 403 664 625 665 
306 342 350 357 515 411 372 380 666 575 653 
307 433 425 439 508 495 486 460 630 560 559 
308 273 259 267 508 320 329 294 579 643 561 
309 437 271 265 513 551 310 654 583 650 584 
310 259 508 425 510 561 559 557 667 668 669 
311 184 191 176 508 210 224 245 641 564 591 
312 354 274 262 514 593 307 670 625 671 626 
313 343 508 354 514 651 596 377 665 625 627 
314 189 342 357 515 672 380 542 573 575 666 
315 348 354 262 514 403 670 673 664 671 625 
316 179 428 190 516 674 675 237 676 607 677 
317 440 428 433 516 473 505 459 606 678 677 
318 189 183 342 515 214 679 672 573 666 662 
319 181 507 187 509 524 680 257 610 681 611 
320 424 436 507 509 489 682 525 609 611 683 
321 351 344 345 511 417 396 418 647 600 537 
322 179 190 184 516 237 211 256 676 684 607 
323 440 433 508 516 459 630 571 606 608 678 
324 94 97 509 511 124 554 685 686 547 556 
325 190 508 184 516 572 641 211 607 684 608 
326 440 190 428 516 568 675 473 606 677 607 
327 140 134 184 508 157 687 640 570 641 688 
328 138 267 135 508 642 689 165 580 690 643 
329 134 141 184 508 156 644 687 688 641 590 
330 140 136 134 508 160 171 157 570 688 631 
331 267 139 135 508 645 164 689 643 690 595 
332 138 135 136 508 165 170 161 580 631 690 
333 134 137 141 508 173 168 156 688 590 691 
334 139 137 135 508 169 174 164 595 690 691 
335 189 509 177 515 544 692 206 573 663 574 
336 94 271 97 511 693 550 124 686 556 555 
337 507 270 511 513 632 633 539 694 598 695 
338 182 181 187 509 230 257 249 618 681 610 
339 424 432 436 509 466 490 489 609 683 619 
340 507 512 510 516 602 696 621 526 624 605 
341 100 93 189 509 115 697 541 545 544 698 
342 95 94 97 509 131 124 120 649 554 685 
343 94 260 271 511 699 290 693 686 555 638 
344 510 512 507 514 696 602 621 637 532 615 
345 351 507 511 515 646 539 647 700 586 701 
346 189 93 177 509 697 702 206 544 692 698 
347 349 508 353 512 565 703 407 660 704 661 
348 429 427 261 510 482 705 706 707 708 709 
349 261 263 429 510 316 710 706 708 707 711 
350 427 261 510 513 705 708 709 712 713 714 
351 349 343 353 508 416 414 407 565 703 651 
352 186 508 176 512 715 564 243 716 659 661 
353 180 176 349 512 223 563 717 718 660 659 
354 187 181 185 507 257 253 242 680 603 524 
355 270 258 268 507 324 321 325 632 635 527 
356 434 424 436 507 488 489 491 620 682 525 
357 261 268 510 513 335 634 708 714 713 719 
358 434 427 510 513 500 709 622 720 713 712 
359 507 510 268 513 621 634 635 694 719 713 
360 349 341 180 512 389 721 717 660 718 722 
361 434 510 507 513 622 621 620 720 694 713 
362 435 425 508 510 493 559 723 724 669 668 
363 175 180 346 512 220 725 726 727 728 718 
364 259 269 508 510 326 729 561 667 669 730 
365 185 507 512 515 603 602 601 731 732 701 
366 429 259 425 510 733 557 485 707 668 667 
367 429 263 259 510 710 319 733 707 667 711 
368 185 512 175 515 601 727 239 731 734 732 
369 341 346 180 512 386 725 721 722 718 728 
370 352 512 507 515 613 602 612 735 701 732 
371 270 507 268 513 632 635 325 695 719 694 
372 187 507 185 515 680 603 242 736 731 701 
373 434 507 436 513 620 682 491 720 737 694 
374 346 512 352 515 728 613 404 738 735 732 
375 429 261 427 84 706 705 482 480 478 311 
376 84 429 261 263 480 706 311 315 316 710 
377 175 512 346 515 727 728 726 734 738 732 
378 425 433 435 508 495 494 493 559 723 630 
379 436 507 509 513 682 611 683 737 585 694 
380 344 351 352 507 417 421 420 528 612 646 
381 176 186 184 508 243 246 245 564 641 715 
382 267 259 269 508 329 326 328 643 729 561 
383 187 509 507 515 681 611 680 736 701 574 
384 51 341 346 180 384 386 382 219 725 721 
385 51 346 175 180 382 726 215 219 220 725 
386 352 507 351 515 612 646 421 735 700 701 
387 353 508 343 514 703 651 414 739 665 627 
388 182 61 424 432 226 465 617 616 466 461 
389 435 508 433 516 723 630 494 740 678 608 
390 181 182 61 424 230 226 228 517 465 617 
391 85 425 429 259 483 485 481 318 733 557 
392 266 344 72 258 581 395 296 300 298 529 
393 263 85 429 259 314 481 710 319 733 318 
394 72 345 344 266 391 396 395 296 581 599 
395 186 184 508 516 246 641 715 741 608 684 
396 135 134 136 508 172 171 170 690 631 688 
397 269 267 508 514 328 643 729 742 627 743 
398 135 137 134 508 174 173 172 690 688 691 
399 349 341 52 180 389 385 387 717 218 721 
400 180 52 349 176 218 387 717 223 563 222 
401 353 512 508 514 704 661 703 739 627 615 
402 95 438 99 509 744 745 119 649 746 747 
403 95 426 438 509 657 455 744 649 747 658 
404 508 512 186 516 661 716 715 608 741 605 
405 260 511 270 513 638 633 331 639 695 598 
406 438 432 182 509 463 616 748 747 618 619 
407 187 185 175 515 242 239 240 736 734 731 
408 507 511 509 513 539 547 611 694 585 598 
409 435 510 508 516 724 669 723 740 608 624 
410 509 511 507 515 547 539 611 574 701 586 
411 508 510 269 514 669 730 729 627 742 637 
412 436 426 431 513 496 498 497 737 656 749 
413 260 270 265 513 331 330 332 639 650 695 
414 187 183 177 515 241 250 248 736 663 662 
415 263 261 268 510 316 335 334 711 634 708 
416 270 268 261 513 325 335 336 695 714 719 
417 429 434 427 510 501 500 482 707 709 622 
418 427 434 436 513 500 491 502 712 737 720 
419 341 349 353 512 389 407 406 722 704 660 
420 188 438 182 509 750 748 227 751 618 747 
421 188 99 438 509 752 745 750 751 747 746 
422 269 262 267 514 338 339 328 742 743 671 
423 351 511 350 515 647 652 412 700 653 586 
424 95 93 94 509 130 129 131 649 685 698 
425 93 94 509 511 129 685 698 753 547 686 
426 348 353 343 514 415 414 413 664 665 739 
427 351 350 342 515 412 411 409 700 666 653 
428 436 509 426 513 683 658 496 737 749 585 
429 435 433 428 516 494 505 503 740 677 678 
430 187 177 509 515 248 692 681 736 574 663 
431 186 179 184 516 252 256 246 741 684 676 
432 186 176 180 512 243 223 244 716 718 659 
433 188 93 99 509 754 116 752 751 746 698 
434 93 96 94 511 133 132 129 753 686 755 
435 188 177 93 509 207 702 754 751 698 692 
436 346 341 352 512 386 405 404 728 613 722 
437 346 352 351 515 404 421 410 738 700 735 
438 435 429 425 510 492 485 493 724 668 707 
439 259 263 269 510 319 327 326 667 730 711 
440 185 180 175 512 238 220 239 601 727 718 
441 268 264 269 514 322 337 340 636 742 535 
442 268 269 510 514 340 730 634 636 637 742 
443 436 432 426 509 490 499 496 683 658 619 
444 182 187 177 509 249 248 247 618 692 681 
445 95 99 93 509 119 116 130 649 698 746 
446 96 356 98 511 756 757 128 755 758 759 
447 260 266 270 511 333 323 331 638 633 582 
448 426 432 438 509 499 463 455 658 747 619 
449 188 182 177 509 227 247 207 751 692 618 
450 345 350 351 511 422 412 418 600 647 652 
451 345 266 272 511 599 297 760 600 761 582 
452 96 350 356 511 762 373 756 755 759 652 
453 341 353 352 512 406 408 405 722 613 704 
454 438 60 182 432 443 225 748 463 616 462 
455 82 437 265 431 446 654 309 474 655 476 
456 272 94 98 511 763 123 764 761 758 686 
457 260 94 272 511 699 763 289 638 761 686 
458 272 356 345 511 765 393 760 761 600 759 
459 438 60 188 182 443 194 750 748 227 225 
460 265 271 437 82 310 551 654 309 446 277 
461 435 434 429 510 506 501 492 724 707 622 
462 268 269 263 510 340 327 334 634 711 730 
463 355 176 349 53 562 563 390 366 388 221 
464 183 49 189 342 213 197 214 679 672 378 
465 75 354 262 348 369 670 305 400 673 403 
466 272 345 71 266 760 392 280 297 295 599 
467 83 261 427 513 312 705 477 766 712 714 
468 510 512 508 516 696 661 669 624 608 605 
469 425 86 439 259 484 452 486 557 558 317 
470 190 428 179 64 675 674 237 200 235 470 
471 508 512 510 514 661 696 669 627 637 615 
472 138 273 40 267 576 281 150 642 292 294 
473 274 39 267 139 285 291 293 592 645 151 
474 175 346 50 515 726 381 216 734 767 738 
475 180 185 186 512 238 255 244 718 716 601 
476 190 140 30 184 567 142 199 211 208 640 
477 191 184 29 141 210 209 201 589 146 644 
478 273 439 86 259 578 452 283 320 317 558 
479 64 190 428 440 200 675 470 449 473 568 
480 355 191 176 53 588 224 562 366 221 203 
481 262 274 354 75 307 593 670 305 369 286 
482 49 357 189 342 360 542 197 378 672 380 
483 188 93 10 99 754 113 192 752 102 116 
484 189 100 9 93 541 104 196 697 114 115 
485 63 178 430 516 232 522 467 768 523 519 
486 345 71 356 272 392 363 393 760 765 280 
487 34 140 440 136 144 569 447 158 769 160 
488 100 357 24 96 540 358 106 127 125 770 
489 264 347 74 514 534 397 302 535 771 536 
490 356 25 96 98 362 126 756 757 128 112 
491 10 177 93 188 205 702 113 192 754 207 
492 177 189 9 93 206 196 204 702 114 697 
493 19 98 272 94 111 764 278 121 763 123 
494 271 20 94 97 276 122 693 550 124 109 
495 272 98 356 511 764 757 765 761 759 758 
496 94 260 20 271 699 287 122 693 276 290 
497 260 19 272 94 288 278 289 699 763 121 
498 183 175 50 515 217 216 212 662 767 734 
499 83 427 431 513 477 479 475 766 656 712 
500 83 265 261 513 308 313 312 766 714 650 
501 265 83 431 513 308 475 655 650 656 766 
502 14 95 426 438 118 657 453 442 455 744 
503 44 137 343 355 167 772 374 365 376 773 
504 424 61 181 62 465 228 517 464 229 67 
505 261 83 427 84 312 477 705 311 478 89 
506 344 72 258 73 395 298 529 394 299 78 
507 14 95 438 99 118 744 442 103 745 119 
508 137 44 141 355 167 147 168 773 587 365 
509 95 437 15 426 648 444 117 657 454 456 
510 137 343 354 45 772 377 774 166 367 375 
511 50 342 183 515 379 679 212 767 662 666 
512 15 97 437 95 108 549 444 117 648 120 
513 137 354 139 45 774 594 169 166 153 367 
514 348 74 347 514 401 397 402 664 536 771 
515 346 342 50 515 383 379 381 738 767 666 
516 440 433 34 136 459 458 447 769 158 628 
517 179 178 63 516 236 232 234 676 768 519 
518 350 24 357 96 371 358 372 762 770 125 
519 262 74 348 514 304 401 673 671 664 771 
520 96 350 25 356 762 370 126 756 362 373 
521 262 264 74 514 306 302 304 671 771 535 
522 63 430 428 516 467 472 471 768 677 523 
523 264 73 74 347 301 79 302 534 397 398 
524 175 50 346 51 216 381 726 215 382 56 
525 341 51 52 180 384 57 385 721 218 219 
526 430 63 62 178 467 68 468 522 231 232 
527 267 40 138 135 292 150 642 689 165 162 
528 135 267 39 139 689 291 163 164 151 645 
529 63 428 179 516 471 674 234 768 676 677 
530 134 30 140 184 155 142 157 687 640 208 
531 134 29 184 141 154 209 687 156 644 146 
532 96 98 94 511 128 123 132 755 686 758 
533 84 85 429 263 90 481 480 315 710 314 
534 177 9 10 93 204 12 205 702 113 114 
535 260 20 19 94 287 22 288 699 121 122 
536 138 439 7 273 577 450 149 576 282 578 
537 5 140 190 440 143 567 198 448 568 569 
538 97 271 3 437 550 275 107 549 445 551 
539 1 438 188 99 441 750 193 101 752 745 
540 6 191 141 355 202 589 145 364 587 588 
541 98 356 4 272 757 361 110 764 279 765 
542 100 2 357 189 105 359 540 541 542 195 
543 139 274 8 354 592 284 152 594 368 593 
544 95 15 14 426 117 17 118 657 453 454 
545 45 137 343 44 166 772 375 47 374 167 
546 260 272 266 511 289 297 333 638 582 761 
547 356 350 345 511 373 422 393 759 600 652 
548 83 82 265 431 88 309 308 475 655 474 
549 61 182 60 432 226 225 66 461 462 616 
550 433 34 136 35 458 158 628 457 159 37 
551 135 267 40 39 689 292 162 163 42 291 
552 29 30 134 184 32 155 154 209 687 208 
553 350 25 24 96 370 27 371 762 125 126 
554 50 49 183 342 55 213 212 379 679 378 
555 176 52 349 53 222 387 563 221 388 58 
556 74 75 262 348 80 305 304 401 673 400 
557 345 72 71 266 391 77 392 599 295 296 
558 183 187 175 515 241 240 217 662 734 736 
559 425 85 86 259 483 91 484 557 317 318 
560 428 63 179 64 471 234 674 470 235 69 
561 427 436 431 513 502 497 479 712 656 737 
562 261 265 270 513 313 330 336 714 695 650 
563 347 353 348 514 423 415 402 536 664 739 
564 437 271 3 82 551 275 445 446 87 277 
565 1 438 60 188 441 443 65 193 194 750 
566 439 7 35 138 450 38 451 577 148 149 
567 439 86 7 273 452 92 450 578 282 283 
568 5 140 440 34 143 569 448 36 447 144 
569 64 5 190 440 70 198 200 449 568 448 
570 356 71 4 272 363 76 361 765 279 280 
571 2 49 357 189 54 360 359 195 542 197 
572 6 191 355 53 202 588 364 59 366 203 
573 354 274 8 75 593 284 368 369 81 286 
574 357 24 2 100 358 26 359 540 105 106 
575 4 25 356 98 28 362 361 110 757 112 
576 273 7 138 40 282 149 576 281 150 43 
577 8 39 274 139 41 285 284 152 592 151 
578 342 346 351 515 383 410 409 666 700 738 
579 140 30 5 190 142 33 143 567 198 199 
580 430 435 428 516 504 503 472 523 677 740 
581 264 262 269 514 306 338 337 535 742 671 
582 191 29 6 141 201 31 202 589 145 146 
583 179 186 178 516 252 251 236 676 519 741 
584 3 20 271 97 23 276 275 107 550 109 
585 97 3 15 437 107 18 108 549 444 445 
586 98 4 19 272 110 21 111 764 278 279 
587 100 9 2 189 104 11 105 541 195 196 
588 188 10 1 99 192 13 193 752 101 102 
589 8 139 354 45 152 594 368 48 367 153 
590 141 44 6 355 147 46 145 587 364 365 
591 1 14 438 99 16 442 441 101 745 103 
592 178 424 62 430 518 464 231 522 468 469 
593 178 62 424 181 231 464 518 233 517 229 
594 347 258 73 344 533 299 398 399 394 529 
595 347 73 258 264 398 299 533 534 303 301 
596 516 181 185 178 521 253 604 519 254 233 
597 516 185 181 507 604 253 521 526 524 603 
598 516 424 434 507 520 488 623 526 620 525 
599 516 434 424 430 623 488 520 523 469 487 
600 514 344 352 507 531 420 614 532 612 528 
601 514 352 344 347 614 420 531 536 399 419 
602 514 258 268 264 530 321 636 535 322 303 
603 514 268 258 507 636 321 530 532 527 635 
604 354 137 508 343 774 691 596 377 651 772 
605 508 137 354 139 691 774 596 595 594 169 
606 355 137 508 141 773 691 566 587 590 168 
607 355 508 137 343 566 691 773 376 772 651 
608 514 274 267 508 626 293 743 627 643 597 
609 514 267 274 262 743 293 626 671 307 339 
610 138 433 35 439 629 457 148 577 451 460 
611 138 35 433 136 148 457 629 161 628 159 
612 511 93 100 509 753 115 548 547 545 698 
613 511 100 93 96 548 115 753 755 133 127 
614 440 136 508 433 769 631 571 459 630 628 
615 508 136 440 140 631 769 571 570 569 160 
616 96 357 511 100 770 546 755 127 548 540 
617 96 511 357 350 755 546 770 762 372 652 
618 513 426 437 509 749 456 583 585 552 658 
619 513 437 426 431 583 456 749 656 498 476 
620 516 185 186 178 604 255 741 519 251 254 
621 516 186 185 512 741 255 604 605 601 716 
622 514 352 353 512 614 408 739 615 704 613 
623 514 353 352 347 739 408 614 536 419 423 
624 516 434 435 510 623 506 740 624 724 622 
625 516 435 434 430 740 506 623 523 487 504 
$EndElements
